<svg width="188" height="192" viewBox="0 0 188 192" fill="none" xmlns="http://www.w3.org/2000/svg">
<path d="M154.142 99.1073L152.971 100.045L154.142 99.1073ZM1.70233 17.6914C1.28681 16.9747 1.53097 16.0569 2.24765 15.6414L13.9267 8.87014C14.6434 8.45463 15.5612 8.69877 15.9768 9.41546C16.3923 10.1321 16.1481 11.05 15.4314 11.4655L5.05004 17.4843L11.0689 27.8657C11.4844 28.5824 11.2403 29.5002 10.5236 29.9158C9.80689 30.3313 8.88906 30.0871 8.47354 29.3705L1.70233 17.6914ZM181.91 190.904C180.512 190.361 180.512 190.361 180.512 190.361C180.512 190.361 180.512 190.361 180.512 190.361C180.512 190.361 180.512 190.362 180.512 190.362C180.511 190.362 180.511 190.362 180.511 190.362C180.511 190.363 180.511 190.363 180.511 190.363C180.511 190.363 180.512 190.361 180.513 190.359C180.514 190.354 180.518 190.346 180.522 190.334C180.531 190.309 180.546 190.269 180.566 190.213C180.606 190.101 180.665 189.927 180.74 189.693C180.89 189.225 181.1 188.517 181.332 187.58L184.244 188.3C183.996 189.305 183.767 190.079 183.597 190.608C183.513 190.872 183.443 191.076 183.393 191.216C183.368 191.286 183.348 191.341 183.334 191.38C183.327 191.399 183.321 191.415 183.316 191.426C183.314 191.432 183.312 191.436 183.311 191.44C183.31 191.442 183.31 191.444 183.309 191.445C183.309 191.446 183.309 191.446 183.308 191.447C183.308 191.447 183.308 191.447 183.308 191.448C183.308 191.448 183.308 191.448 183.308 191.448C183.308 191.448 183.308 191.448 181.91 190.904ZM182.419 181.634C182.645 179.858 182.824 177.829 182.903 175.564L185.902 175.67C185.819 178.029 185.632 180.15 185.395 182.013L182.419 181.634ZM182.869 169.477C182.782 167.562 182.621 165.53 182.366 163.387L185.345 163.032C185.609 165.249 185.776 167.354 185.866 169.341L182.869 169.477ZM181.432 157.342C181.068 155.416 180.628 153.419 180.1 151.354L183.007 150.612C183.551 152.738 184.005 154.797 184.38 156.785L181.432 157.342ZM178.407 145.466C177.805 143.583 177.131 141.651 176.376 139.674L179.18 138.605C179.953 140.634 180.646 142.617 181.265 144.553L178.407 145.466ZM174.042 133.999C173.236 132.174 172.362 130.314 171.416 128.422L174.099 127.08C175.067 129.015 175.961 130.918 176.786 132.788L174.042 133.999ZM168.542 122.987C167.57 121.243 166.537 119.474 165.437 117.682L167.995 116.114C169.116 117.941 170.17 119.746 171.163 121.527L168.542 122.987ZM162.116 112.497C161.001 110.828 159.829 109.14 158.598 107.435L161.031 105.679C162.283 107.414 163.475 109.131 164.611 110.83L162.116 112.497ZM154.902 102.496C154.272 101.683 153.629 100.866 152.971 100.045L155.312 98.1693C155.98 99.0026 156.634 99.8323 157.274 100.658L154.902 102.496ZM152.971 100.045C152.38 99.3075 151.776 98.5743 151.159 97.8456L153.45 95.9078C154.083 96.6565 154.704 97.4103 155.312 98.1693L152.971 100.045ZM147.344 93.5597C146.047 92.1724 144.706 90.8025 143.324 89.4501L145.423 87.3062C146.835 88.6882 148.207 90.0898 149.535 91.511L147.344 93.5597ZM139.129 85.5073C137.715 84.2301 136.267 82.9697 134.787 81.7262L136.717 79.4293C138.223 80.695 139.699 81.979 141.14 83.2814L139.129 85.5073ZM130.319 78.0963C128.816 76.9151 127.287 75.7503 125.733 74.602L127.516 72.1895C129.093 73.3547 130.646 74.5375 132.173 75.7377L130.319 78.0963ZM121.044 71.2352C119.471 70.1369 117.877 69.0547 116.266 67.9887L117.921 65.4867C119.552 66.5659 121.167 67.6621 122.761 68.7752L121.044 71.2352ZM111.409 64.8559C109.78 63.8318 108.138 62.8237 106.484 61.8318L108.028 59.2591C109.699 60.2616 111.359 61.2808 113.006 62.3166L111.409 64.8559ZM101.496 58.9069C99.8214 57.9469 98.1384 57.0033 96.4495 56.076L97.8934 53.4463C99.5978 54.3822 101.297 55.3348 102.988 56.3042L101.496 58.9069ZM91.353 53.3351C89.6418 52.4336 87.9276 51.5487 86.2133 50.6807L87.5685 48.0043C89.2967 48.8793 91.0253 49.7716 92.7514 50.6809L91.353 53.3351ZM81.0301 48.1064C79.2832 47.2552 77.5392 46.4215 75.8012 45.6056L77.076 42.89C78.8267 43.7119 80.5838 44.5517 82.3442 45.4095L81.0301 48.1064ZM70.5373 43.1789C68.7615 42.3749 66.9954 41.5899 65.2424 40.8238L66.4437 38.0748C68.2084 38.846 69.9864 39.6364 71.7746 40.446L70.5373 43.1789ZM59.9196 38.5379C58.1173 37.7772 56.333 37.0374 54.5708 36.3186L55.7037 33.5408C57.4769 34.264 59.2723 35.0084 61.0862 35.774L59.9196 38.5379ZM49.1965 34.1636C47.3652 33.4416 45.5636 32.7439 43.7963 32.0704L44.8646 29.267C46.6422 29.9445 48.4545 30.6464 50.2968 31.3726L49.1965 34.1636ZM38.3687 30.0368C36.4997 29.3485 34.6788 28.69 32.9123 28.0616L33.9178 25.2351C35.6944 25.8671 37.5258 26.5294 39.4055 27.2217L38.3687 30.0368ZM27.4289 26.1451C25.5088 25.486 23.6725 24.8682 21.9301 24.292L22.8721 21.4437C24.6248 22.0233 26.4718 22.6447 28.4029 23.3076L27.4289 26.1451ZM16.4568 22.517C14.3964 21.8623 12.5295 21.2845 10.8815 20.7844L11.7527 17.9137C13.4126 18.4174 15.292 18.9991 17.3653 19.6579L16.4568 22.517ZM5.37564 19.1589C4.476 18.9016 3.78363 18.7085 3.31718 18.58C3.08397 18.5157 2.90724 18.4676 2.78933 18.4357C2.73037 18.4197 2.68612 18.4078 2.65687 18.4C2.64225 18.3961 2.63137 18.3931 2.62428 18.3912C2.62074 18.3903 2.61814 18.3896 2.61649 18.3892C2.61567 18.389 2.61508 18.3888 2.61473 18.3887C2.61456 18.3887 2.61444 18.3886 2.61439 18.3886C2.61437 18.3886 2.61436 18.3886 2.61436 18.3886C2.61436 18.3886 2.61437 18.3886 2.61437 18.3886C2.61439 18.3886 2.61441 18.3886 3.00001 16.939C3.3856 15.4894 3.38564 15.4894 3.38566 15.4894C3.38568 15.4895 3.38571 15.4895 3.38574 15.4895C3.38581 15.4895 3.38589 15.4895 3.38598 15.4895C3.38617 15.4896 3.3864 15.4896 3.38671 15.4897C3.38732 15.4899 3.38816 15.4901 3.38924 15.4904C3.39142 15.491 3.39453 15.4918 3.3986 15.4929C3.40674 15.4951 3.41867 15.4983 3.43435 15.5025C3.46571 15.5109 3.51209 15.5234 3.57319 15.5399C3.6954 15.573 3.87651 15.6223 4.11417 15.6878C4.58952 15.8188 5.29113 16.0145 6.20034 16.2744L5.37564 19.1589ZM154.142 99.1073L151.801 100.983L154.142 99.1073ZM0.40466 18.4437C-0.426369 17.0104 0.0619172 15.1747 1.4953 14.3437L24.8534 0.801251C26.2868 -0.0297752 28.1225 0.458514 28.9535 1.89188C29.7845 3.32527 29.2962 5.16092 27.8629 5.99195L7.10007 18.0297L19.1378 38.7925C19.9688 40.2258 19.4805 42.0615 18.0471 42.8925C16.6138 43.7235 14.7781 43.2352 13.9471 41.8019L0.40466 18.4437ZM181.91 190.904C179.114 189.817 179.114 189.817 179.114 189.817C179.114 189.818 179.114 189.818 179.114 189.818C179.113 189.818 179.113 189.819 179.113 189.819C179.113 189.82 179.113 189.821 179.112 189.821C179.112 189.822 179.112 189.823 179.111 189.824C179.111 189.826 179.111 189.826 179.111 189.825C179.111 189.824 179.113 189.819 179.116 189.811C179.123 189.793 179.135 189.76 179.152 189.711C179.187 189.614 179.242 189.455 179.312 189.236C179.452 188.799 179.653 188.122 179.876 187.219L185.7 188.66C185.443 189.7 185.205 190.506 185.026 191.065C184.937 191.345 184.862 191.563 184.807 191.718C184.779 191.795 184.757 191.857 184.74 191.903C184.731 191.926 184.724 191.945 184.718 191.96C184.715 191.967 184.713 191.973 184.711 191.979C184.71 191.982 184.709 191.984 184.708 191.986C184.708 191.987 184.707 191.988 184.707 191.989C184.707 191.99 184.707 191.99 184.706 191.991C184.706 191.991 184.706 191.991 184.706 191.991C184.706 191.992 184.706 191.992 181.91 190.904ZM180.931 181.445C181.151 179.713 181.326 177.729 181.404 175.511L187.401 175.722C187.316 178.129 187.126 180.295 186.883 182.202L180.931 181.445ZM181.37 169.544C181.285 167.665 181.127 165.67 180.876 163.565L186.834 162.855C187.103 165.108 187.273 167.25 187.364 169.273L181.37 169.544ZM179.958 157.621C179.6 155.726 179.167 153.76 178.647 151.726L184.46 150.24C185.012 152.398 185.473 154.488 185.854 156.506L179.958 157.621ZM176.978 145.923C176.385 144.066 175.719 142.16 174.975 140.208L180.581 138.07C181.365 140.125 182.066 142.134 182.693 144.097L176.978 145.923ZM172.669 134.605C171.873 132.802 171.01 130.964 170.074 129.093L175.44 126.409C176.419 128.365 177.323 130.29 178.158 132.182L172.669 134.605ZM167.232 123.717C166.27 121.992 165.247 120.241 164.159 118.466L169.274 115.33C170.405 117.175 171.471 118.998 172.473 120.796L167.232 123.717ZM160.869 113.33C159.764 111.676 158.603 110.004 157.382 108.313L162.247 104.801C163.51 106.55 164.712 108.282 165.858 109.997L160.869 113.33ZM153.717 103.415C153.092 102.608 152.453 101.797 151.801 100.983L156.483 97.2314C157.156 98.0709 157.814 98.9071 158.46 99.7398L153.717 103.415ZM151.801 100.983C151.218 100.256 150.622 99.5332 150.014 98.8145L154.595 94.939C155.237 95.6976 155.866 96.4617 156.483 97.2314L151.801 100.983ZM146.248 94.584C144.967 93.2136 143.641 91.8596 142.275 90.5221L146.472 86.2343C147.899 87.631 149.287 89.0485 150.631 90.4867L146.248 94.584ZM138.123 86.6203C136.724 85.3557 135.289 84.1071 133.822 82.8747L137.682 78.2809C139.201 79.5576 140.691 80.8535 142.146 82.1684L138.123 86.6203ZM129.392 79.2755C127.901 78.1039 126.383 76.9481 124.841 75.8083L128.408 70.9832C129.996 72.1569 131.561 73.3487 133.1 74.5584L129.392 79.2755ZM120.186 72.4652C118.623 71.3743 117.039 70.2991 115.438 69.2397L118.749 64.2357C120.39 65.3215 122.015 66.4247 123.62 67.5452L120.186 72.4652ZM110.61 66.1256C108.991 65.1073 107.358 64.1048 105.713 63.1181L108.799 57.9728C110.479 58.9805 112.149 60.0052 113.805 61.0469L110.61 66.1256ZM100.75 60.2082C99.0836 59.253 97.4086 58.3138 95.7276 57.3908L98.6154 52.1315C100.328 53.0716 102.035 54.0288 103.734 55.0029L100.75 60.2082ZM90.6539 54.6622C88.95 53.7645 87.243 52.8834 85.5357 52.019L88.246 46.666C89.9813 47.5446 91.7171 48.4406 93.4506 49.3539L90.6539 54.6622ZM80.3731 49.4548C78.6328 48.6069 76.8954 47.7764 75.1637 46.9634L77.7135 41.5322C79.4705 42.357 81.2341 43.2 83.0013 44.0611L80.3731 49.4548ZM69.9186 44.5454C68.149 43.7442 66.3889 42.9618 64.6418 42.1983L67.0444 36.7004C68.8148 37.474 70.5989 38.2671 72.3933 39.0795L69.9186 44.5454ZM59.3363 39.9198C57.5397 39.1615 55.7611 38.4241 54.0043 37.7075L56.2702 32.1519C58.0488 32.8773 59.8498 33.624 61.6695 34.392L59.3363 39.9198ZM48.6464 35.5591C46.8206 34.8393 45.0243 34.1435 43.2622 33.472L45.3988 27.8654C47.1816 28.5447 48.9992 29.2487 50.8469 29.9772L48.6464 35.5591ZM37.8503 31.4444C35.9867 30.758 34.171 30.1015 32.4096 29.4748L34.4206 23.8219C36.2022 24.4557 38.0388 25.1198 39.9239 25.8141L37.8503 31.4444ZM26.9418 27.5638C25.0273 26.9066 23.1964 26.2906 21.4592 25.7162L23.343 20.0196C25.1009 20.6009 26.9533 21.2241 28.8899 21.8889L26.9418 27.5638ZM16.0025 23.9466C13.9486 23.2939 12.088 22.7181 10.4459 22.2197L12.1884 16.4783C13.8542 16.9839 15.7397 17.5674 17.8196 18.2284L16.0025 23.9466ZM4.96328 20.6011C4.06843 20.3452 3.38068 20.1534 2.91869 20.0261C2.68769 19.9624 2.51315 19.9149 2.39739 19.8836C2.33951 19.8679 2.29633 19.8563 2.26814 19.8487C2.25405 19.845 2.24369 19.8422 2.23712 19.8404C2.23384 19.8396 2.2315 19.8389 2.23011 19.8386C2.22942 19.8384 2.22896 19.8382 2.22875 19.8382C2.22864 19.8382 2.22859 19.8381 2.2286 19.8382C2.22861 19.8382 2.22862 19.8382 2.22866 19.8382C2.22868 19.8382 2.22872 19.8382 2.22872 19.8382C2.22877 19.8382 2.22881 19.8382 3.00001 16.939C3.77121 14.0398 3.77126 14.0399 3.77131 14.0399C3.77134 14.0399 3.77139 14.0399 3.77144 14.0399C3.77154 14.0399 3.77165 14.04 3.77177 14.04C3.77202 14.0401 3.77232 14.0401 3.77269 14.0402C3.77344 14.0404 3.77442 14.0407 3.77562 14.041C3.77805 14.0417 3.78143 14.0426 3.78577 14.0437C3.79442 14.046 3.80687 14.0494 3.82309 14.0537C3.8555 14.0624 3.90295 14.0752 3.96512 14.092C4.08948 14.1257 4.27278 14.1756 4.51268 14.2417C4.99246 14.3739 5.6987 14.5709 6.6127 14.8322L4.96328 20.6011Z" fill="#F77600"/>
</svg>
