<svg width="363" height="116" viewBox="0 0 363 116" fill="none" xmlns="http://www.w3.org/2000/svg">
<path d="M230.545 107.549L230.793 106.069L230.545 107.549ZM2.75127 7.53533C1.94234 7.714 1.4314 8.51461 1.61008 9.32354L4.52167 22.5058C4.70036 23.3148 5.50096 23.8257 6.30989 23.647C7.11883 23.4683 7.62974 22.6677 7.45106 21.8588L4.86297 10.1412L16.5806 7.55314C17.3895 7.37447 17.9004 6.57385 17.7218 5.76493C17.5431 4.95599 16.7425 4.44507 15.9335 4.62374L2.75127 7.53533ZM360.661 96.8144C359.673 95.6861 359.673 95.6859 359.673 95.6858C359.673 95.6857 359.673 95.6856 359.673 95.6855C359.673 95.6854 359.674 95.6852 359.674 95.685C359.674 95.6848 359.674 95.6845 359.675 95.6843C359.675 95.6838 359.675 95.6836 359.675 95.6835C359.676 95.6833 359.675 95.6837 359.674 95.6848C359.671 95.687 359.666 95.6918 359.657 95.6991C359.64 95.7137 359.61 95.7384 359.568 95.7726C359.484 95.841 359.349 95.9476 359.162 96.088C358.789 96.3688 358.205 96.7851 357.393 97.3021L359.005 99.8324C359.882 99.2735 360.529 98.8133 360.964 98.4867C361.182 98.3233 361.346 98.1935 361.459 98.1013C361.516 98.0553 361.56 98.0187 361.592 97.992C361.607 97.9787 361.62 97.9679 361.63 97.9597C361.634 97.9556 361.639 97.9521 361.642 97.9492C361.643 97.9478 361.645 97.9466 361.646 97.9455C361.647 97.9449 361.647 97.9444 361.648 97.944C361.648 97.9437 361.648 97.9435 361.649 97.9433C361.649 97.9432 361.649 97.9431 361.649 97.943C361.649 97.9429 361.649 97.9427 360.661 96.8144ZM352.259 100.136C350.715 100.885 348.908 101.686 346.82 102.503L347.912 105.297C350.074 104.452 351.953 103.619 353.569 102.834L352.259 100.136ZM341.203 104.491C339.431 105.058 337.515 105.619 335.451 106.16L336.212 109.062C338.328 108.507 340.294 107.932 342.118 107.348L341.203 104.491ZM329.636 107.541C327.77 107.94 325.804 108.321 323.737 108.676L324.245 111.633C326.352 111.271 328.357 110.883 330.263 110.475L329.636 107.541ZM317.823 109.58C315.91 109.838 313.922 110.073 311.856 110.283L312.159 113.268C314.257 113.055 316.278 112.815 318.223 112.553L317.823 109.58ZM305.86 110.8C303.918 110.938 301.915 111.054 299.85 111.145L299.981 114.142C302.074 114.05 304.104 113.933 306.073 113.792L305.86 110.8ZM293.835 111.332C291.881 111.368 289.876 111.382 287.819 111.373L287.805 114.373C289.885 114.382 291.913 114.368 293.89 114.331L293.835 111.332ZM281.803 111.278C279.842 111.226 277.836 111.153 275.786 111.057L275.646 114.054C277.716 114.15 279.742 114.224 281.724 114.277L281.803 111.278ZM269.763 110.717C267.79 110.587 265.779 110.437 263.729 110.265L263.478 113.254C265.546 113.428 267.575 113.579 269.566 113.711L269.763 110.717ZM257.722 109.71C255.766 109.512 253.776 109.296 251.752 109.059L251.404 112.039C253.443 112.277 255.449 112.496 257.421 112.694L257.722 109.71ZM245.761 108.314C243.785 108.053 241.778 107.773 239.741 107.474L239.305 110.443C241.357 110.743 243.378 111.025 245.368 111.288L245.761 108.314ZM233.818 106.565C232.817 106.404 231.808 106.239 230.793 106.069L230.298 109.028C231.32 109.199 232.335 109.365 233.343 109.527L233.818 106.565ZM230.793 106.069C229.834 105.909 228.873 105.743 227.91 105.57L227.381 108.523C228.356 108.698 229.328 108.866 230.298 109.028L230.793 106.069ZM222.095 104.464C220.185 104.08 218.265 103.673 216.337 103.245L215.686 106.173C217.633 106.606 219.572 107.017 221.503 107.405L222.095 104.464ZM210.57 101.908C208.668 101.448 206.759 100.97 204.844 100.472L204.09 103.376C206.021 103.878 207.947 104.36 209.866 104.824L210.57 101.908ZM199.136 98.9415C197.241 98.4173 195.342 97.8761 193.439 97.3189L192.596 100.198C194.513 100.759 196.426 101.305 198.336 101.833L199.136 98.9415ZM187.786 95.6204C185.904 95.041 184.02 94.4469 182.135 93.839L181.214 96.6943C183.112 97.3061 185.008 97.9041 186.903 98.4875L187.786 95.6204ZM176.522 91.9906C174.655 91.3634 172.788 90.7234 170.921 90.0717L169.932 92.9041C171.81 93.5595 173.688 94.2033 175.566 94.8344L176.522 91.9906ZM165.344 88.0899C163.49 87.4199 161.638 86.739 159.788 86.0482L158.738 88.8587C160.598 89.5531 162.46 90.2375 164.324 90.9112L165.344 88.0899ZM154.251 83.9491C152.409 83.2404 150.57 82.5225 148.735 81.7964L147.631 84.5859C149.475 85.3155 151.323 86.0368 153.174 86.749L154.251 83.9491ZM143.24 79.593C141.408 78.8491 139.581 78.0977 137.76 77.3396L136.607 80.1092C138.436 80.8705 140.271 81.6252 142.111 82.3725L143.24 79.593ZM132.302 75.0404C130.482 74.2651 128.669 73.4839 126.864 72.6976L125.666 75.4481C127.478 76.2375 129.299 77.0219 131.126 77.8004L132.302 75.0404ZM121.437 70.3092C119.63 69.506 117.832 68.6985 116.044 67.8876L114.805 70.6197C116.6 71.4336 118.404 72.2442 120.218 73.0505L121.437 70.3092ZM110.643 65.415C108.845 64.584 107.057 63.7503 105.282 62.915L104.005 65.6296C105.786 66.4678 107.58 67.3043 109.385 68.1383L110.643 65.415ZM99.9234 60.3719C98.1292 59.5131 96.3486 58.6535 94.5825 57.7941L93.2698 60.4916C95.0415 61.3538 96.828 62.2162 98.6282 63.0779L99.9234 60.3719ZM89.2811 55.1935C87.4885 54.3072 85.7126 53.4221 83.9547 52.5394L82.6085 55.2204C84.3718 56.1058 86.1532 56.9936 87.9515 57.8828L89.2811 55.1935ZM78.675 49.8686C76.8985 48.9633 75.1425 48.0616 73.4081 47.1649L72.0303 49.8298C73.7698 50.7292 75.531 51.6335 77.3129 52.5415L78.675 49.8686ZM68.1327 44.4181C66.3644 43.4909 64.6215 42.5705 62.9053 41.6582L61.4971 44.3072C63.2182 45.2221 64.9662 46.1451 66.7395 47.075L68.1327 44.4181ZM57.6882 38.8662C55.9102 37.9083 54.1647 36.9614 52.4535 36.0272L51.0159 38.6604C52.7319 39.5972 54.4823 40.5467 56.2653 41.5073L57.6882 38.8662ZM47.2589 33.1727C45.4976 32.1985 43.778 31.241 42.1025 30.3022L40.6361 32.9194C42.3163 33.8608 44.0406 34.821 45.8069 35.7979L47.2589 33.1727ZM36.9542 27.3991C35.1714 26.3872 33.4477 25.4022 31.7866 24.4469L30.2911 27.0476C31.957 28.0056 33.6856 28.9934 35.4734 30.0081L36.9542 27.3991ZM26.648 21.4724C24.8519 20.4257 23.1475 19.4251 21.5401 18.4754L20.0141 21.0583C21.6265 22.0109 23.3361 23.0146 25.1376 24.0644L26.648 21.4724ZM16.4821 15.4654C14.5682 14.318 12.8522 13.2793 11.3479 12.3623L9.78644 14.9239C11.2967 15.8446 13.0192 16.8871 14.9395 18.0384L16.4821 15.4654ZM6.29846 9.25344C5.50458 8.75903 4.89928 8.37886 4.49304 8.12265C4.28988 7.99454 4.13653 7.89743 4.03419 7.83251C3.98305 7.80005 3.94465 7.77564 3.91918 7.75944C3.90643 7.75133 3.89695 7.74528 3.8907 7.7413C3.88758 7.73931 3.88527 7.73784 3.88377 7.73688C3.88301 7.7364 3.88247 7.73605 3.88211 7.73583C3.88195 7.73573 3.88184 7.73565 3.88176 7.73561C3.88174 7.73559 3.88171 7.73557 3.88171 7.73557C3.88171 7.73557 3.88171 7.73557 3.07478 9.00003C2.26785 10.2645 2.26785 10.2645 2.26787 10.2645C2.26787 10.2645 2.2679 10.2645 2.26793 10.2645C2.26795 10.2646 2.26804 10.2646 2.26809 10.2646C2.26823 10.2647 2.26842 10.2649 2.26866 10.265C2.26912 10.2653 2.2698 10.2657 2.2707 10.2663C2.27247 10.2674 2.27505 10.2691 2.27847 10.2713C2.28526 10.2756 2.29532 10.282 2.30861 10.2905C2.33519 10.3074 2.37471 10.3325 2.42699 10.3657C2.53158 10.432 2.68725 10.5306 2.89271 10.6602C3.30361 10.9193 3.91373 11.3025 4.71257 11.8L6.29846 9.25344ZM230.545 107.549L231.04 104.59L230.545 107.549ZM2.42774 6.07063C0.809905 6.42797 -0.211958 8.02919 0.145391 9.64705L5.96856 36.0116C6.32591 37.6295 7.92711 38.6513 9.54498 38.294C11.1628 37.9367 12.1847 36.3354 11.8274 34.7176L6.6512 11.2824L30.0864 6.10623C31.7042 5.7489 32.7261 4.14768 32.3687 2.52982C32.0114 0.911956 30.4102 -0.109897 28.7923 0.247442L2.42774 6.07063ZM360.661 96.8144C358.684 94.5577 358.684 94.5575 358.685 94.5572C358.685 94.5571 358.685 94.5568 358.685 94.5566C358.686 94.5563 358.686 94.5559 358.687 94.5556C358.687 94.5549 358.688 94.5543 358.689 94.5537C358.69 94.5525 358.691 94.5515 358.692 94.5506C358.694 94.5489 358.696 94.5478 358.696 94.5474C358.697 94.5466 358.695 94.5484 358.69 94.5526C358.68 94.5612 358.657 94.58 358.622 94.6083C358.553 94.6648 358.433 94.7598 358.262 94.8887C357.918 95.1466 357.366 95.5409 356.587 96.037L359.811 101.097C360.721 100.518 361.4 100.036 361.865 99.686C362.098 99.5112 362.277 99.3697 362.405 99.2657C362.469 99.2137 362.52 99.1711 362.559 99.1385C362.578 99.1222 362.594 99.1084 362.608 99.0971C362.614 99.0915 362.62 99.0865 362.625 99.0821C362.627 99.08 362.63 99.0779 362.632 99.0761C362.633 99.0752 362.634 99.0743 362.635 99.0734C362.635 99.073 362.636 99.0726 362.636 99.0722C362.637 99.072 362.637 99.0717 362.637 99.0716C362.637 99.0713 362.638 99.071 360.661 96.8144ZM351.605 98.7861C350.096 99.5185 348.325 100.304 346.274 101.106L348.459 106.694C350.657 105.834 352.572 104.986 354.224 104.184L351.605 98.7861ZM340.746 103.062C338.999 103.621 337.109 104.174 335.07 104.709L336.593 110.513C338.734 109.951 340.726 109.369 342.575 108.777L340.746 103.062ZM329.322 106.074C327.476 106.469 325.531 106.846 323.483 107.198L324.498 113.111C326.625 112.746 328.651 112.354 330.577 111.942L329.322 106.074ZM317.622 108.094C315.726 108.349 313.754 108.583 311.704 108.791L312.31 114.76C314.424 114.546 316.462 114.304 318.424 114.04L317.622 108.094ZM305.753 109.304C303.825 109.441 301.836 109.556 299.784 109.646L300.047 115.641C302.153 115.548 304.197 115.43 306.18 115.288L305.753 109.304ZM293.807 109.832C291.865 109.868 289.871 109.882 287.826 109.873L287.798 115.873C289.889 115.883 291.929 115.868 293.918 115.831L293.807 109.832ZM281.843 109.778C279.892 109.727 277.896 109.654 275.856 109.558L275.576 115.552C277.656 115.649 279.692 115.724 281.684 115.776L281.843 109.778ZM269.862 109.22C267.898 109.091 265.896 108.941 263.854 108.77L263.353 114.749C265.43 114.923 267.468 115.076 269.467 115.207L269.862 109.22ZM257.873 108.217C255.924 108.021 253.942 107.805 251.926 107.57L251.23 113.529C253.277 113.768 255.29 113.987 257.271 114.187L257.873 108.217ZM245.957 106.827C243.989 106.567 241.989 106.288 239.958 105.99L239.088 111.927C241.146 112.229 243.174 112.511 245.172 112.775L245.957 106.827ZM234.056 105.084C233.058 104.924 232.052 104.759 231.04 104.59L230.051 110.508C231.076 110.679 232.094 110.846 233.106 111.008L234.056 105.084ZM231.04 104.59C230.087 104.431 229.132 104.265 228.174 104.094L227.117 110C228.097 110.175 229.075 110.345 230.051 110.508L231.04 104.59ZM222.391 102.994C220.491 102.611 218.581 102.206 216.662 101.78L215.361 107.638C217.317 108.072 219.266 108.485 221.207 108.876L222.391 102.994ZM210.922 100.45C209.028 99.9923 207.128 99.5157 205.22 99.0206L203.713 104.828C205.652 105.331 207.586 105.816 209.514 106.282L210.922 100.45ZM199.536 97.4958C197.649 96.9736 195.756 96.4345 193.86 95.8793L192.174 101.638C194.098 102.201 196.019 102.748 197.936 103.279L199.536 97.4958ZM188.227 94.1868C186.352 93.6094 184.475 93.0173 182.595 92.4114L180.754 98.1219C182.658 98.7357 184.56 99.3357 186.461 99.9211L188.227 94.1868ZM176.999 90.5688C175.138 89.9434 173.277 89.3054 171.415 88.6555L169.438 94.3203C171.321 94.9776 173.204 95.6232 175.088 96.2562L176.999 90.5688ZM165.854 86.6793C164.005 86.0111 162.158 85.332 160.312 84.6429L158.214 90.2639C160.078 90.9601 161.945 91.6464 163.814 92.3219L165.854 86.6793ZM154.79 82.5492C152.952 81.8422 151.117 81.126 149.287 80.4016L147.079 85.9807C148.927 86.712 150.779 87.435 152.635 88.149L154.79 82.5492ZM143.804 78.2033C141.977 77.461 140.154 76.7113 138.337 75.9548L136.031 81.494C137.864 82.2569 139.702 83.0133 141.546 83.7622L143.804 78.2033ZM132.89 73.6605C131.074 72.8867 129.264 72.1071 127.462 71.3223L125.067 76.8233C126.883 77.6143 128.707 78.4002 130.538 79.1803L132.89 73.6605ZM122.046 68.9386C120.243 68.1369 118.448 67.3309 116.663 66.5215L114.185 71.9858C115.984 72.8012 117.791 73.6133 119.608 74.4211L122.046 68.9386ZM111.273 64.0534C109.477 63.2238 107.693 62.3916 105.921 61.5577L103.366 66.9869C105.151 67.8265 106.948 68.6645 108.756 69.5L111.273 64.0534ZM100.571 59.0189C98.7798 58.1615 97.0021 57.3033 95.2389 56.4453L92.6135 61.8404C94.388 62.704 96.1774 63.5678 97.9806 64.4309L100.571 59.0189ZM89.946 53.8489C88.1561 52.9639 86.383 52.0802 84.6277 51.1989L81.9354 56.5609C83.7014 57.4477 85.4856 58.3369 87.2867 59.2274L89.946 53.8489ZM79.3561 48.5322C77.5823 47.6282 75.8288 46.7279 74.097 45.8325L71.3414 51.1623C73.0834 52.0629 74.8473 52.9686 76.6318 53.878L79.3561 48.5322ZM68.8292 43.0896C67.0636 42.1638 65.3231 41.2447 63.6093 40.3337L60.7931 45.6317C62.5166 46.5479 64.267 47.4722 66.0429 48.4034L68.8292 43.0896ZM58.3996 37.5456C56.6241 36.5891 54.881 35.6435 53.1722 34.7106L50.2971 39.9769C52.0155 40.9151 53.7684 41.8659 55.5538 42.8278L58.3996 37.5456ZM47.985 31.8601C46.226 30.8873 44.5088 29.9311 42.8357 28.9936L39.9029 34.228C41.5854 35.1707 43.3122 36.1322 45.0809 37.1105L47.985 31.8601ZM37.6946 26.0945C35.9143 25.0841 34.1931 24.1005 32.5343 23.1466L29.5433 28.348C31.2117 29.3073 32.9426 30.2966 34.733 31.3127L37.6946 26.0945ZM27.4033 20.1764C25.6098 19.1313 23.908 18.1321 22.3032 17.184L19.2511 22.3497C20.866 23.3038 22.5782 24.3091 24.3823 25.3604L27.4033 20.1764ZM17.2534 14.1789C15.3428 13.0335 13.6299 11.9966 12.1287 11.0815L9.0057 16.2047C10.519 17.1272 12.2446 18.1717 14.1683 19.3249L17.2534 14.1789ZM7.09141 7.98016C6.3 7.4873 5.6971 7.10864 5.2932 6.8539C5.09121 6.72652 4.939 6.63013 4.83781 6.56593C4.78721 6.53383 4.74938 6.50978 4.72445 6.49392C4.71201 6.486 4.7028 6.48013 4.69682 6.47632C4.69383 6.47441 4.69166 6.47303 4.6903 6.47216C4.68962 6.47173 4.68913 6.47142 4.68886 6.47125C4.68872 6.47116 4.68864 6.47111 4.68861 6.47109C4.68858 6.47107 4.68858 6.47107 4.68858 6.47108C4.68861 6.47109 4.68861 6.47109 4.68861 6.47109C4.68864 6.47111 4.68867 6.47112 3.07478 9.00003C1.46089 11.5289 1.46092 11.529 1.46094 11.529C1.46097 11.529 1.461 11.529 1.46102 11.529C1.46111 11.5291 1.46116 11.5291 1.46124 11.5292C1.46143 11.5293 1.46165 11.5294 1.46192 11.5296C1.46246 11.5299 1.46323 11.5304 1.46418 11.531C1.46608 11.5322 1.46879 11.534 1.47236 11.5362C1.47942 11.5408 1.48974 11.5473 1.50333 11.556C1.53046 11.5732 1.57055 11.5987 1.6234 11.6322C1.72911 11.6993 1.88592 11.7986 2.09255 11.9289C2.50579 12.1895 3.11831 12.5742 3.91963 13.0733L7.09141 7.98016Z" fill="#F77600"/>
</svg>
