<svg width="156" height="176" viewBox="0 0 156 176" fill="none" xmlns="http://www.w3.org/2000/svg">
<path d="M152.873 74.6275L154.373 74.6554L152.873 74.6275ZM1.77804 156.13C1.29757 156.805 1.45518 157.742 2.13005 158.222L13.1277 166.051C13.8026 166.532 14.7392 166.374 15.2196 165.699C15.7001 165.025 15.5425 164.088 14.8676 163.608L5.09191 156.648L12.0515 146.872C12.5319 146.197 12.3743 145.261 11.6995 144.78C11.0246 144.3 10.088 144.458 9.60754 145.132L1.77804 156.13ZM133.778 3.28293C132.922 4.51462 132.922 4.51445 132.922 4.51428C132.922 4.51423 132.922 4.51407 132.921 4.51396C132.921 4.51375 132.921 4.51355 132.921 4.51336C132.92 4.51298 132.919 4.51263 132.919 4.51233C132.918 4.51171 132.918 4.51125 132.917 4.51094C132.916 4.51031 132.916 4.51029 132.917 4.51088C132.919 4.51205 132.924 4.51568 132.932 4.52182C132.949 4.5341 132.979 4.55644 133.021 4.58938C133.106 4.65524 133.241 4.7635 133.42 4.91841C133.778 5.22817 134.313 5.72484 134.976 6.44263L137.179 4.40688C136.439 3.60533 135.824 3.03108 135.383 2.64977C135.163 2.45915 134.986 2.31682 134.859 2.21849C134.796 2.16933 134.745 2.13117 134.707 2.10347C134.688 2.08962 134.673 2.07839 134.661 2.06971C134.655 2.06537 134.649 2.06167 134.645 2.05859C134.643 2.05705 134.641 2.05567 134.639 2.05445C134.638 2.05384 134.637 2.05326 134.637 2.05273C134.636 2.05246 134.636 2.05221 134.636 2.05196C134.635 2.05183 134.635 2.05166 134.635 2.05159C134.635 2.05142 134.635 2.05124 133.778 3.28293ZM138.649 11.2545C139.609 12.7403 140.63 14.5114 141.66 16.6044L144.352 15.2804C143.271 13.0839 142.193 11.211 141.169 9.62597L138.649 11.2545ZM144.127 22.2822C144.813 24.0691 145.484 26.0182 146.124 28.141L148.996 27.2752C148.336 25.0834 147.641 23.0645 146.928 21.2074L144.127 22.2822ZM147.729 34.1518C148.181 36.0736 148.604 38.1099 148.992 40.2661L151.945 39.7353C151.548 37.5281 151.114 35.4399 150.649 33.4653L147.729 34.1518ZM149.953 46.4446C150.216 48.4247 150.449 50.4916 150.647 52.6483L153.634 52.3738C153.433 50.1779 153.195 48.071 152.927 46.0501L149.953 46.4446ZM151.107 58.9055C151.219 60.9234 151.303 63.0111 151.354 65.1709L154.353 65.0997C154.301 62.9086 154.217 60.7888 154.102 58.7383L151.107 58.9055ZM151.411 71.431C151.406 72.4719 151.393 73.5281 151.373 74.5996L154.373 74.6554C154.393 73.5704 154.406 72.5008 154.411 71.4462L151.411 71.431ZM151.373 74.5996C151.355 75.5696 151.293 76.5297 151.188 77.48L154.17 77.8095C154.285 76.7686 154.353 75.7172 154.373 74.6554L151.373 74.5996ZM150.049 83.0995C149.508 84.9246 148.807 86.7164 147.958 88.4754L150.66 89.7798C151.575 87.8838 152.336 85.9412 152.925 83.9522L150.049 83.0995ZM145.065 93.5182C144.009 95.1047 142.832 96.6626 141.542 98.1919L143.835 100.126C145.192 98.5172 146.438 96.8691 147.563 95.1808L145.065 93.5182ZM137.543 102.5C136.172 103.852 134.715 105.178 133.18 106.479L135.12 108.767C136.708 107.422 138.22 106.045 139.649 104.637L137.543 102.5ZM128.546 110.158C126.988 111.321 125.37 112.461 123.698 113.578L125.365 116.072C127.077 114.928 128.738 113.758 130.34 112.563L128.546 110.158ZM118.68 116.77C117.002 117.787 115.281 118.785 113.524 119.761L114.981 122.383C116.77 121.39 118.523 120.373 120.236 119.335L118.68 116.77ZM108.255 122.574C106.495 123.478 104.706 124.362 102.893 125.228L104.186 127.935C106.023 127.058 107.838 126.161 109.625 125.243L108.255 122.574ZM97.4574 127.736C95.6435 128.545 93.8119 129.336 91.9674 130.109L93.1266 132.876C94.9912 132.095 96.8439 131.295 98.6799 130.476L97.4574 127.736ZM86.4195 132.365C84.5603 133.099 82.6932 133.815 80.8228 134.512L81.8714 137.323C83.7586 136.619 85.6435 135.896 87.521 135.155L86.4195 132.365ZM75.1877 136.558C73.2964 137.227 71.4068 137.877 69.5237 138.509L70.478 141.353C72.3756 140.716 74.2804 140.061 76.1874 139.387L75.1877 136.558ZM63.8242 140.373C61.8978 140.988 59.9838 141.583 58.0874 142.159L58.9593 145.03C60.8685 144.45 62.7958 143.85 64.736 143.231L63.8242 140.373ZM52.3272 143.867C50.3726 144.433 48.4439 144.977 46.5473 145.5L47.3452 148.392C49.2534 147.866 51.1942 147.318 53.1612 146.749L52.3272 143.867ZM40.7495 147.063C38.762 147.585 36.8206 148.083 34.9332 148.557L35.6628 151.466C37.5609 150.991 39.5136 150.49 41.5127 149.964L40.7495 147.063ZM29.0973 149.984C27.058 150.471 25.1029 150.925 23.2446 151.346L23.908 154.272C25.7768 153.848 27.743 153.392 29.7938 152.902L29.0973 149.984ZM17.3984 152.637C15.2279 153.103 13.2553 153.511 11.5107 153.863L12.1035 156.803C13.8597 156.449 15.8446 156.038 18.0279 155.57L17.3984 152.637ZM5.60317 155.009C4.67652 155.181 3.96161 155.309 3.47929 155.394C3.23814 155.437 3.05514 155.469 2.9329 155.49C2.87178 155.5 2.82584 155.508 2.79544 155.513C2.78023 155.516 2.7689 155.518 2.7615 155.519C2.7578 155.52 2.75507 155.52 2.75334 155.52C2.75247 155.521 2.75185 155.521 2.75147 155.521C2.75128 155.521 2.75115 155.521 2.75109 155.521C2.75106 155.521 2.75104 155.521 2.75104 155.521L2.75106 155.521C2.75106 155.521 2.75108 155.521 3 157C3.24891 158.479 3.24894 158.479 3.24897 158.479C3.24899 158.479 3.24902 158.479 3.24905 158.479C3.24911 158.479 3.24918 158.479 3.24928 158.479C3.24946 158.479 3.2497 158.479 3.25001 158.479C3.25063 158.479 3.25148 158.479 3.25259 158.479C3.25481 158.478 3.25801 158.478 3.26219 158.477C3.27056 158.476 3.28285 158.473 3.29903 158.471C3.33137 158.465 3.37926 158.457 3.44235 158.446C3.56855 158.424 3.75558 158.392 4.00086 158.349C4.4914 158.262 5.2149 158.132 6.15049 157.959L5.60317 155.009ZM152.873 74.6275L155.873 74.6832L152.873 74.6275ZM0.556069 155.26C-0.404842 156.61 -0.0896349 158.483 1.26011 159.444L23.2554 175.103C24.6052 176.064 26.4784 175.749 27.4393 174.399C28.4002 173.049 28.085 171.176 26.7352 170.215L7.18382 156.296L21.1029 136.745C22.0639 135.395 21.7487 133.522 20.3989 132.561C19.0492 131.6 17.176 131.915 16.2151 133.265L0.556069 155.26ZM133.778 3.28293C132.066 5.7463 132.066 5.74596 132.065 5.74563C132.065 5.74552 132.065 5.74518 132.064 5.74496C132.064 5.74452 132.063 5.74409 132.062 5.74367C132.061 5.74284 132.06 5.74203 132.059 5.74127C132.057 5.73973 132.055 5.73835 132.053 5.73711C132.05 5.73463 132.047 5.73275 132.045 5.73146C132.041 5.72889 132.041 5.72871 132.044 5.731C132.051 5.73557 132.07 5.75 132.102 5.77482C132.166 5.82445 132.28 5.91567 132.439 6.05272C132.755 6.32671 133.25 6.78459 133.874 7.4605L138.281 3.38901C137.502 2.54557 136.847 1.93254 136.365 1.51546C136.124 1.30697 135.926 1.14761 135.778 1.03305C135.705 0.975766 135.643 0.929698 135.595 0.894295C135.571 0.876594 135.55 0.86156 135.533 0.849126C135.524 0.84291 135.516 0.837343 135.509 0.832417C135.506 0.829954 135.502 0.827653 135.499 0.82551C135.498 0.824437 135.496 0.823406 135.495 0.822414C135.494 0.821918 135.493 0.821433 135.493 0.820956C135.492 0.820718 135.492 0.820368 135.492 0.82025C135.491 0.819903 135.491 0.819558 133.778 3.28293ZM137.389 12.0687C138.318 13.505 139.31 15.2252 140.314 17.2664L145.698 14.6184C144.592 12.3701 143.485 10.4464 142.428 8.81172L137.389 12.0687ZM142.727 22.8195C143.399 24.5713 144.058 26.4855 144.688 28.5739L150.432 26.8423C149.761 24.616 149.055 22.5623 148.329 20.67L142.727 22.8195ZM146.269 34.495C146.714 36.3905 147.133 38.4007 147.516 40.5315L153.421 39.4699C153.02 37.2372 152.58 35.1231 152.11 33.1221L146.269 34.495ZM148.466 46.6419C148.726 48.6016 148.957 50.6484 149.153 52.7856L155.128 52.2366C154.924 50.021 154.685 47.8942 154.414 45.8528L148.466 46.6419ZM149.609 58.9891C149.721 60.9907 149.804 63.0624 149.855 65.2065L155.853 65.0641C155.8 62.8573 155.715 60.7215 155.6 58.6547L149.609 58.9891ZM149.911 71.4234C149.906 72.4575 149.894 73.5069 149.874 74.5718L155.873 74.6832C155.893 73.5916 155.906 72.5152 155.911 71.4537L149.911 71.4234ZM149.874 74.5718C149.857 75.4959 149.797 76.4103 149.697 77.3153L155.661 77.9742C155.781 76.888 155.852 75.7909 155.873 74.6832L149.874 74.5718ZM148.611 82.6732C148.094 84.4163 147.424 86.1327 146.607 87.8232L152.01 90.4321C152.959 88.4675 153.749 86.4495 154.363 84.3785L148.611 82.6732ZM143.817 92.6869C142.794 94.2226 141.651 95.7353 140.395 97.2249L144.982 101.093C146.372 99.4445 147.653 97.7512 148.811 96.0121L143.817 92.6869ZM136.49 101.432C135.148 102.755 133.719 104.056 132.211 105.334L136.09 109.912C137.704 108.544 139.245 107.142 140.702 105.705L136.49 101.432ZM127.649 108.956C126.113 110.102 124.517 111.227 122.865 112.331L126.199 117.319C127.931 116.162 129.613 114.977 131.237 113.765L127.649 108.956ZM117.903 115.487C116.241 116.494 114.537 117.482 112.795 118.45L115.71 123.695C117.514 122.692 119.284 121.667 121.014 120.618L117.903 115.487ZM107.57 121.24C105.823 122.137 104.047 123.015 102.247 123.874L104.832 129.289C106.682 128.406 108.509 127.502 110.31 126.578L107.57 121.24ZM96.8462 126.366C95.0432 127.171 93.2222 127.957 91.3877 128.726L93.7062 134.26C95.5809 133.474 97.4442 132.669 99.2911 131.845L96.8462 126.366ZM85.8687 130.97C84.0187 131.7 82.1604 132.412 80.2985 133.107L82.3956 138.728C84.2914 138.021 86.185 137.295 88.0718 136.551L85.8687 130.97ZM74.6879 135.144C72.8045 135.81 70.9224 136.457 69.0465 137.087L70.9552 142.775C72.86 142.136 74.7724 141.478 76.6872 140.801L74.6879 135.144ZM63.3682 138.944C61.4488 139.557 59.5415 140.15 57.6515 140.724L59.3952 146.465C61.3108 145.883 63.2449 145.282 65.192 144.66L63.3682 138.944ZM51.9102 142.426C49.9619 142.99 48.0392 143.533 46.1484 144.054L47.7442 149.838C49.6581 149.31 51.6049 148.761 53.5782 148.19L51.9102 142.426ZM40.3679 145.612C38.3862 146.133 36.4504 146.63 34.5685 147.102L36.0276 152.921C37.9311 152.444 39.8894 151.942 41.8943 151.415L40.3679 145.612ZM28.7491 148.525C26.7155 149.011 24.7659 149.463 22.913 149.883L24.2397 155.735C26.1138 155.31 28.0854 154.852 30.142 154.361L28.7491 148.525ZM17.0836 151.17C14.9196 151.635 12.9531 152.042 11.2142 152.392L12.3999 158.274C14.1619 157.919 16.1529 157.506 18.3426 157.037L17.0836 151.17ZM5.32951 153.534C4.40733 153.705 3.69671 153.833 3.21851 153.917C2.97941 153.959 2.79843 153.991 2.67816 154.012C2.61803 154.022 2.57308 154.03 2.54364 154.035C2.52892 154.037 2.51808 154.039 2.51115 154.04C2.50769 154.041 2.50521 154.041 2.50371 154.041C2.50296 154.041 2.50245 154.042 2.5022 154.042C2.50207 154.042 2.50201 154.042 2.502 154.042C2.502 154.042 2.50201 154.042 2.50204 154.042C2.50205 154.042 2.50209 154.042 2.50209 154.042C2.50213 154.042 2.50217 154.042 3 157C3.49782 159.958 3.49788 159.958 3.49793 159.958C3.49795 159.958 3.498 159.958 3.49805 159.958C3.49814 159.958 3.49825 159.958 3.49837 159.958C3.49861 159.958 3.49892 159.958 3.49928 159.958C3.50002 159.958 3.501 159.958 3.50223 159.958C3.50467 159.957 3.50812 159.957 3.51255 159.956C3.52139 159.954 3.53416 159.952 3.55082 159.949C3.58414 159.944 3.63301 159.935 3.69709 159.924C3.82525 159.902 4.01431 159.869 4.26164 159.826C4.75629 159.738 5.48409 159.608 6.42415 159.433L5.32951 153.534Z" fill="#F77600"/>
</svg>
