<svg width="92" height="92" viewBox="0 0 92 92" fill="none" xmlns="http://www.w3.org/2000/svg">
<g clip-path="url(#clip0_121_294)">
<path d="M77.6653 39.7354C79.2223 38.3986 80.2316 36.5345 80.5 34.5C80.2316 32.4655 79.2223 30.6014 77.6653 29.2646C76.8407 28.4955 76.1788 27.5687 75.7189 26.5391C75.5872 25.3682 75.6947 24.1827 76.0351 23.0546C76.6941 21.1659 76.6399 19.1015 75.8827 17.25C74.6442 15.651 72.8623 14.5616 70.8745 14.1881C69.7466 13.9243 68.6836 13.4354 67.7494 12.7506C67.0646 11.8164 66.5757 10.7534 66.3119 9.6255C65.9399 7.63711 64.8502 5.85473 63.25 4.61725C61.3979 3.85898 59.3325 3.80377 57.4425 4.462C56.3138 4.80421 55.127 4.91183 53.9551 4.77825C52.9256 4.31829 51.9988 3.65643 51.2296 2.83188C49.8938 1.27716 48.0321 0.269012 46 0C43.9655 0.268412 42.1014 1.27773 40.7646 2.83475C39.9955 3.65931 39.0687 4.32116 38.0391 4.78113C36.8682 4.91719 35.6819 4.80952 34.5546 4.46488C32.6664 3.80325 30.601 3.85746 28.75 4.61725C27.1482 5.85556 26.0567 7.63868 25.6824 9.62838C25.4186 10.7563 24.9296 11.8192 24.2449 12.7535C23.3106 13.4383 22.2476 13.9272 21.1198 14.191C19.1339 14.5635 17.3538 15.6521 16.1172 17.25C15.359 19.1021 15.3038 21.1675 15.962 23.0575C16.3023 24.1866 16.4099 25.373 16.2783 26.5449C15.8183 27.5744 15.1564 28.5012 14.3319 29.2704C12.7772 30.6062 11.769 32.468 11.5 34.5C11.7684 36.5345 12.7777 38.3986 14.3348 39.7354C15.1593 40.5046 15.8212 41.4314 16.2811 42.4609C16.4128 43.6318 16.3053 44.8173 15.9649 45.9454C15.3059 47.8341 15.3601 49.8985 16.1172 51.75C17.3558 53.349 19.1377 54.4384 21.1255 54.8119C22.2534 55.0757 23.3164 55.5646 24.2506 56.2494C24.9354 57.1837 25.4243 58.2466 25.6881 59.3745C26.0601 61.3629 27.1498 63.1453 28.75 64.3828V87.791C28.7502 88.5864 28.9703 89.3662 29.386 90.0443C29.8017 90.7223 30.3968 91.2722 31.1055 91.6331C31.8143 91.994 32.609 92.1519 33.4019 92.0893C34.1948 92.0267 34.9549 91.7461 35.5982 91.2784L45.1548 84.3295C45.4004 84.151 45.6963 84.0548 46 84.0548C46.3037 84.0548 46.5996 84.151 46.8453 84.3295L56.4017 91.2784C57.0451 91.7461 57.8052 92.0267 58.5981 92.0893C59.391 92.1519 60.1857 91.994 60.8945 91.6331C61.6032 91.2722 62.1983 90.7223 62.614 90.0443C63.0297 89.3662 63.2498 88.5864 63.25 87.791V64.3828C64.849 63.1442 65.9384 61.3623 66.3119 59.3745C66.5757 58.2466 67.0646 57.1837 67.7494 56.2494C68.6836 55.5646 69.7466 55.0757 70.8745 54.8119C72.8629 54.4399 74.6453 53.3502 75.8827 51.75C76.641 49.8979 76.6962 47.8325 76.038 45.9425C75.6977 44.8134 75.5901 43.627 75.7217 42.4551C76.1815 41.4279 76.8424 40.5031 77.6653 39.7354ZM60.375 87.791C60.3727 88.0551 60.2976 88.3134 60.1582 88.5376C60.0187 88.7619 59.8201 88.9433 59.5843 89.0621C59.3485 89.1809 59.0845 89.2325 58.8213 89.2111C58.5581 89.1898 58.3058 89.0963 58.0922 88.941L48.5358 81.9922C47.7988 81.4564 46.9111 81.1679 46 81.1679C45.0889 81.1679 44.2012 81.4564 43.4643 81.9922L33.9077 88.9525C33.6942 89.1078 33.4419 89.2013 33.1787 89.2226C32.9155 89.244 32.6515 89.1924 32.4157 89.0736C32.1799 88.9548 31.9813 88.7734 31.8418 88.5491C31.7024 88.3249 31.6273 88.0666 31.625 87.8025V64.975C32.6114 64.9058 33.5903 64.7548 34.5517 64.5237C35.6811 64.1845 36.8672 64.077 38.0391 64.2074C39.0687 64.6674 39.9955 65.3292 40.7646 66.1538C42.0995 67.7151 43.9638 68.7286 46 69C48.0345 68.7316 49.8986 67.7223 51.2354 66.1653C52.0045 65.3407 52.9313 64.6789 53.9609 64.2189C55.1318 64.0884 56.3171 64.196 57.4454 64.5352C58.4084 64.7611 59.3881 64.9082 60.375 64.975V87.791ZM75.5291 37.8091C74.3751 38.8942 73.4893 40.2328 72.9416 41.7191C72.6617 43.3277 72.7601 44.9794 73.2291 46.5434C73.6601 47.7557 73.7202 49.0689 73.4016 50.3154C72.9272 51.1376 71.4351 51.6178 69.9948 52.0806C68.4243 52.4502 66.9615 53.1806 65.7225 54.2139C64.6887 55.4526 63.9582 56.9155 63.5892 58.4861C63.1235 59.9237 62.6434 61.4187 61.824 61.893C60.5778 62.2153 59.2635 62.1552 58.052 61.7205C56.4886 61.2541 54.8384 61.1557 53.2306 61.433C51.7443 61.9807 50.4057 62.8665 49.3206 64.0205C48.1706 65.0498 47.0034 66.1164 46.0115 66.1164C45.0196 66.1164 43.8409 65.0527 42.7024 64.0205C41.6173 62.8665 40.2787 61.9807 38.7924 61.433C38.2946 61.3057 37.7824 61.2438 37.2686 61.249C36.1562 61.2911 35.0511 61.4481 33.971 61.7176C32.7593 62.1514 31.4453 62.2115 30.199 61.8902C29.3767 61.4158 28.8966 59.9236 28.4338 58.4833C28.0642 56.9128 27.3338 55.4501 26.3005 54.211C25.0618 53.1772 23.5989 52.4467 22.0283 52.0778C20.5908 51.612 19.0958 51.1319 18.6214 50.3125C18.3005 49.0662 18.3606 47.7523 18.7939 46.5405C19.2629 44.9775 19.3613 43.3268 19.0814 41.7191C18.5337 40.2328 17.6479 38.8942 16.4939 37.8091C15.4388 36.6706 14.375 35.4948 14.375 34.5C14.375 33.5053 15.4388 32.3294 16.4709 31.1909C17.6249 30.1058 18.5107 28.7672 19.0584 27.2809C19.3383 25.6723 19.2399 24.0206 18.7709 22.4566C18.3433 21.2444 18.2863 19.9323 18.607 18.6875C19.0814 17.8653 20.5735 17.3851 22.0139 16.9223C23.5843 16.5527 25.0471 15.8223 26.2861 14.789C27.32 13.5503 28.0504 12.0874 28.4194 10.5168C28.8851 9.07925 29.3652 7.58425 30.1846 7.10988C31.4318 6.78844 32.7468 6.84853 33.9595 7.28238C35.5225 7.75137 37.1732 7.84981 38.7809 7.56988C40.2672 7.0222 41.6058 6.13637 42.6909 4.98238C43.8294 3.93875 45.0052 2.875 46 2.875C46.9948 2.875 48.1706 3.93875 49.3091 4.97088C50.3942 6.12487 51.7328 7.0107 53.2191 7.55838C54.828 7.83394 56.4786 7.73557 58.0434 7.27088C59.2559 6.84142 60.5687 6.78139 61.8154 7.09838C62.6376 7.57275 63.1177 9.06488 63.5806 10.5053C63.9502 12.0757 64.6806 13.5385 65.7139 14.7775C66.9526 15.8113 68.4154 16.5418 69.9861 16.9108C71.4236 17.3765 72.9186 17.8566 73.393 18.676C73.7144 19.9232 73.6544 21.2382 73.2205 22.4509C72.7515 24.0139 72.6531 25.6646 72.933 27.2723C73.4807 28.7586 74.3665 30.0972 75.5205 31.1823C76.5498 32.3323 77.6164 33.4995 77.6164 34.4914C77.6164 35.4833 76.5612 36.6706 75.5291 37.8091ZM46 11.5C41.451 11.5 37.0042 12.8489 33.2219 15.3762C29.4396 17.9035 26.4916 21.4956 24.7508 25.6983C23.01 29.901 22.5545 34.5255 23.4419 38.9871C24.3294 43.4487 26.5199 47.5469 29.7365 50.7635C32.9531 53.9801 37.0514 56.1706 41.5129 57.0581C45.9745 57.9455 50.599 57.4901 54.8017 55.7493C59.0044 54.0084 62.5965 51.0605 65.1238 47.2781C67.6511 43.4958 69 39.049 69 34.5C68.9932 28.4021 66.5677 22.556 62.2559 18.2441C57.944 13.9323 52.0979 11.5069 46 11.5ZM46 54.625C42.0197 54.625 38.1287 53.4447 34.8191 51.2333C31.5096 49.022 28.9301 45.8789 27.4069 42.2015C25.8837 38.5242 25.4852 34.4777 26.2617 30.5738C27.0382 26.67 28.9549 23.084 31.7695 20.2695C34.584 17.455 38.1699 15.5382 42.0738 14.7617C45.9777 13.9852 50.0241 14.3837 53.7015 15.9069C57.3789 17.4301 60.522 20.0096 62.7333 23.3192C64.9447 26.6287 66.125 30.5197 66.125 34.5C66.1189 39.8356 63.9967 44.951 60.2238 48.7238C56.451 52.4967 51.3356 54.6189 46 54.625ZM52.44 27.1371C51.8734 27.1355 51.312 27.2461 50.7884 27.4628C50.2649 27.6794 49.7894 27.9977 49.3896 28.3993L42.2625 35.5178L41.2591 34.5C40.4458 33.7145 39.3564 33.2798 38.2257 33.2896C37.095 33.2994 36.0134 33.753 35.2138 34.5525C34.4142 35.3521 33.9607 36.4337 33.9508 37.5645C33.941 38.6952 34.3757 39.7845 35.1612 40.5979L39.2265 44.6631C40.0352 45.4716 41.1319 45.9258 42.2754 45.9258C43.419 45.9258 44.5157 45.4716 45.3244 44.6631L55.4875 34.5C56.296 33.6913 56.7501 32.5946 56.7501 31.4511C56.7501 30.3076 56.296 29.2108 55.4875 28.4021C55.0889 27.9996 54.6141 27.6805 54.0909 27.4633C53.5677 27.2461 53.0065 27.1353 52.44 27.1371ZM53.4549 32.4674L43.2917 42.6305C43.0222 42.9 42.6566 43.0514 42.2754 43.0514C41.8943 43.0514 41.5287 42.9 41.2591 42.6305L37.1939 38.5653C37.0566 38.4327 36.9471 38.274 36.8717 38.0987C36.7964 37.9233 36.7567 37.7346 36.7551 37.5438C36.7534 37.3529 36.7898 37.1636 36.8621 36.987C36.9343 36.8103 37.0411 36.6498 37.1761 36.5148C37.311 36.3799 37.4715 36.2731 37.6482 36.2008C37.8249 36.1286 38.0141 36.0922 38.205 36.0938C38.3959 36.0955 38.5845 36.1352 38.7599 36.2105C38.9353 36.2858 39.0939 36.3953 39.2265 36.5326L41.2591 38.5653C41.5287 38.8348 41.8943 38.9861 42.2754 38.9861C42.6566 38.9861 43.0222 38.8348 43.2917 38.5653L51.4222 30.4348C51.556 30.3014 51.7147 30.1956 51.8894 30.1236C52.064 30.0516 52.2511 30.0147 52.44 30.015C52.7244 30.0151 53.0025 30.0995 53.2389 30.2577C53.4753 30.4158 53.6595 30.6405 53.7682 30.9034C53.8768 31.1663 53.9051 31.4555 53.8493 31.7344C53.7935 32.0133 53.6563 32.2665 53.4549 32.4674Z" fill="#4B5830"/>
</g>
<defs>
<clipPath id="clip0_121_294">
<rect width="92" height="92" fill="white"/>
</clipPath>
</defs>
</svg>
