<svg width="92" height="92" viewBox="0 0 92 92" fill="none" xmlns="http://www.w3.org/2000/svg">
<path d="M85.2438 18.1127L46.4313 3.7377C46.1438 3.59395 45.7125 3.59395 45.425 3.7377L6.6125 18.1127C6.18125 18.2564 5.75 18.8314 5.75 19.4064C5.75 19.9814 6.18125 20.5564 6.75625 20.7002L20.125 25.7314V33.7814C20.125 34.0689 20.125 34.2127 20.2688 34.5002C20.4125 34.6439 21.1313 36.0814 23 37.8064C23 37.9502 22.8563 38.0939 22.8563 38.2377V38.3814C18.8313 39.1002 15.6688 42.5502 15.6688 46.8627C15.6688 51.1751 18.8313 54.6251 22.8563 55.3439V55.7751C22.8563 55.9189 24.0063 63.1064 29.325 68.8564C21.7063 72.5939 15.525 78.9189 11.9313 86.6814C11.7875 87.1126 11.7875 87.6876 12.075 88.1189C12.3625 88.5501 12.7938 88.8376 13.225 88.8376H78.4875C78.9188 88.8376 79.4938 88.5501 79.6376 88.1189C79.7813 87.6876 79.925 87.2564 79.7813 86.6814C76.1875 78.9189 70.0063 72.7376 62.3875 68.8564C67.5625 63.1064 68.8563 55.9189 68.8563 55.7751V55.3439C72.8813 54.6251 76.0438 51.1751 76.0438 46.8627C76.0438 42.5502 72.8813 39.1002 68.8563 38.3814V38.2377C68.8563 38.0939 68.8563 37.9502 68.7125 37.8064C70.5813 36.0814 71.4438 34.7877 71.4438 34.5002C71.5875 34.2127 71.5875 34.0689 71.5875 33.7814V25.7314L77.3375 23.5752V35.5064C75.6125 36.0814 74.4625 37.6627 74.4625 39.5314C74.4625 41.9752 76.3313 43.8439 78.775 43.8439C81.2188 43.8439 83.0875 41.9752 83.0875 39.5314C83.0875 37.6627 81.9375 36.0814 80.2125 35.5064V22.5689L84.9563 20.8439C85.5313 20.7002 85.9626 20.1252 85.9626 19.5502C85.9626 18.9752 85.8188 18.2564 85.2438 18.1127ZM79.0625 40.9689C78.2001 40.9689 77.625 40.3939 77.625 39.5314C77.625 38.6689 78.2001 38.0939 79.0625 38.0939C79.925 38.0939 80.5 38.6689 80.5 39.5314C80.5 40.3939 79.925 40.9689 79.0625 40.9689ZM25.875 39.9627C27.6 41.1127 29.6125 42.2627 32.2 43.1252C31.1938 44.4189 29.0375 46.1439 25.875 46.5752V39.9627ZM18.6875 46.7189C18.6875 43.9877 20.5563 41.8314 23 41.1127V52.1814C20.5563 51.6064 18.6875 49.4501 18.6875 46.7189ZM31.625 70.7251C33.925 72.5939 36.8 74.1751 40.3938 74.8939L46.2875 85.5314H15.525C19.2625 78.9189 24.8688 73.7439 31.625 70.7251ZM44.1313 75.4689H47.8688L46 78.6314L44.1313 75.4689ZM76.3313 85.5314H49.7375L47.4375 81.5064L51.4625 74.8939C55.0563 74.1751 57.9313 72.5939 60.2313 70.7251C67.1313 73.7439 72.7375 78.9189 76.3313 85.5314ZM66.125 55.2001C65.8375 56.7814 62.8188 72.5939 46 72.5939C29.325 72.5939 26.1625 56.7814 25.875 55.2001V49.4502C31.1938 48.8752 34.0688 45.5689 35.2188 43.9877C36.5125 44.2752 37.8063 44.5627 39.2438 44.8502C39.9625 46.0002 44.275 51.7501 51.4625 53.0439C52.4688 53.1876 53.475 53.3314 54.4813 53.3314H54.625V54.0501C54.625 54.9126 55.2 55.4876 56.0625 55.4876C56.925 55.4876 57.5 54.9126 57.5 54.0501V53.0439C60.375 52.6126 63.25 51.3189 66.125 49.5939V55.2001ZM66.125 46.0002C61.2375 49.5939 56.35 51.0314 52.0375 50.1689C48.0125 49.4501 44.9938 47.0064 43.2688 45.1377C44.1313 45.1377 45.1375 45.2814 46 45.2814C55.775 45.2814 62.1 42.6939 66.125 39.9627V46.0002ZM73.3125 46.7189C73.3125 49.4501 71.4438 51.6064 69 52.3251V41.2564C71.4438 41.8314 73.3125 43.9877 73.3125 46.7189ZM69 33.3502C67.85 34.9314 61.9563 42.4064 46 42.4064C30.0438 42.4064 24.15 34.9314 23 33.3502V26.7377L45.5688 35.0752C45.7125 35.0752 45.8563 35.2189 46 35.2189C46.1438 35.2189 46.2875 35.2189 46.4313 35.0752L69 26.7377V33.3502ZM46 32.2002L11.3563 19.4064L46 6.61269L80.6438 19.4064L46 32.2002Z" fill="#4B5830"/>
<path d="M35.9375 49.5938C35.075 49.5938 34.5 50.1687 34.5 51.0312V53.9062C34.5 54.7687 35.075 55.3437 35.9375 55.3437C36.8 55.3437 37.375 54.7687 37.375 53.9062V51.0312C37.375 50.1687 36.8 49.5938 35.9375 49.5938ZM53.6188 62.675C52.9 62.3875 52.0375 62.8187 51.75 63.5375C51.75 63.5375 50.6 66.8437 45.8563 66.8437C41.2563 66.8437 40.1063 63.6812 39.9625 63.5375C39.675 62.8187 38.9563 62.3875 38.0938 62.675C37.375 62.9625 36.9438 63.6812 37.2313 64.5437C37.375 64.8312 39.1 69.8625 45.7125 69.8625C52.325 69.8625 54.1938 64.8312 54.1938 64.5437C54.7688 63.6812 54.3375 62.8187 53.6188 62.675Z" fill="#4B5830"/>
</svg>
