<svg width="92" height="94" viewBox="0 0 92 94" fill="none" xmlns="http://www.w3.org/2000/svg">
<path d="M16.1747 8.76318C10.4247 8.76318 5.75 13.5127 5.75 19.3547V59.5127C5.75 65.3547 10.4247 70.1043 16.1747 70.1043H34.5V78.8673H27.3125V81.7883H61.8125V78.8673H54.625V70.1043H72.956C78.706 70.1043 83.375 65.3547 83.375 59.5127V19.3606C83.375 13.5186 78.7002 8.76903 72.9502 8.76903H16.1747V8.76318ZM16.1747 11.6842H72.9502C77.1247 11.6842 80.5 15.1193 80.5 19.3547V59.5127C80.5 63.7482 77.119 67.1833 72.9502 67.1833H16.1747C14.1729 67.1817 12.2535 66.3731 10.838 64.9349C9.42243 63.4967 8.62652 61.5466 8.625 59.5127V19.3606C8.625 15.1134 12.006 11.6842 16.1747 11.6842ZM37.375 70.1043H51.75V78.8673H37.375V70.1043Z" fill="#4B5830"/>
</svg>
