<svg width="192" height="119" viewBox="0 0 192 119" fill="none" xmlns="http://www.w3.org/2000/svg">
<path d="M25.375 13.2637V9.38867H4.875V46.8887H8.875V30.0762H23.25V26.2012H8.875V13.2637H25.375ZM43.2637 21.3887C39.7012 21.3887 36.8262 22.9512 34.9512 25.4512V21.8887H31.0762V46.8887H34.9512V33.3262C34.9512 28.7637 38.7012 25.2637 43.2637 25.2637C44.0137 25.2637 44.6387 25.3262 45.2012 25.5137V21.5762C44.6387 21.4512 44.0137 21.3887 43.2637 21.3887ZM74.3203 34.1387C74.1328 26.9512 68.4453 21.3887 61.3203 21.3887C54.1328 21.3887 48.3203 27.2012 48.3203 34.3887C48.3203 41.5762 54.1328 47.3887 61.3203 47.3887C67.2578 47.3887 72.1953 43.4512 73.8203 38.0762H69.6953C68.3203 41.3262 65.0703 43.5137 61.3203 43.5137C56.3828 43.5137 52.4453 39.7637 52.1953 34.9512H74.2578L74.3203 34.1387ZM61.3203 25.2637C65.3203 25.2637 68.6953 27.8262 69.8828 31.4512H52.6953C53.9453 27.8262 57.3203 25.2637 61.3203 25.2637ZM91.4043 21.3887C89.0918 21.3887 86.9668 22.3262 85.3418 23.8887V21.8887H81.4668V46.8887H85.3418V30.9512C85.3418 27.7637 87.9043 25.2637 91.0918 25.2637C94.2793 25.2637 96.7793 27.7637 96.7793 30.9512V46.8887H100.654V30.9512C100.654 25.6387 96.2168 21.3887 91.4043 21.3887ZM120.695 47.3887C126.508 47.3887 131.383 43.6387 133.07 38.3887H128.945C127.445 41.4512 124.32 43.5137 120.695 43.5137C115.633 43.5137 111.57 39.5137 111.57 34.3887C111.57 29.2637 115.633 25.2637 120.695 25.2637C124.32 25.2637 127.445 27.3262 128.945 30.3887H133.07C131.383 25.1387 126.508 21.3887 120.695 21.3887C113.508 21.3887 107.695 27.2012 107.695 34.3887C107.695 41.5762 113.508 47.3887 120.695 47.3887ZM148.717 21.3887C146.654 21.3887 144.717 22.0762 143.154 23.2012V0.888674H139.279V46.8887H143.154V30.8887C143.154 27.7012 145.654 25.2637 148.717 25.2637C151.779 25.2637 154.342 27.7012 154.342 30.8887V46.8887H158.154V30.8887C158.154 25.5762 153.967 21.3887 148.717 21.3887Z" fill="#ECB072"/>
<path d="M73.2568 72.9375V69.0625H52.7568V106.562H73.2568V102.687H56.7568V89.75H71.1318V85.875H56.7568V72.9375H73.2568ZM105.483 81.0625C102.483 81.0625 99.8584 82.5 98.1709 84.8125C96.4834 82.5 93.8584 81.0625 91.2334 81.0625C88.9834 81.0625 86.9209 82.1875 85.4209 83.875V81.5625H81.5459V106.562H85.4209V90.5625C85.4209 87.4375 87.7959 84.9375 90.8584 84.9375C93.7959 84.9375 96.2334 87.4375 96.2334 90.5625V106.562H100.108V90.5625C100.108 87.4375 102.546 84.9375 105.483 84.9375C108.483 84.9375 110.921 87.4375 110.921 90.5625V106.562H114.796V90.5625C114.796 85.3125 110.671 81.0625 105.483 81.0625ZM125.976 76.875C127.413 76.875 128.663 75.6875 128.663 74.25C128.663 72.6875 127.413 71.5625 125.976 71.5625C124.476 71.5625 123.226 72.6875 123.226 74.25C123.226 75.6875 124.476 76.875 125.976 76.875ZM124.038 106.562H127.913V81.5625H124.038V106.562ZM137.454 106.562H141.329V60.5625H137.454V106.562ZM152.88 76.875C154.317 76.875 155.567 75.6875 155.567 74.25C155.567 72.6875 154.317 71.5625 152.88 71.5625C151.38 71.5625 150.13 72.6875 150.13 74.25C150.13 75.6875 151.38 76.875 152.88 76.875ZM150.942 106.562H154.817V81.5625H150.942V106.562ZM188.608 93.8125C188.421 86.625 182.733 81.0625 175.608 81.0625C168.421 81.0625 162.608 86.875 162.608 94.0625C162.608 101.25 168.421 107.062 175.608 107.062C181.546 107.062 186.483 103.125 188.108 97.75H183.983C182.608 101 179.358 103.188 175.608 103.188C170.671 103.188 166.733 99.4375 166.483 94.625H188.546L188.608 93.8125ZM175.608 84.9375C179.608 84.9375 182.983 87.5 184.171 91.125H166.983C168.233 87.5 171.608 84.9375 175.608 84.9375Z" fill="white"/>
<path d="M72.3214 52.0381C70.615 53.1206 64.7276 58.7376 63.8423 60.563" stroke="white" stroke-width="5" stroke-linecap="round"/>
<path d="M106.086 57.1436L103.966 63.7036L101.786 57.1436H100.606L98.4261 63.6636L96.3461 57.1436H94.9461L97.7061 65.1436H99.0661L101.206 58.8636L103.326 65.1436H104.686L107.426 57.1436H106.086ZM109.85 55.6436C110.31 55.6436 110.71 55.2636 110.71 54.8036C110.71 54.3036 110.31 53.9436 109.85 53.9436C109.37 53.9436 108.97 54.3036 108.97 54.8036C108.97 55.2636 109.37 55.6436 109.85 55.6436ZM109.23 65.1436H110.47V57.1436H109.23V65.1436ZM117.203 58.3436V57.1436H115.063V53.6636H113.823V57.1436H112.483V58.3436H113.823V63.0436C113.823 64.3036 114.883 65.3036 116.123 65.3036C116.523 65.3036 116.963 65.1836 117.183 65.0436V64.1036H116.263C115.623 64.1036 115.063 63.6236 115.063 62.8836V58.3436H117.203ZM122.34 56.9836C121.68 56.9836 121.06 57.2036 120.56 57.5636V50.4236H119.32V65.1436H120.56V60.0236C120.56 59.0036 121.36 58.2236 122.34 58.2236C123.32 58.2236 124.14 59.0036 124.14 60.0236V65.1436H125.36V60.0236C125.36 58.3236 124.02 56.9836 122.34 56.9836Z" fill="#FDDCBF"/>
</svg>
