<svg width="531" height="114" viewBox="0 0 531 114" fill="none" xmlns="http://www.w3.org/2000/svg">
<path d="M39.1716 35.89V30H8.01156V87H14.0916V61.445H35.9416V55.555H14.0916V35.89H39.1716ZM66.3623 48.24C60.9473 48.24 56.5773 50.615 53.7273 54.415V49H47.8373V87H53.7273V66.385C53.7273 59.45 59.4273 54.13 66.3623 54.13C67.5023 54.13 68.4523 54.225 69.3073 54.51V48.525C68.4523 48.335 67.5023 48.24 66.3623 48.24ZM113.568 67.62C113.283 56.695 104.638 48.24 93.8084 48.24C82.8834 48.24 74.0484 57.075 74.0484 68C74.0484 78.925 82.8834 87.76 93.8084 87.76C102.833 87.76 110.338 81.775 112.808 73.605H106.538C104.448 78.545 99.5084 81.87 93.8084 81.87C86.3034 81.87 80.3184 76.17 79.9384 68.855H113.473L113.568 67.62ZM93.8084 54.13C99.8884 54.13 105.018 58.025 106.823 63.535H80.6984C82.5984 58.025 87.7284 54.13 93.8084 54.13ZM139.536 48.24C136.021 48.24 132.791 49.665 130.321 52.04V49H124.431V87H130.321V62.775C130.321 57.93 134.216 54.13 139.061 54.13C143.906 54.13 147.706 57.93 147.706 62.775V87H153.596V62.775C153.596 54.7 146.851 48.24 139.536 48.24ZM184.058 87.76C192.893 87.76 200.303 82.06 202.868 74.08H196.598C194.318 78.735 189.568 81.87 184.058 81.87C176.363 81.87 170.188 75.79 170.188 68C170.188 60.21 176.363 54.13 184.058 54.13C189.568 54.13 194.318 57.265 196.598 61.92H202.868C200.303 53.94 192.893 48.24 184.058 48.24C173.133 48.24 164.298 57.075 164.298 68C164.298 78.925 173.133 87.76 184.058 87.76ZM226.651 48.24C223.516 48.24 220.571 49.285 218.196 50.995V17.08H212.306V87H218.196V62.68C218.196 57.835 221.996 54.13 226.651 54.13C231.306 54.13 235.201 57.835 235.201 62.68V87H240.996V62.68C240.996 54.605 234.631 48.24 226.651 48.24Z" fill="#ECB072"/>
<path d="M350.968 39.89V34H319.808V91H350.968V85.11H325.888V65.445H347.738V59.555H325.888V39.89H350.968ZM399.953 52.24C395.393 52.24 391.403 54.425 388.838 57.94C386.273 54.425 382.283 52.24 378.293 52.24C374.873 52.24 371.738 53.95 369.458 56.515V53H363.568V91H369.458V66.68C369.458 61.93 373.068 58.13 377.723 58.13C382.188 58.13 385.893 61.93 385.893 66.68V91H391.783V66.68C391.783 61.93 395.488 58.13 399.953 58.13C404.513 58.13 408.218 61.93 408.218 66.68V91H414.108V66.68C414.108 58.7 407.838 52.24 399.953 52.24ZM431.101 45.875C433.286 45.875 435.186 44.07 435.186 41.885C435.186 39.51 433.286 37.8 431.101 37.8C428.821 37.8 426.921 39.51 426.921 41.885C426.921 44.07 428.821 45.875 431.101 45.875ZM428.156 91H434.046V53H428.156V91ZM448.548 91H454.438V21.08H448.548V91ZM471.995 45.875C474.18 45.875 476.08 44.07 476.08 41.885C476.08 39.51 474.18 37.8 471.995 37.8C469.715 37.8 467.815 39.51 467.815 41.885C467.815 44.07 469.715 45.875 471.995 45.875ZM469.05 91H474.94V53H469.05V91ZM526.303 71.62C526.018 60.695 517.373 52.24 506.543 52.24C495.618 52.24 486.783 61.075 486.783 72C486.783 82.925 495.618 91.76 506.543 91.76C515.568 91.76 523.073 85.775 525.543 77.605H519.273C517.183 82.545 512.243 85.87 506.543 85.87C499.038 85.87 493.053 80.17 492.673 72.855H526.208L526.303 71.62ZM506.543 58.13C512.623 58.13 517.753 62.025 519.558 67.535H493.433C495.333 62.025 500.463 58.13 506.543 58.13Z" fill="white"/>
<path d="M348.602 3C341.135 3 333.233 15.6839 332.602 17" stroke="white" stroke-width="5" stroke-linecap="round"/>
<path d="M271.81 73L268.1 84.48L264.285 73H262.22L258.405 84.41L254.765 73H252.315L257.145 87H259.525L263.27 76.01L266.98 87H269.36L274.155 73H271.81ZM278.397 70.375C279.202 70.375 279.902 69.71 279.902 68.905C279.902 68.03 279.202 67.4 278.397 67.4C277.557 67.4 276.857 68.03 276.857 68.905C276.857 69.71 277.557 70.375 278.397 70.375ZM277.312 87H279.482V73H277.312V87ZM291.265 75.1V73H287.52V66.91H285.35V73H283.005V75.1H285.35V83.325C285.35 85.53 287.205 87.28 289.375 87.28C290.075 87.28 290.845 87.07 291.23 86.825V85.18H289.62C288.5 85.18 287.52 84.34 287.52 83.045V75.1H291.265ZM300.254 72.72C299.099 72.72 298.014 73.105 297.139 73.735V61.24H294.969V87H297.139V78.04C297.139 76.255 298.539 74.89 300.254 74.89C301.969 74.89 303.404 76.255 303.404 78.04V87H305.539V78.04C305.539 75.065 303.194 72.72 300.254 72.72Z" fill="#FDDCBF"/>
</svg>
