<svg width="531" height="114" viewBox="0 0 531 114" fill="none" xmlns="http://www.w3.org/2000/svg">
<path d="M39.1716 35.89V30H8.01156V87H14.0916V61.445H35.9416V55.555H14.0916V35.89H39.1716ZM66.3623 48.24C60.9473 48.24 56.5773 50.615 53.7273 54.415V49H47.8373V87H53.7273V66.385C53.7273 59.45 59.4273 54.13 66.3623 54.13C67.5023 54.13 68.4523 54.225 69.3073 54.51V48.525C68.4523 48.335 67.5023 48.24 66.3623 48.24ZM113.568 67.62C113.283 56.695 104.638 48.24 93.8084 48.24C82.8834 48.24 74.0484 57.075 74.0484 68C74.0484 78.925 82.8834 87.76 93.8084 87.76C102.833 87.76 110.338 81.775 112.808 73.605H106.538C104.448 78.545 99.5084 81.87 93.8084 81.87C86.3034 81.87 80.3184 76.17 79.9384 68.855H113.473L113.568 67.62ZM93.8084 54.13C99.8884 54.13 105.018 58.025 106.823 63.535H80.6984C82.5984 58.025 87.7284 54.13 93.8084 54.13ZM139.536 48.24C136.021 48.24 132.791 49.665 130.321 52.04V49H124.431V87H130.321V62.775C130.321 57.93 134.216 54.13 139.061 54.13C143.906 54.13 147.706 57.93 147.706 62.775V87H153.596V62.775C153.596 54.7 146.851 48.24 139.536 48.24ZM184.058 87.76C192.893 87.76 200.303 82.06 202.868 74.08H196.598C194.318 78.735 189.568 81.87 184.058 81.87C176.363 81.87 170.188 75.79 170.188 68C170.188 60.21 176.363 54.13 184.058 54.13C189.568 54.13 194.318 57.265 196.598 61.92H202.868C200.303 53.94 192.893 48.24 184.058 48.24C173.133 48.24 164.298 57.075 164.298 68C164.298 78.925 173.133 87.76 184.058 87.76ZM226.651 48.24C223.516 48.24 220.571 49.285 218.196 50.995V17.08H212.306V87H218.196V62.68C218.196 57.835 221.996 54.13 226.651 54.13C231.306 54.13 235.201 57.835 235.201 62.68V87H240.996V62.68C240.996 54.605 234.631 48.24 226.651 48.24Z" fill="#ECB072"/>
<path d="M350.968 39.89V34H319.808V91H350.968V85.11H325.888V65.445H347.738V59.555H325.888V39.89H350.968ZM399.953 52.24C395.393 52.24 391.403 54.425 388.838 57.94C386.273 54.425 382.283 52.24 378.293 52.24C374.873 52.24 371.738 53.95 369.458 56.515V53H363.568V91H369.458V66.68C369.458 61.93 373.068 58.13 377.723 58.13C382.188 58.13 385.893 61.93 385.893 66.68V91H391.783V66.68C391.783 61.93 395.488 58.13 399.953 58.13C404.513 58.13 408.218 61.93 408.218 66.68V91H414.108V66.68C414.108 58.7 407.838 52.24 399.953 52.24ZM431.101 45.875C433.286 45.875 435.186 44.07 435.186 41.885C435.186 39.51 433.286 37.8 431.101 37.8C428.821 37.8 426.921 39.51 426.921 41.885C426.921 44.07 428.821 45.875 431.101 45.875ZM428.156 91H434.046V53H428.156V91ZM448.548 91H454.438V21.08H448.548V91ZM471.995 45.875C474.18 45.875 476.08 44.07 476.08 41.885C476.08 39.51 474.18 37.8 471.995 37.8C469.715 37.8 467.815 39.51 467.815 41.885C467.815 44.07 469.715 45.875 471.995 45.875ZM469.05 91H474.94V53H469.05V91ZM526.303 71.62C526.018 60.695 517.373 52.24 506.543 52.24C495.618 52.24 486.783 61.075 486.783 72C486.783 82.925 495.618 91.76 506.543 91.76C515.568 91.76 523.073 85.775 525.543 77.605H519.273C517.183 82.545 512.243 85.87 506.543 85.87C499.038 85.87 493.053 80.17 492.673 72.855H526.208L526.303 71.62ZM506.543 58.13C512.623 58.13 517.753 62.025 519.558 67.535H493.433C495.333 62.025 500.463 58.13 506.543 58.13Z" fill="white"/>
<path d="M429.602 3C422.135 3 414.233 15.6839 413.602 17" stroke="white" stroke-width="5" stroke-linecap="round"/>
<path d="M267.81 62L264.1 73.48L260.285 62H258.22L254.405 73.41L250.765 62H248.315L253.145 76H255.525L259.27 65.01L262.98 76H265.36L270.155 62H267.81ZM274.397 59.375C275.202 59.375 275.902 58.71 275.902 57.905C275.902 57.03 275.202 56.4 274.397 56.4C273.557 56.4 272.857 57.03 272.857 57.905C272.857 58.71 273.557 59.375 274.397 59.375ZM273.312 76H275.482V62H273.312V76ZM287.265 64.1V62H283.52V55.91H281.35V62H279.005V64.1H281.35V72.325C281.35 74.53 283.205 76.28 285.375 76.28C286.075 76.28 286.845 76.07 287.23 75.825V74.18H285.62C284.5 74.18 283.52 73.34 283.52 72.045V64.1H287.265ZM296.254 61.72C295.099 61.72 294.014 62.105 293.139 62.735V50.24H290.969V76H293.139V67.04C293.139 65.255 294.539 63.89 296.254 63.89C297.969 63.89 299.404 65.255 299.404 67.04V76H301.539V67.04C301.539 64.065 299.194 61.72 296.254 61.72Z" fill="#FDDCBF"/>
</svg>
