<svg width="33" height="33" viewBox="0 0 33 33" fill="none" xmlns="http://www.w3.org/2000/svg">
<path d="M16.5 10.3125C15.2762 10.3125 14.0799 10.6754 13.0624 11.3553C12.0449 12.0352 11.2518 13.0015 10.7835 14.1321C10.3152 15.2628 10.1926 16.5069 10.4314 17.7071C10.6701 18.9074 11.2594 20.0099 12.1248 20.8752C12.9901 21.7406 14.0926 22.3299 15.2929 22.5686C16.4931 22.8074 17.7372 22.6848 18.8679 22.2165C19.9985 21.7482 20.9648 20.9551 21.6447 19.9376C22.3246 18.9201 22.6875 17.7238 22.6875 16.5C22.6875 14.859 22.0356 13.2852 20.8752 12.1248C19.7148 10.9644 18.141 10.3125 16.5 10.3125ZM16.5 20.625C15.6842 20.625 14.8866 20.3831 14.2083 19.9298C13.5299 19.4766 13.0012 18.8323 12.689 18.0786C12.3768 17.3248 12.2951 16.4954 12.4543 15.6953C12.6134 14.8951 13.0063 14.1601 13.5832 13.5832C14.1601 13.0063 14.8951 12.6134 15.6953 12.4543C16.4954 12.2951 17.3248 12.3768 18.0786 12.689C18.8323 13.0012 19.4766 13.5299 19.9298 14.2083C20.3831 14.8866 20.625 15.6842 20.625 16.5C20.6216 17.593 20.1859 18.6402 19.4131 19.4131C18.6402 20.1859 17.593 20.6216 16.5 20.625ZM22.1719 3.60938H10.8281C8.91359 3.60938 7.07748 4.36992 5.7237 5.7237C4.36992 7.07748 3.60938 8.91359 3.60938 10.8281V22.1719C3.60938 24.0864 4.36992 25.9225 5.7237 27.2763C7.07748 28.6301 8.91359 29.3906 10.8281 29.3906H22.1719C24.0864 29.3906 25.9225 28.6301 27.2763 27.2763C28.6301 25.9225 29.3906 24.0864 29.3906 22.1719V10.8281C29.3906 8.91359 28.6301 7.07748 27.2763 5.7237C25.9225 4.36992 24.0864 3.60938 22.1719 3.60938ZM27.3281 22.1719C27.3281 22.849 27.1948 23.5195 26.9356 24.1451C26.6765 24.7707 26.2967 25.3391 25.8179 25.8179C25.3391 26.2967 24.7707 26.6765 24.1451 26.9356C23.5195 27.1948 22.849 27.3281 22.1719 27.3281H10.8281C10.151 27.3281 9.4805 27.1948 8.85491 26.9356C8.22933 26.6765 7.66091 26.2967 7.18211 25.8179C6.7033 25.3391 6.3235 24.7707 6.06437 24.1451C5.80525 23.5195 5.67188 22.849 5.67188 22.1719V10.8281C5.67188 9.4606 6.21512 8.14909 7.18211 7.18211C8.14909 6.21512 9.4606 5.67188 10.8281 5.67188H22.1719C22.849 5.67188 23.5195 5.80525 24.1451 6.06437C24.7707 6.3235 25.3391 6.7033 25.8179 7.18211C26.2967 7.66091 26.6765 8.22933 26.9356 8.85491C27.1948 9.4805 27.3281 10.151 27.3281 10.8281V22.1719ZM24.75 9.79688C24.75 10.1028 24.6593 10.4019 24.4893 10.6563C24.3193 10.9107 24.0777 11.1089 23.7951 11.226C23.5124 11.3431 23.2014 11.3737 22.9013 11.314C22.6013 11.2543 22.3257 11.107 22.1093 10.8907C21.893 10.6743 21.7457 10.3987 21.686 10.0987C21.6263 9.79859 21.6569 9.48757 21.774 9.20491C21.8911 8.92226 22.0893 8.68067 22.3437 8.51069C22.5981 8.34072 22.8972 8.25 23.2031 8.25C23.6134 8.25 24.0068 8.41297 24.2969 8.70307C24.587 8.99316 24.75 9.38662 24.75 9.79688Z" fill="white"/>
</svg>
