<svg width="33" height="33" viewBox="0 0 33 33" fill="none" xmlns="http://www.w3.org/2000/svg">
<path d="M28.875 11.875V22.875C28.875 24.6984 28.1507 26.447 26.8614 27.7364C25.572 29.0257 23.8234 29.75 22 29.75H11C9.17664 29.75 7.42795 29.0257 6.13864 27.7364C4.84933 26.447 4.125 24.6984 4.125 22.875V11.875C4.125 10.0516 4.84933 8.30295 6.13864 7.01364C7.42795 5.72433 9.17664 5 11 5H22C23.8234 5 25.572 5.72433 26.8614 7.01364C28.1507 8.30295 28.875 10.0516 28.875 11.875Z" stroke="white" stroke-width="1.5" stroke-linecap="round" stroke-linejoin="round"/>
<path d="M15.125 29.75V17.375C15.125 14.3665 15.8125 11.875 20.625 11.875M12.375 18.75H20.625" stroke="white" stroke-width="1.5" stroke-linecap="round" stroke-linejoin="round"/>
</svg>
