<svg width="647" height="127" viewBox="0 0 647 127" fill="none" xmlns="http://www.w3.org/2000/svg">
<path d="M46.175 39.475V32.5H9.275V100H16.475V69.7375H42.35V62.7625H16.475V39.475H46.175ZM78.3746 54.1C71.9621 54.1 66.7871 56.9125 63.4121 61.4125V55H56.4371V100H63.4121V75.5875C63.4121 67.375 70.1621 61.075 78.3746 61.075C79.7246 61.075 80.8496 61.1875 81.8621 61.525V54.4375C80.8496 54.2125 79.7246 54.1 78.3746 54.1ZM134.277 77.05C133.939 64.1125 123.702 54.1 110.877 54.1C97.9391 54.1 87.4766 64.5625 87.4766 77.5C87.4766 90.4375 97.9391 100.9 110.877 100.9C121.564 100.9 130.452 93.8125 133.377 84.1375H125.952C123.477 89.9875 117.627 93.925 110.877 93.925C101.989 93.925 94.9016 87.175 94.4516 78.5125H134.164L134.277 77.05ZM110.877 61.075C118.077 61.075 124.152 65.6875 126.289 72.2125H95.3516C97.6016 65.6875 103.677 61.075 110.877 61.075ZM165.028 54.1C160.865 54.1 157.04 55.7875 154.115 58.6V55H147.14V100H154.115V71.3125C154.115 65.575 158.728 61.075 164.465 61.075C170.203 61.075 174.703 65.575 174.703 71.3125V100H181.678V71.3125C181.678 61.75 173.69 54.1 165.028 54.1ZM217.752 100.9C228.214 100.9 236.989 94.15 240.027 84.7H232.602C229.902 90.2125 224.277 93.925 217.752 93.925C208.639 93.925 201.327 86.725 201.327 77.5C201.327 68.275 208.639 61.075 217.752 61.075C224.277 61.075 229.902 64.7875 232.602 70.3H240.027C236.989 60.85 228.214 54.1 217.752 54.1C204.814 54.1 194.352 64.5625 194.352 77.5C194.352 90.4375 204.814 100.9 217.752 100.9ZM268.19 54.1C264.478 54.1 260.99 55.3375 258.178 57.3625V17.2H251.203V100H258.178V71.2C258.178 65.4625 262.678 61.075 268.19 61.075C273.703 61.075 278.315 65.4625 278.315 71.2V100H285.178V71.2C285.178 61.6375 277.64 54.1 268.19 54.1Z" fill="#ECB072"/>
<path d="M434.175 38.475V31.5H397.275V99H434.175V92.025H404.475V68.7375H430.35V61.7625H404.475V38.475H434.175ZM492.183 53.1C486.783 53.1 482.058 55.6875 479.02 59.85C475.983 55.6875 471.258 53.1 466.533 53.1C462.483 53.1 458.77 55.125 456.07 58.1625V54H449.095V99H456.07V70.2C456.07 64.575 460.345 60.075 465.858 60.075C471.145 60.075 475.533 64.575 475.533 70.2V99H482.508V70.2C482.508 64.575 486.895 60.075 492.183 60.075C497.583 60.075 501.97 64.575 501.97 70.2V99H508.945V70.2C508.945 60.75 501.52 53.1 492.183 53.1ZM529.069 45.5625C531.656 45.5625 533.906 43.425 533.906 40.8375C533.906 38.025 531.656 36 529.069 36C526.369 36 524.119 38.025 524.119 40.8375C524.119 43.425 526.369 45.5625 529.069 45.5625ZM525.581 99H532.556V54H525.581V99ZM549.73 99H556.705V16.2H549.73V99ZM577.496 45.5625C580.084 45.5625 582.334 43.425 582.334 40.8375C582.334 38.025 580.084 36 577.496 36C574.796 36 572.546 38.025 572.546 40.8375C572.546 43.425 574.796 45.5625 577.496 45.5625ZM574.009 99H580.984V54H574.009V99ZM641.808 76.05C641.47 63.1125 631.233 53.1 618.408 53.1C605.47 53.1 595.008 63.5625 595.008 76.5C595.008 89.4375 605.47 99.9 618.408 99.9C629.095 99.9 637.983 92.8125 640.908 83.1375H633.483C631.008 88.9875 625.158 92.925 618.408 92.925C609.52 92.925 602.433 86.175 601.983 77.5125H641.695L641.808 76.05ZM618.408 60.075C625.608 60.075 631.683 64.6875 633.82 71.2125H602.883C605.133 64.6875 611.208 60.075 618.408 60.075Z" fill="white"/>
<path d="M429.5 3C422.033 3 414.131 15.6839 413.5 17" stroke="white" stroke-width="5" stroke-linecap="round"/>
<path d="M327.555 82L323.05 95.94L318.417 82H315.91L311.277 95.855L306.857 82H303.882L309.747 99H312.637L317.185 85.655L321.69 99H324.58L330.402 82H327.555ZM335.553 78.8125C336.53 78.8125 337.38 78.005 337.38 77.0275C337.38 75.965 336.53 75.2 335.553 75.2C334.533 75.2 333.683 75.965 333.683 77.0275C333.683 78.005 334.533 78.8125 335.553 78.8125ZM334.235 99H336.87V82H334.235V99ZM351.178 84.55V82H346.631V74.605H343.996V82H341.148V84.55H343.996V94.5375C343.996 97.215 346.248 99.34 348.883 99.34C349.733 99.34 350.668 99.085 351.136 98.7875V96.79H349.181C347.821 96.79 346.631 95.77 346.631 94.1975V84.55H351.178ZM362.094 81.66C360.692 81.66 359.374 82.1275 358.312 82.8925V67.72H355.677V99H358.312V88.12C358.312 85.9525 360.012 84.295 362.094 84.295C364.177 84.295 365.919 85.9525 365.919 88.12V99H368.512V88.12C368.512 84.5075 365.664 81.66 362.094 81.66Z" fill="#FDDCBF"/>
</svg>
