<svg width="192" height="124" viewBox="0 0 192 124" fill="none" xmlns="http://www.w3.org/2000/svg">
<path d="M25.375 12.375V8.5H4.875V46H8.875V29.1875H23.25V25.3125H8.875V12.375H25.375ZM43.2637 20.5C39.7012 20.5 36.8262 22.0625 34.9512 24.5625V21H31.0762V46H34.9512V32.4375C34.9512 27.875 38.7012 24.375 43.2637 24.375C44.0137 24.375 44.6387 24.4375 45.2012 24.625V20.6875C44.6387 20.5625 44.0137 20.5 43.2637 20.5ZM74.3203 33.25C74.1328 26.0625 68.4453 20.5 61.3203 20.5C54.1328 20.5 48.3203 26.3125 48.3203 33.5C48.3203 40.6875 54.1328 46.5 61.3203 46.5C67.2578 46.5 72.1953 42.5625 73.8203 37.1875H69.6953C68.3203 40.4375 65.0703 42.625 61.3203 42.625C56.3828 42.625 52.4453 38.875 52.1953 34.0625H74.2578L74.3203 33.25ZM61.3203 24.375C65.3203 24.375 68.6953 26.9375 69.8828 30.5625H52.6953C53.9453 26.9375 57.3203 24.375 61.3203 24.375ZM91.4043 20.5C89.0918 20.5 86.9668 21.4375 85.3418 23V21H81.4668V46H85.3418V30.0625C85.3418 26.875 87.9043 24.375 91.0918 24.375C94.2793 24.375 96.7793 26.875 96.7793 30.0625V46H100.654V30.0625C100.654 24.75 96.2168 20.5 91.4043 20.5ZM120.695 46.5C126.508 46.5 131.383 42.75 133.07 37.5H128.945C127.445 40.5625 124.32 42.625 120.695 42.625C115.633 42.625 111.57 38.625 111.57 33.5C111.57 28.375 115.633 24.375 120.695 24.375C124.32 24.375 127.445 26.4375 128.945 29.5H133.07C131.383 24.25 126.508 20.5 120.695 20.5C113.508 20.5 107.695 26.3125 107.695 33.5C107.695 40.6875 113.508 46.5 120.695 46.5ZM148.717 20.5C146.654 20.5 144.717 21.1875 143.154 22.3125V2.14577e-06H139.279V46H143.154V30C143.154 26.8125 145.654 24.375 148.717 24.375C151.779 24.375 154.342 26.8125 154.342 30V46H158.154V30C158.154 24.6875 153.967 20.5 148.717 20.5Z" fill="#ECB072"/>
<path d="M73.2568 75.375V71.5H52.7568V109H73.2568V105.125H56.7568V92.1875H71.1318V88.3125H56.7568V75.375H73.2568ZM105.483 83.5C102.483 83.5 99.8584 84.9375 98.1709 87.25C96.4834 84.9375 93.8584 83.5 91.2334 83.5C88.9834 83.5 86.9209 84.625 85.4209 86.3125V84H81.5459V109H85.4209V93C85.4209 89.875 87.7959 87.375 90.8584 87.375C93.7959 87.375 96.2334 89.875 96.2334 93V109H100.108V93C100.108 89.875 102.546 87.375 105.483 87.375C108.483 87.375 110.921 89.875 110.921 93V109H114.796V93C114.796 87.75 110.671 83.5 105.483 83.5ZM125.976 79.3125C127.413 79.3125 128.663 78.125 128.663 76.6875C128.663 75.125 127.413 74 125.976 74C124.476 74 123.226 75.125 123.226 76.6875C123.226 78.125 124.476 79.3125 125.976 79.3125ZM124.038 109H127.913V84H124.038V109ZM137.454 109H141.329V63H137.454V109ZM152.88 79.3125C154.317 79.3125 155.567 78.125 155.567 76.6875C155.567 75.125 154.317 74 152.88 74C151.38 74 150.13 75.125 150.13 76.6875C150.13 78.125 151.38 79.3125 152.88 79.3125ZM150.942 109H154.817V84H150.942V109ZM188.608 96.25C188.421 89.0625 182.733 83.5 175.608 83.5C168.421 83.5 162.608 89.3125 162.608 96.5C162.608 103.688 168.421 109.5 175.608 109.5C181.546 109.5 186.483 105.562 188.108 100.188H183.983C182.608 103.438 179.358 105.625 175.608 105.625C170.671 105.625 166.733 101.875 166.483 97.0625H188.546L188.608 96.25ZM175.608 87.375C179.608 87.375 182.983 89.9375 184.171 93.5625H166.983C168.233 89.9375 171.608 87.375 175.608 87.375Z" fill="white"/>
<path d="M72.3216 54C70.6153 55.1429 64.7278 61.0729 63.8425 63" stroke="white" stroke-width="5" stroke-linecap="round"/>
<path d="M106.086 59L103.966 65.56L101.786 59H100.606L98.4264 65.52L96.3464 59H94.9464L97.7064 67H99.0664L101.206 60.72L103.326 67H104.686L107.426 59H106.086ZM109.85 57.5C110.31 57.5 110.71 57.12 110.71 56.66C110.71 56.16 110.31 55.8 109.85 55.8C109.37 55.8 108.97 56.16 108.97 56.66C108.97 57.12 109.37 57.5 109.85 57.5ZM109.23 67H110.47V59H109.23V67ZM117.203 60.2V59H115.063V55.52H113.823V59H112.483V60.2H113.823V64.9C113.823 66.16 114.883 67.16 116.123 67.16C116.523 67.16 116.963 67.04 117.183 66.9V65.96H116.263C115.623 65.96 115.063 65.48 115.063 64.74V60.2H117.203ZM122.34 58.84C121.68 58.84 121.06 59.06 120.56 59.42V52.28H119.32V67H120.56V61.88C120.56 60.86 121.36 60.08 122.34 60.08C123.32 60.08 124.14 60.86 124.14 61.88V67H125.36V61.88C125.36 60.18 124.02 58.84 122.34 58.84Z" fill="#FDDCBF"/>
</svg>
