<svg width="112" height="71" viewBox="0 0 112 71" fill="none" xmlns="http://www.w3.org/2000/svg">
<path d="M14.21 7.17V5H2.73V26H4.97V16.585H13.02V14.415H4.97V7.17H14.21ZM24.2277 11.72C22.2327 11.72 20.6227 12.595 19.5727 13.995V12H17.4027V26H19.5727V18.405C19.5727 15.85 21.6727 13.89 24.2277 13.89C24.6477 13.89 24.9977 13.925 25.3127 14.03V11.825C24.9977 11.755 24.6477 11.72 24.2277 11.72ZM41.6194 18.86C41.5144 14.835 38.3294 11.72 34.3394 11.72C30.3144 11.72 27.0594 14.975 27.0594 19C27.0594 23.025 30.3144 26.28 34.3394 26.28C37.6644 26.28 40.4294 24.075 41.3394 21.065H39.0294C38.2594 22.885 36.4394 24.11 34.3394 24.11C31.5744 24.11 29.3694 22.01 29.2294 19.315H41.5844L41.6194 18.86ZM34.3394 13.89C36.5794 13.89 38.4694 15.325 39.1344 17.355H29.5094C30.2094 15.325 32.0994 13.89 34.3394 13.89ZM51.1864 11.72C49.8914 11.72 48.7014 12.245 47.7914 13.12V12H45.6214V26H47.7914V17.075C47.7914 15.29 49.2264 13.89 51.0114 13.89C52.7964 13.89 54.1964 15.29 54.1964 17.075V26H56.3664V17.075C56.3664 14.1 53.8814 11.72 51.1864 11.72ZM67.5894 26.28C70.8444 26.28 73.5744 24.18 74.5194 21.24H72.2094C71.3694 22.955 69.6194 24.11 67.5894 24.11C64.7544 24.11 62.4794 21.87 62.4794 19C62.4794 16.13 64.7544 13.89 67.5894 13.89C69.6194 13.89 71.3694 15.045 72.2094 16.76H74.5194C73.5744 13.82 70.8444 11.72 67.5894 11.72C63.5644 11.72 60.3094 14.975 60.3094 19C60.3094 23.025 63.5644 26.28 67.5894 26.28ZM83.2814 11.72C82.1264 11.72 81.0414 12.105 80.1664 12.735V0.240001H77.9964V26H80.1664V17.04C80.1664 15.255 81.5664 13.89 83.2814 13.89C84.9964 13.89 86.4314 15.255 86.4314 17.04V26H88.5664V17.04C88.5664 14.065 86.2214 11.72 83.2814 11.72Z" fill="#FDDCBF"/>
<path d="M43.21 41.0315V38.8615H31.73V59.8615H43.21V57.6915H33.97V50.4465H42.02V48.2765H33.97V41.0315H43.21ZM61.2569 45.5815C59.5769 45.5815 58.1069 46.3865 57.1619 47.6815C56.2169 46.3865 54.7469 45.5815 53.2769 45.5815C52.0169 45.5815 50.8619 46.2115 50.0219 47.1565V45.8615H47.8519V59.8615H50.0219V50.9015C50.0219 49.1515 51.3519 47.7515 53.0669 47.7515C54.7119 47.7515 56.0769 49.1515 56.0769 50.9015V59.8615H58.2469V50.9015C58.2469 49.1515 59.6119 47.7515 61.2569 47.7515C62.9369 47.7515 64.3019 49.1515 64.3019 50.9015V59.8615H66.4719V50.9015C66.4719 47.9615 64.1619 45.5815 61.2569 45.5815ZM72.7325 43.2365C73.5375 43.2365 74.2375 42.5715 74.2375 41.7665C74.2375 40.8915 73.5375 40.2615 72.7325 40.2615C71.8925 40.2615 71.1925 40.8915 71.1925 41.7665C71.1925 42.5715 71.8925 43.2365 72.7325 43.2365ZM71.6475 59.8615H73.8175V45.8615H71.6475V59.8615ZM79.1605 59.8615H81.3305V34.1015H79.1605V59.8615ZM87.7989 43.2365C88.6039 43.2365 89.3039 42.5715 89.3039 41.7665C89.3039 40.8915 88.6039 40.2615 87.7989 40.2615C86.9589 40.2615 86.2589 40.8915 86.2589 41.7665C86.2589 42.5715 86.9589 43.2365 87.7989 43.2365ZM86.7139 59.8615H88.8839V45.8615H86.7139V59.8615ZM107.807 52.7215C107.702 48.6965 104.517 45.5815 100.527 45.5815C96.5019 45.5815 93.2469 48.8365 93.2469 52.8615C93.2469 56.8865 96.5019 60.1415 100.527 60.1415C103.852 60.1415 106.617 57.9365 107.527 54.9265H105.217C104.447 56.7465 102.627 57.9715 100.527 57.9715C97.7619 57.9715 95.5569 55.8715 95.4169 53.1765H107.772L107.807 52.7215ZM100.527 47.7515C102.767 47.7515 104.657 49.1865 105.322 51.2165H95.6969C96.3969 49.1865 98.2869 47.7515 100.527 47.7515Z" fill="white"/>
<path d="M41 30.5846C39.2895 31.8329 36.8875 33.9411 36 36.0461" stroke="white" stroke-linecap="round"/>
<path d="M52.7825 35.0846L51.325 39.5946L49.8262 35.0846H49.015L47.5162 39.5671L46.0862 35.0846H45.1237L47.0212 40.5846H47.9562L49.4275 36.2671L50.885 40.5846H51.82L53.7037 35.0846H52.7825ZM55.3701 34.0533C55.6863 34.0533 55.9613 33.7921 55.9613 33.4758C55.9613 33.1321 55.6863 32.8846 55.3701 32.8846C55.0401 32.8846 54.7651 33.1321 54.7651 33.4758C54.7651 33.7921 55.0401 34.0533 55.3701 34.0533ZM54.9438 40.5846H55.7963V35.0846H54.9438V40.5846ZM60.4254 35.9096V35.0846H58.9541V32.6921H58.1016V35.0846H57.1804V35.9096H58.1016V39.1408C58.1016 40.0071 58.8304 40.6946 59.6829 40.6946C59.9579 40.6946 60.2604 40.6121 60.4116 40.5158V39.8696H59.7791C59.3391 39.8696 58.9541 39.5396 58.9541 39.0308V35.9096H60.4254ZM63.957 34.9746C63.5032 34.9746 63.077 35.1258 62.7332 35.3733V30.4646H61.8807V40.5846H62.7332V37.0646C62.7332 36.3633 63.2832 35.8271 63.957 35.8271C64.6307 35.8271 65.1945 36.3633 65.1945 37.0646V40.5846H66.0332V37.0646C66.0332 35.8958 65.112 34.9746 63.957 34.9746Z" fill="white" fill-opacity="0.51"/>
</svg>
