<svg width="91" height="91" viewBox="0 0 91 91" fill="none" xmlns="http://www.w3.org/2000/svg">
<g clip-path="url(#clip0_15_684)">
<path d="M45.5001 42.9724C48.9997 42.9724 52.4208 41.9346 55.3306 39.9903C58.2405 38.0461 60.5084 35.2826 61.8476 32.0493C63.1869 28.8161 63.5373 25.2583 62.8546 21.8259C62.1718 18.3935 60.4866 15.2407 58.012 12.7661C55.5374 10.2915 52.3845 8.60624 48.9521 7.9235C45.5197 7.24075 41.962 7.59116 38.7287 8.93041C35.4955 10.2697 32.732 12.5376 30.7877 15.4474C28.8434 18.3573 27.8057 21.7783 27.8057 25.2779C27.8057 29.9708 29.6699 34.4715 32.9882 37.7898C36.3066 41.1082 40.8072 42.9724 45.5001 42.9724ZM45.5001 12.6391C47.9998 12.6391 50.4434 13.3803 52.5219 14.7691C54.6004 16.1579 56.2203 18.1318 57.1769 20.4413C58.1335 22.7507 58.3838 25.292 57.8961 27.7437C57.4085 30.1954 56.2047 32.4474 54.4372 34.215C52.6696 35.9826 50.4175 37.1863 47.9658 37.674C45.5141 38.1617 42.9729 37.9114 40.6634 36.9548C38.354 35.9982 36.38 34.3782 34.9913 32.2997C33.6025 30.2213 32.8612 27.7777 32.8612 25.2779C32.8612 21.9259 34.1928 18.7112 36.5631 16.3409C38.9333 13.9707 42.1481 12.6391 45.5001 12.6391Z" fill="white"/>
<path d="M77.0214 61.6021C72.9676 57.3176 68.0826 53.9048 62.665 51.5724C57.2474 49.2401 51.411 48.0371 45.5127 48.0371C39.6143 48.0371 33.7779 49.2401 28.3603 51.5724C22.9427 53.9048 18.0577 57.3176 14.0039 61.6021C13.125 62.5409 12.6369 63.7792 12.6389 65.0652V78.3613C12.6389 79.7021 13.1716 80.988 14.1197 81.9361C15.0678 82.8842 16.3537 83.4169 17.6945 83.4169H73.3056C74.6464 83.4169 75.9323 82.8842 76.8804 81.9361C77.8285 80.988 78.3611 79.7021 78.3611 78.3613V65.0652C78.37 63.7827 77.8911 62.5448 77.0214 61.6021ZM73.3056 78.3613H17.6945V65.0399C21.2769 61.2677 25.5895 58.2638 30.3697 56.2111C35.1499 54.1584 40.2977 53.0999 45.5 53.0999C50.7023 53.0999 55.8502 54.1584 60.6304 56.2111C65.4106 58.2638 69.7232 61.2677 73.3056 65.0399V78.3613Z" fill="white"/>
</g>
<defs>
<clipPath id="clip0_15_684">
<rect width="91" height="91" fill="white"/>
</clipPath>
</defs>
</svg>
