<svg width="90" height="68" viewBox="0 0 90 68" fill="none" xmlns="http://www.w3.org/2000/svg">
<path d="M84.375 68C84.375 68 90 68 90 62.3333C90 56.6667 84.375 39.6667 61.875 39.6667C39.375 39.6667 33.75 56.6667 33.75 62.3333C33.75 68 39.375 68 39.375 68H84.375ZM39.4987 62.3333C39.4572 62.3276 39.4159 62.32 39.375 62.3107C39.3806 60.8147 40.3144 56.474 43.65 52.564C46.755 48.8977 52.2113 45.3333 61.875 45.3333C71.5331 45.3333 76.9894 48.9033 80.1 52.564C83.4356 56.474 84.3637 60.8203 84.375 62.3107L84.33 62.322C84.3038 62.3265 84.2776 62.3302 84.2513 62.3333H39.4987ZM61.875 28.3333C64.8587 28.3333 67.7202 27.1393 69.8299 25.0139C71.9397 22.8885 73.125 20.0058 73.125 17C73.125 13.9942 71.9397 11.1115 69.8299 8.98612C67.7202 6.86071 64.8587 5.66667 61.875 5.66667C58.8913 5.66667 56.0298 6.86071 53.9201 8.98612C51.8103 11.1115 50.625 13.9942 50.625 17C50.625 20.0058 51.8103 22.8885 53.9201 25.0139C56.0298 27.1393 58.8913 28.3333 61.875 28.3333ZM78.75 17C78.75 19.2325 78.3135 21.4431 77.4655 23.5056C76.6174 25.5682 75.3744 27.4422 73.8074 29.0208C72.2404 30.5994 70.3801 31.8516 68.3328 32.706C66.2854 33.5603 64.0911 34 61.875 34C59.6589 34 57.4646 33.5603 55.4172 32.706C53.3698 31.8516 51.5096 30.5994 49.9426 29.0208C48.3756 27.4422 47.1326 25.5682 46.2845 23.5056C45.4365 21.4431 45 19.2325 45 17C45 12.4913 46.7779 8.1673 49.9426 4.97919C53.1072 1.79107 57.3995 0 61.875 0C66.3505 0 70.6428 1.79107 73.8074 4.97919C76.9721 8.1673 78.75 12.4913 78.75 17ZM39.015 41.2533C36.7649 40.5395 34.4454 40.0703 32.0962 39.8537C30.7762 39.7272 29.451 39.6648 28.125 39.6667C5.625 39.6667 0 56.6667 0 62.3333C0 66.113 1.87313 68 5.625 68H29.34C28.5061 66.2309 28.0903 64.2914 28.125 62.3333C28.125 56.61 30.2456 50.762 34.2563 45.8773C35.6231 44.2113 37.215 42.653 39.015 41.2533ZM27.675 45.3333C24.3459 50.3725 22.5475 56.2803 22.5 62.3333H5.625C5.625 60.86 6.5475 56.4967 9.9 52.564C12.9656 48.96 18.2925 45.4467 27.675 45.339V45.3333ZM8.4375 19.8333C8.4375 15.3247 10.2154 11.0006 13.3801 7.81252C16.5448 4.6244 20.837 2.83333 25.3125 2.83333C29.788 2.83333 34.0802 4.6244 37.2449 7.81252C40.4096 11.0006 42.1875 15.3247 42.1875 19.8333C42.1875 24.342 40.4096 28.666 37.2449 31.8541C34.0802 35.0423 29.788 36.8333 25.3125 36.8333C20.837 36.8333 16.5448 35.0423 13.3801 31.8541C10.2154 28.666 8.4375 24.342 8.4375 19.8333ZM25.3125 8.5C22.3288 8.5 19.4673 9.69404 17.3575 11.8195C15.2478 13.9449 14.0625 16.8275 14.0625 19.8333C14.0625 22.8391 15.2478 25.7218 17.3575 27.8472C19.4673 29.9726 22.3288 31.1667 25.3125 31.1667C28.2962 31.1667 31.1577 29.9726 33.2675 27.8472C35.3772 25.7218 36.5625 22.8391 36.5625 19.8333C36.5625 16.8275 35.3772 13.9449 33.2675 11.8195C31.1577 9.69404 28.2962 8.5 25.3125 8.5Z" fill="white"/>
</svg>
