<svg width="176" height="177" viewBox="0 0 176 177" fill="none" xmlns="http://www.w3.org/2000/svg">
<g clip-path="url(#clip0_15_91)">
<path d="M176 0H0V177H176V0Z" fill="white"/>
<path opacity="0.4" d="M139.644 117.278L115.41 132.647C114.171 133.433 112.775 133.937 111.321 134.122C109.867 134.307 108.391 134.169 106.996 133.718L80.432 125.131C79.0282 124.677 77.5419 124.54 76.0795 124.73C74.6171 124.92 73.2144 125.433 71.9713 126.231L52.5233 138.716C51.9267 139.095 51.2503 139.329 50.5481 139.399C49.8458 139.47 49.1369 139.375 48.4775 139.121C47.8182 138.868 47.2264 138.464 46.7495 137.941C46.2725 137.418 45.9233 136.79 45.7297 136.107L28.9446 76.9292C28.6755 75.9803 28.7193 74.9691 29.0692 74.0472C29.4191 73.1254 30.0566 72.3422 30.8859 71.8151L55.3781 56.2481C56.7359 55.3851 58.2657 54.8321 59.8592 54.6287C61.4527 54.4252 63.0712 54.5758 64.6005 55.0702L90.3167 63.3835C91.8516 63.8797 93.4763 64.0296 95.0752 63.8228C96.6742 63.6161 98.2082 63.0577 99.5683 62.1874L117.985 50.4011C118.581 50.0193 119.258 49.783 119.961 49.7106C120.665 49.6384 121.375 49.7324 122.036 49.9848C122.697 50.2374 123.29 50.6416 123.768 51.1654C124.247 51.6891 124.597 52.318 124.791 53.0018L141.573 112.172C141.842 113.118 141.799 114.127 141.451 115.047C141.104 115.967 140.47 116.75 139.644 117.278Z" fill="#CCCDCF"/>
<path d="M140.59 110.998L119.896 124.242C118.536 125.112 117.002 125.671 115.403 125.877C113.804 126.084 112.179 125.934 110.645 125.438L84.9267 117.124C83.3975 116.63 81.779 116.48 80.1853 116.683C78.5918 116.887 77.0622 117.439 75.7043 118.302L53.4687 132.436C52.872 132.815 52.1957 133.049 51.4934 133.119C50.791 133.19 50.0821 133.095 49.4228 132.841C48.7633 132.588 48.1718 132.184 47.6948 131.661C47.2179 131.138 46.8687 130.51 46.6751 129.827L29.8901 70.6491C29.6209 69.7002 29.6645 68.6892 30.0146 67.7673C30.3645 66.8453 31.0017 66.0623 31.8312 65.535L56.3222 49.9673C57.68 49.1045 59.2096 48.5517 60.8031 48.3481C62.3968 48.1446 64.0153 48.2954 65.5446 48.7896L91.2624 57.1031C92.7971 57.5992 94.4218 57.7493 96.0207 57.5426C97.6199 57.3358 99.1539 56.7772 100.514 55.9067L118.93 44.1207C119.527 43.7391 120.204 43.5026 120.907 43.4304C121.61 43.3582 122.321 43.452 122.982 43.7045C123.643 43.9571 124.236 44.3614 124.714 44.8851C125.192 45.4089 125.542 46.0376 125.736 46.7213L142.519 105.891C142.787 106.838 142.745 107.846 142.397 108.767C142.05 109.687 141.416 110.47 140.59 110.998Z" fill="white"/>
<path d="M82.4583 110.435L78.6104 99.5166L60.4263 105.777L54.7403 89.209L39.9297 92.1734L50.3137 128.783C50.3596 128.944 50.4564 129.085 50.5893 129.185C50.7222 129.285 50.8839 129.339 51.0501 129.338C51.191 129.338 51.3287 129.296 51.4462 129.218L72.5863 115.781C72.4944 115.673 82.4583 110.435 82.4583 110.435Z" fill="#EAF4F7"/>
<path d="M140.59 110.998L119.896 124.242C118.536 125.112 117.002 125.671 115.403 125.877C113.804 126.084 112.179 125.934 110.645 125.438L84.9267 117.125C83.3975 116.63 81.779 116.48 80.1853 116.683C78.5918 116.887 77.0622 117.439 75.7043 118.302L53.4687 132.436C52.872 132.815 52.1957 133.049 51.4934 133.119C50.791 133.19 50.0821 133.095 49.4228 132.841C48.7633 132.588 48.1718 132.184 47.6948 131.661C47.2179 131.138 46.8687 130.51 46.6751 129.827L29.8901 70.6491C29.6209 69.7002 29.6645 68.6892 30.0146 67.7673C30.3645 66.8453 31.0017 66.0623 31.8312 65.535L56.3222 49.9673C57.68 49.1045 59.2096 48.5517 60.8031 48.3481C62.3968 48.1446 64.0153 48.2954 65.5446 48.7896L91.2624 57.1031C92.7971 57.5992 94.4218 57.7493 96.0207 57.5426C97.6199 57.3358 99.1539 56.7772 100.514 55.9067L118.93 44.1207C119.527 43.7391 120.204 43.5026 120.907 43.4304C121.61 43.3582 122.321 43.452 122.982 43.7045C123.643 43.9571 124.236 44.3614 124.714 44.8851C125.192 45.4089 125.542 46.0376 125.736 46.7213L142.519 105.891C142.787 106.838 142.745 107.846 142.397 108.767C142.05 109.687 141.416 110.47 140.59 110.998Z" stroke="#363A5A" stroke-width="6" stroke-miterlimit="10"/>
<path d="M63.3716 103.647C63.3716 103.647 63.687 103.564 64.2185 103.408" stroke="#363A5A" stroke-width="4" stroke-linecap="round" stroke-linejoin="round"/>
<path d="M66.7773 102.584C70.5145 101.277 75.9986 98.8772 76.0644 96.0395C76.1524 92.2694 57.9836 73.4073 67.7514 72.267C100.362 68.4605 85.7504 95.7372 100.623 95.1276C106.907 94.8701 95.2868 86.1822 113.239 79.9024C115.901 78.9714 114.579 72.1647 113.686 68.606" stroke="#363A5A" stroke-width="4" stroke-linecap="round" stroke-linejoin="round" stroke-dasharray="10.18 15.26"/>
<path d="M113.34 67.2998C113.192 66.7658 113.094 66.4502 113.094 66.4502" stroke="#363A5A" stroke-width="4" stroke-linecap="round" stroke-linejoin="round"/>
<path opacity="0.22" d="M62.2357 112.638C66.9201 112.638 70.7175 108.819 70.7175 104.108C70.7175 99.3968 66.9201 95.5776 62.2357 95.5776C57.5513 95.5776 53.7539 99.3968 53.7539 104.108C53.7539 108.819 57.5513 112.638 62.2357 112.638Z" fill="#3DC0CB"/>
<path d="M62.2356 109.054C64.952 109.054 67.1541 106.84 67.1541 104.108C67.1541 101.376 64.952 99.1611 62.2356 99.1611C59.5193 99.1611 57.3171 101.376 57.3171 104.108C57.3171 106.84 59.5193 109.054 62.2356 109.054Z" fill="#3DC0CB"/>
<path d="M62.2357 99.1611C61.4818 99.1608 60.7378 99.3349 60.0614 99.6702C59.3852 100.006 58.7948 100.493 58.3359 101.095C59.3029 100.434 60.4724 100.141 61.6345 100.269C62.7968 100.396 63.8757 100.936 64.6779 101.792C65.4801 102.647 65.953 103.762 66.012 104.936C66.071 106.11 65.7119 107.267 64.9993 108.199C65.8694 107.605 66.5272 106.746 66.876 105.747C67.2246 104.749 67.2461 103.665 66.9369 102.654C66.6278 101.643 66.0044 100.758 65.1582 100.129C64.3122 99.5006 63.2881 99.1613 62.2361 99.1611H62.2357Z" fill="#64C7CF"/>
<path d="M62.2356 109.054C64.952 109.054 67.1541 106.84 67.1541 104.108C67.1541 101.376 64.952 99.1611 62.2356 99.1611C59.5193 99.1611 57.3171 101.376 57.3171 104.108C57.3171 106.84 59.5193 109.054 62.2356 109.054Z" stroke="#363A5A" stroke-width="6" stroke-miterlimit="10"/>
<path d="M64.4771 59.9745L78.5841 62.6637L75.3444 56.9374L63.6688 52.8407C62.9935 52.6039 62.2784 52.503 61.5644 52.5441C60.8503 52.5851 60.1512 52.7673 59.5073 53.08L33.8523 68.7522C33.7145 68.8405 33.6087 68.9711 33.5503 69.1246C33.492 69.278 33.4844 69.4463 33.5286 69.6046L37.666 84.1915L48.9457 81.3866L46.8742 73.0301L64.4771 59.9745Z" fill="#87D5F7" stroke="#259AD6" stroke-width="4" stroke-linecap="round" stroke-linejoin="round"/>
<path d="M86.833 96.0986L94.8831 98.137L98.775 107.107L90.1029 105.678L86.833 96.0986Z" fill="#FDDCBF" stroke="#ECB072" stroke-width="4" stroke-linecap="round" stroke-linejoin="round"/>
<path d="M113.243 69.2267C106.703 69.2267 101.402 67.3193 101.402 64.9664C101.402 62.6136 106.703 60.7061 113.243 60.7061C119.783 60.7061 125.084 62.6136 125.084 64.9664C125.084 67.3193 119.782 69.2267 113.243 69.2267Z" fill="#EAF4F7"/>
<path d="M116.959 93.365L131.73 86.8984L137.565 104.777L113.646 118.447L109.262 106.004L118.615 100.713L116.959 93.365Z" fill="#FDDCBF" stroke="#ECB072" stroke-width="4" stroke-linecap="round" stroke-linejoin="round"/>
<path d="M130.677 44.1936C130.677 33.963 122.42 25.7247 112.415 26.2029C103.456 26.6313 95.8193 34.3063 95.8193 43.5709C95.8193 56.9728 113.243 67.3066 113.243 67.3066C113.243 67.3066 130.677 56.9728 130.677 44.1936Z" fill="#EE4637"/>
<path d="M119.607 62.1205C118.233 63.1985 116.539 63.7811 114.796 63.7751C113.054 63.7691 111.364 63.1747 109.997 62.0872C104.84 57.9808 97.3821 50.5251 97.3821 41.757C97.395 38.0342 98.6194 34.4181 100.868 31.4609C97.7755 34.602 95.8191 38.8825 95.8191 43.5707C95.8191 56.9727 113.243 67.3064 113.243 67.3064C113.243 67.3064 120.349 63.0938 125.488 56.7218C123.674 58.6765 121.707 60.4817 119.607 62.1205Z" fill="#CD3C27"/>
<path d="M112.415 26.2029C109.274 26.3656 106.237 27.3892 103.632 29.1629C105.683 28.1683 107.912 27.5973 110.186 27.4841C120.191 27.0062 128.448 35.2439 128.448 45.4747C128.448 55.4947 117.73 64.0108 113.102 67.2214C113.192 67.277 113.243 67.3071 113.243 67.3071C113.243 67.3071 130.676 56.9728 130.676 44.1936C130.677 33.963 122.42 25.7247 112.415 26.2029Z" fill="#F07378"/>
<path d="M113.243 51.083C111.824 51.083 110.437 50.6599 109.258 49.8673C108.078 49.0746 107.159 47.948 106.616 46.6298C106.073 45.3117 105.931 43.8612 106.208 42.4618C106.484 41.0625 107.168 39.7771 108.171 38.7682C109.174 37.7593 110.452 37.0724 111.843 36.7939C113.235 36.5155 114.677 36.6584 115.988 37.2044C117.299 37.7505 118.419 38.6751 119.207 39.8614C119.995 41.0476 120.416 42.4424 120.416 43.8692C120.416 45.7824 119.66 47.6171 118.315 48.9699C116.97 50.3228 115.145 51.083 113.243 51.083Z" fill="white"/>
<path d="M113.243 51.083C111.824 51.083 110.437 50.6599 109.258 49.8673C108.078 49.0746 107.159 47.948 106.616 46.6298C106.073 45.3117 105.931 43.8612 106.208 42.4618C106.484 41.0625 107.168 39.7771 108.171 38.7682C109.174 37.7593 110.452 37.0724 111.843 36.7939C113.235 36.5155 114.677 36.6584 115.988 37.2044C117.299 37.7505 118.419 38.6751 119.207 39.8614C119.995 41.0476 120.416 42.4424 120.416 43.8692C120.416 45.7824 119.66 47.6171 118.315 48.9699C116.97 50.3228 115.145 51.083 113.243 51.083Z" stroke="#363A5A" stroke-width="6" stroke-miterlimit="10"/>
<path d="M130.677 44.1936C130.677 33.963 122.42 25.7247 112.415 26.2029C103.456 26.6313 95.8193 34.3063 95.8193 43.5709C95.8193 56.9728 113.243 67.3066 113.243 67.3066C113.243 67.3066 130.677 56.9728 130.677 44.1936Z" stroke="#363A5A" stroke-width="6" stroke-linecap="round" stroke-linejoin="round"/>
</g>
<defs>
<clipPath id="clip0_15_91">
<rect width="176" height="177" fill="white"/>
</clipPath>
</defs>
</svg>
