<svg width="66" height="45" viewBox="0 0 66 45" fill="none" xmlns="http://www.w3.org/2000/svg">
<path d="M8.6275 4.5675V3.25H1.6575V16H3.0175V10.2837H7.905V8.96625H3.0175V4.5675H8.6275ZM14.7096 7.33C13.4984 7.33 12.5209 7.86125 11.8834 8.71125V7.5H10.5659V16H11.8834V11.3888C11.8834 9.8375 13.1584 8.6475 14.7096 8.6475C14.9646 8.6475 15.1771 8.66875 15.3684 8.7325V7.39375C15.1771 7.35125 14.9646 7.33 14.7096 7.33ZM25.2689 11.665C25.2052 9.22125 23.2714 7.33 20.8489 7.33C18.4052 7.33 16.4289 9.30625 16.4289 11.75C16.4289 14.1938 18.4052 16.17 20.8489 16.17C22.8677 16.17 24.5464 14.8312 25.0989 13.0038H23.6964C23.2289 14.1088 22.1239 14.8525 20.8489 14.8525C19.1702 14.8525 17.8314 13.5775 17.7464 11.9413H25.2477L25.2689 11.665ZM20.8489 8.6475C22.2089 8.6475 23.3564 9.51875 23.7602 10.7512H17.9164C18.3414 9.51875 19.4889 8.6475 20.8489 8.6475ZM31.0775 7.33C30.2912 7.33 29.5687 7.64875 29.0162 8.18V7.5H27.6987V16H29.0162V10.5813C29.0162 9.4975 29.8875 8.6475 30.9712 8.6475C32.055 8.6475 32.905 9.4975 32.905 10.5813V16H34.2225V10.5813C34.2225 8.775 32.7137 7.33 31.0775 7.33ZM41.0364 16.17C43.0127 16.17 44.6702 14.895 45.2439 13.11H43.8414C43.3314 14.1512 42.2689 14.8525 41.0364 14.8525C39.3152 14.8525 37.9339 13.4925 37.9339 11.75C37.9339 10.0075 39.3152 8.6475 41.0364 8.6475C42.2689 8.6475 43.3314 9.34875 43.8414 10.39H45.2439C44.6702 8.605 43.0127 7.33 41.0364 7.33C38.5927 7.33 36.6164 9.30625 36.6164 11.75C36.6164 14.1938 38.5927 16.17 41.0364 16.17ZM50.5637 7.33C49.8625 7.33 49.2037 7.56375 48.6725 7.94625V0.360001H47.355V16H48.6725V10.56C48.6725 9.47625 49.5225 8.6475 50.5637 8.6475C51.605 8.6475 52.4762 9.47625 52.4762 10.56V16H53.7725V10.56C53.7725 8.75375 52.3487 7.33 50.5637 7.33Z" fill="#FDDCBF"/>
<path d="M25.6275 28.5675V27.25H18.6575V40H25.6275V38.6825H20.0175V34.2837H24.905V32.9663H20.0175V28.5675H25.6275ZM36.5845 31.33C35.5645 31.33 34.672 31.8188 34.0983 32.605C33.5245 31.8188 32.632 31.33 31.7395 31.33C30.9745 31.33 30.2733 31.7125 29.7633 32.2863V31.5H28.4458V40H29.7633V34.56C29.7633 33.4975 30.5708 32.6475 31.612 32.6475C32.6108 32.6475 33.4395 33.4975 33.4395 34.56V40H34.757V34.56C34.757 33.4975 35.5858 32.6475 36.5845 32.6475C37.6045 32.6475 38.4333 33.4975 38.4333 34.56V40H39.7508V34.56C39.7508 32.775 38.3483 31.33 36.5845 31.33ZM43.5519 29.9062C44.0406 29.9062 44.4656 29.5025 44.4656 29.0137C44.4656 28.4825 44.0406 28.1 43.5519 28.1C43.0419 28.1 42.6169 28.4825 42.6169 29.0137C42.6169 29.5025 43.0419 29.9062 43.5519 29.9062ZM42.8931 40H44.2106V31.5H42.8931V40ZM47.4546 40H48.7721V24.36H47.4546V40ZM52.6993 29.9062C53.1881 29.9062 53.6131 29.5025 53.6131 29.0137C53.6131 28.4825 53.1881 28.1 52.6993 28.1C52.1893 28.1 51.7643 28.4825 51.7643 29.0137C51.7643 29.5025 52.1893 29.9062 52.6993 29.9062ZM52.0406 40H53.3581V31.5H52.0406V40ZM64.847 35.665C64.7833 33.2213 62.8495 31.33 60.427 31.33C57.9833 31.33 56.007 33.3063 56.007 35.75C56.007 38.1938 57.9833 40.17 60.427 40.17C62.4458 40.17 64.1245 38.8312 64.677 37.0038H63.2745C62.807 38.1088 61.702 38.8525 60.427 38.8525C58.7483 38.8525 57.4095 37.5775 57.3245 35.9413H64.8258L64.847 35.665ZM60.427 32.6475C61.787 32.6475 62.9345 33.5188 63.3383 34.7512H57.4945C57.9195 33.5188 59.067 32.6475 60.427 32.6475Z" fill="white"/>
<path d="M25 18C23.9737 19.1429 22.5325 21.0729 22 23" stroke="white" stroke-linecap="round"/>
<path d="M35.66 21L34.6 24.28L33.51 21H32.92L31.83 24.26L30.79 21H30.09L31.47 25H32.15L33.22 21.86L34.28 25H34.96L36.33 21H35.66ZM37.5419 20.25C37.7719 20.25 37.9719 20.06 37.9719 19.83C37.9719 19.58 37.7719 19.4 37.5419 19.4C37.3019 19.4 37.1019 19.58 37.1019 19.83C37.1019 20.06 37.3019 20.25 37.5419 20.25ZM37.2319 25H37.8519V21H37.2319V25ZM41.2184 21.6V21H40.1484V19.26H39.5284V21H38.8584V21.6H39.5284V23.95C39.5284 24.58 40.0584 25.08 40.6784 25.08C40.8784 25.08 41.0984 25.02 41.2084 24.95V24.48H40.7484C40.4284 24.48 40.1484 24.24 40.1484 23.87V21.6H41.2184ZM43.7869 20.92C43.4569 20.92 43.1469 21.03 42.8969 21.21V17.64H42.2769V25H42.8969V22.44C42.8969 21.93 43.2969 21.54 43.7869 21.54C44.2769 21.54 44.6869 21.93 44.6869 22.44V25H45.2969V22.44C45.2969 21.59 44.6269 20.92 43.7869 20.92Z" fill="white" fill-opacity="0.51"/>
</svg>
