<svg width="40" height="36" viewBox="0 0 40 36" fill="none" xmlns="http://www.w3.org/2000/svg">
<path d="M13.85 16C15.4153 16 16.9454 15.5308 18.2469 14.6518C19.5484 13.7727 20.5628 12.5233 21.1618 11.0615C21.7609 9.59966 21.9176 7.99113 21.6122 6.43928C21.3068 4.88743 20.5531 3.46197 19.4462 2.34315C18.3394 1.22433 16.9292 0.462403 15.394 0.153721C13.8588 -0.15496 12.2675 0.00346623 10.8213 0.608967C9.37519 1.21447 8.13914 2.23985 7.26951 3.55544C6.39988 4.87103 5.93571 6.41775 5.93571 8C5.93571 10.1217 6.76954 12.1566 8.25375 13.6569C9.73797 15.1571 11.751 16 13.85 16ZM29.6786 20C30.8525 20 32.0002 19.6481 32.9763 18.9888C33.9524 18.3295 34.7132 17.3925 35.1625 16.2961C35.6117 15.1997 35.7293 13.9933 35.5002 12.8295C35.2712 11.6656 34.7059 10.5965 33.8758 9.75736C33.0456 8.91825 31.988 8.3468 30.8366 8.11529C29.6852 7.88378 28.4917 8.0026 27.4071 8.45673C26.3225 8.91085 25.3954 9.67989 24.7432 10.6666C24.091 11.6533 23.7429 12.8133 23.7429 14C23.7429 15.5913 24.3682 17.1174 25.4814 18.2426C26.5946 19.3679 28.1043 20 29.6786 20ZM37.5929 34C38.1176 34 38.6209 33.7893 38.9919 33.4142C39.363 33.0391 39.5714 32.5304 39.5714 32C39.5698 30.1308 39.05 28.2995 38.0709 26.7138C37.0918 25.1281 35.6926 23.8515 34.0321 23.0289C32.3716 22.2064 30.5163 21.8707 28.6766 22.06C26.8369 22.2493 25.0866 22.956 23.6241 24.1C21.6862 22.1487 19.22 20.8212 16.5366 20.2849C13.8531 19.7485 11.0727 20.0274 8.5459 21.0863C6.01908 22.1452 3.85903 23.9367 2.33816 26.2349C0.817287 28.5331 0.00370031 31.235 0 34C0 34.5304 0.208456 35.0391 0.57951 35.4142C0.950564 35.7893 1.45382 36 1.97857 36H25.7214C26.2462 36 26.7494 35.7893 27.1205 35.4142C27.4915 35.0391 27.7 34.5304 27.7 34" fill="white"/>
</svg>
