<svg width="27" height="36" viewBox="0 0 27 36" fill="none" xmlns="http://www.w3.org/2000/svg">
<path d="M13.5 15.9299C15.0257 15.9299 16.5172 15.4627 17.7858 14.5875C19.0544 13.7123 20.0432 12.4684 20.6271 11.013C21.2109 9.55758 21.3637 7.9561 21.0661 6.41105C20.7684 4.86601 20.0337 3.44679 18.9548 2.33288C17.876 1.21896 16.5014 0.460376 15.005 0.153047C13.5086 -0.154281 11.9575 0.00345105 10.5479 0.606298C9.13827 1.20914 7.93346 2.23003 7.08581 3.53986C6.23815 4.84968 5.78571 6.38962 5.78571 7.96493C5.78571 10.0774 6.59847 12.1033 8.04518 13.597C9.49189 15.0907 11.454 15.9299 13.5 15.9299ZM25.0714 35.8422C25.5829 35.8422 26.0735 35.6324 26.4351 35.259C26.7968 34.8855 27 34.3791 27 33.851C27 30.1542 25.5777 26.6089 23.0459 23.9949C20.5142 21.3809 17.0804 19.9123 13.5 19.9123C9.91958 19.9123 6.4858 21.3809 3.95406 23.9949C1.42232 26.6089 5.33525e-08 30.1542 0 33.851C0 34.3791 0.203189 34.8855 0.564866 35.259C0.926543 35.6324 1.41708 35.8422 1.92857 35.8422H25.0714Z" fill="white"/>
</svg>
