<svg width="286" height="153" viewBox="0 0 286 153" fill="none" xmlns="http://www.w3.org/2000/svg">
<path d="M163.483 145.018L163.151 146.481L163.483 145.018ZM10.7103 1.54579C9.9071 1.34277 9.09144 1.82929 8.88841 2.63246L5.58013 15.7208C5.3771 16.524 5.86361 17.3397 6.6668 17.5427C7.46996 17.7457 8.28562 17.2592 8.48864 16.456L11.4294 4.8219L23.0634 7.76261C23.8666 7.96564 24.6823 7.47911 24.8853 6.67594C25.0883 5.87278 24.6018 5.05711 23.7986 4.85409L10.7103 1.54579ZM282.957 114.541C281.804 113.581 281.804 113.581 281.804 113.581C281.804 113.581 281.804 113.581 281.804 113.581C281.804 113.581 281.804 113.581 281.804 113.581C281.805 113.581 281.805 113.581 281.805 113.581C281.805 113.581 281.805 113.581 281.804 113.581C281.804 113.582 281.802 113.583 281.801 113.585C281.797 113.59 281.791 113.597 281.782 113.607C281.764 113.628 281.736 113.661 281.698 113.705C281.622 113.793 281.504 113.927 281.346 114.104C281.029 114.456 280.548 114.976 279.903 115.634L282.046 117.734C282.722 117.044 283.232 116.493 283.576 116.111C283.747 115.92 283.878 115.771 283.967 115.668C284.011 115.616 284.046 115.577 284.069 115.549C284.081 115.535 284.09 115.524 284.097 115.516C284.1 115.512 284.103 115.509 284.105 115.506C284.106 115.505 284.107 115.504 284.108 115.503C284.108 115.503 284.108 115.502 284.109 115.502C284.109 115.502 284.109 115.502 284.109 115.502C284.109 115.501 284.109 115.501 284.109 115.501C284.109 115.501 284.109 115.501 282.957 114.541ZM275.728 119.577C274.447 120.705 272.965 121.946 271.282 123.259L273.127 125.625C274.86 124.273 276.388 122.994 277.711 121.828L275.728 119.577ZM266.623 126.69C265.119 127.736 263.503 128.803 261.776 129.873L263.356 132.423C265.129 131.324 266.789 130.229 268.336 129.153L266.623 126.69ZM256.783 132.793C255.147 133.694 253.431 134.587 251.636 135.46L252.949 138.158C254.791 137.261 256.551 136.345 258.231 135.42L256.783 132.793ZM246.377 137.859C244.643 138.597 242.846 139.313 240.986 139.999L242.024 142.814C243.931 142.111 245.774 141.376 247.553 140.618L246.377 137.859ZM235.493 141.872C233.693 142.437 231.84 142.971 229.936 143.468L230.694 146.371C232.646 145.861 234.545 145.313 236.391 144.734L235.493 141.872ZM224.302 144.797C222.449 145.188 220.55 145.543 218.608 145.858L219.088 148.819C221.077 148.496 223.022 148.133 224.921 147.732L224.302 144.797ZM212.867 146.653C210.981 146.87 209.057 147.049 207.094 147.186L207.303 150.179C209.311 150.039 211.28 149.856 213.21 149.633L212.867 146.653ZM201.301 147.464C199.4 147.513 197.466 147.523 195.498 147.491L195.449 150.491C197.459 150.523 199.436 150.513 201.379 150.463L201.301 147.464ZM189.695 147.277C187.791 147.167 185.859 147.019 183.897 146.828L183.607 149.814C185.608 150.008 187.58 150.16 189.523 150.272L189.695 147.277ZM178.111 146.154C176.229 145.898 174.321 145.604 172.388 145.27L171.877 148.226C173.846 148.567 175.79 148.866 177.708 149.126L178.111 146.154ZM166.691 144.182C165.738 143.983 164.78 143.774 163.815 143.555L163.151 146.481C164.133 146.703 165.108 146.916 166.077 147.118L166.691 144.182ZM163.815 143.555C162.874 143.341 161.934 143.113 160.993 142.869L160.24 145.773C161.21 146.024 162.18 146.26 163.151 146.481L163.815 143.555ZM155.38 141.237C153.536 140.643 151.696 139.995 149.86 139.295L148.791 142.098C150.675 142.816 152.565 143.482 154.461 144.092L155.38 141.237ZM144.451 137.08C142.674 136.303 140.902 135.479 139.136 134.612L137.814 137.305C139.618 138.191 141.43 139.033 143.249 139.828L144.451 137.08ZM133.915 131.915C132.205 130.989 130.502 130.023 128.805 129.022L127.28 131.605C129.007 132.625 130.743 133.608 132.486 134.553L133.915 131.915ZM123.802 125.952C122.156 124.904 120.518 123.824 118.888 122.714L117.199 125.194C118.854 126.321 120.518 127.418 122.191 128.483L123.802 125.952ZM114.065 119.327C112.483 118.183 110.91 117.012 109.347 115.817L107.526 118.201C109.109 119.411 110.702 120.597 112.306 121.758L114.065 119.327ZM104.71 112.181C103.181 110.953 101.662 109.703 100.154 108.433L98.2224 110.729C99.747 112.012 101.283 113.276 102.831 114.52L104.71 112.181ZM95.6863 104.591C94.2099 103.294 92.7452 101.981 91.2926 100.653L89.2686 102.867C90.7353 104.208 92.2148 105.534 93.7065 106.845L95.6863 104.591ZM86.9745 96.6316C85.5458 95.2763 84.13 93.909 82.7278 92.5318L80.6256 94.672C82.0399 96.0611 83.4682 97.4405 84.9099 98.8081L86.9745 96.6316ZM78.5479 88.3576C77.1636 86.9524 75.7938 85.5395 74.4392 84.1212L72.2697 86.1932C73.6347 87.6224 75.0153 89.0465 76.4108 90.463L78.5479 88.3576ZM70.3919 79.8197C69.0447 78.3668 67.7141 76.9106 66.4006 75.4535L64.1723 77.4621C65.4949 78.9293 66.835 80.3959 68.192 81.8594L70.3919 79.8197ZM62.4764 71.0405C61.1707 69.5524 59.8837 68.0658 58.6163 66.5835L56.3361 68.5331C57.6116 70.0249 58.907 71.5211 60.2214 73.0191L62.4764 71.0405ZM54.7925 62.0545C53.5162 60.5239 52.262 59.0007 51.0307 57.4878L48.7039 59.3815C49.9425 60.9033 51.2043 62.4357 52.4884 63.9757L54.7925 62.0545ZM47.3322 52.8895C46.0919 51.3293 44.8778 49.7838 43.6909 48.2561L41.3219 50.0967C42.5155 51.6329 43.7364 53.1872 44.9838 54.7563L47.3322 52.8895ZM40.0757 43.55C38.8561 41.9443 37.6694 40.3635 36.5168 38.8119L34.1085 40.6007C35.2673 42.1607 36.4604 43.7501 37.6867 45.3646L40.0757 43.55ZM33.0128 34.0419C31.8183 32.3977 30.6673 30.7946 29.5614 29.2381L27.1158 30.9758C28.2276 32.5405 29.3848 34.1522 30.5857 35.8052L33.0128 34.0419ZM26.1603 24.3974C24.9782 22.6957 23.8608 21.0668 22.811 19.5199L20.3287 21.2046C21.3844 22.7602 22.5079 24.3981 23.6965 26.109L26.1603 24.3974ZM19.5274 14.6225C18.3177 12.7954 17.2371 11.1374 16.2928 9.67106L13.7706 11.2955C14.7216 12.772 15.809 14.4407 17.0261 16.2787L19.5274 14.6225ZM13.1222 4.66574C12.6296 3.87302 12.2557 3.26269 12.0055 2.85143C11.8804 2.64581 11.7862 2.48996 11.7236 2.38596C11.6923 2.33397 11.6688 2.29493 11.6534 2.26914C11.6456 2.25622 11.6399 2.24663 11.6361 2.24038C11.6343 2.23724 11.6329 2.23495 11.632 2.2335C11.6316 2.23278 11.6313 2.23226 11.6311 2.23195C11.631 2.2318 11.631 2.2317 11.6309 2.23164C11.6309 2.23163 11.6309 2.23161 11.6309 2.23161L11.6309 2.23163C11.6309 2.23164 11.6309 2.23166 10.3427 3.00005C9.05443 3.76844 9.05445 3.76847 9.05447 3.7685C9.05447 3.76851 9.05449 3.76854 9.05451 3.76857C9.05455 3.76862 9.05459 3.7687 9.05463 3.76877C9.05472 3.76893 9.05486 3.76916 9.05502 3.76942C9.05533 3.76995 9.05578 3.7707 9.05635 3.77165C9.05751 3.77358 9.05915 3.77633 9.06128 3.7799C9.06557 3.78708 9.07188 3.7976 9.08017 3.81143C9.09672 3.83907 9.1213 3.87998 9.15373 3.93385C9.21865 4.04161 9.31515 4.20129 9.4426 4.41078C9.69757 4.82981 10.0764 5.44816 10.5741 6.24915L13.1222 4.66574ZM163.483 145.018L162.82 147.943L163.483 145.018ZM11.0779 0.0915266C9.47154 -0.314498 7.84018 0.658542 7.43417 2.26488L0.817543 28.4416C0.411525 30.0479 1.38457 31.6793 2.99089 32.0853C4.59723 32.4913 6.22859 31.5183 6.6346 29.912L12.516 6.64375L35.7842 12.5252C37.3906 12.9312 39.0219 11.9582 39.4279 10.3518C39.8339 8.7455 38.8609 7.11417 37.2546 6.70814L11.0779 0.0915266ZM282.957 114.541C280.651 112.621 280.651 112.621 280.652 112.621C280.652 112.621 280.652 112.621 280.652 112.621C280.652 112.621 280.652 112.62 280.652 112.62C280.653 112.62 280.653 112.62 280.653 112.619C280.653 112.619 280.654 112.619 280.654 112.618C280.654 112.618 280.654 112.619 280.652 112.62C280.65 112.623 280.646 112.628 280.638 112.637C280.624 112.654 280.599 112.683 280.564 112.724C280.494 112.805 280.383 112.931 280.231 113.1C279.927 113.437 279.461 113.942 278.831 114.585L283.117 118.783C283.809 118.078 284.333 117.511 284.69 117.114C284.869 116.916 285.006 116.759 285.101 116.649C285.149 116.594 285.186 116.551 285.213 116.519C285.226 116.503 285.237 116.491 285.245 116.481C285.249 116.476 285.253 116.472 285.256 116.469C285.257 116.467 285.258 116.466 285.259 116.464C285.26 116.464 285.26 116.463 285.261 116.463C285.261 116.462 285.261 116.462 285.261 116.462C285.261 116.462 285.262 116.461 285.262 116.461C285.262 116.461 285.262 116.461 282.957 114.541ZM274.736 118.452C273.477 119.561 272.018 120.783 270.359 122.077L274.05 126.808C275.807 125.437 277.358 124.138 278.703 122.954L274.736 118.452ZM265.767 125.459C264.283 126.49 262.689 127.543 260.986 128.598L264.146 133.698C265.943 132.585 267.625 131.475 269.192 130.385L265.767 125.459ZM256.059 131.479C254.445 132.368 252.752 133.249 250.98 134.111L253.605 139.506C255.471 138.599 257.254 137.671 258.954 136.734L256.059 131.479ZM245.788 136.479C244.077 137.208 242.303 137.915 240.467 138.592L242.543 144.221C244.474 143.509 246.34 142.766 248.141 141.998L245.788 136.479ZM235.044 140.441C233.266 140.998 231.437 141.526 229.557 142.017L231.074 147.822C233.049 147.306 234.971 146.752 236.84 146.166L235.044 140.441ZM223.993 143.329C222.162 143.715 220.287 144.066 218.367 144.377L219.328 150.3C221.341 149.973 223.308 149.605 225.23 149.2L223.993 143.329ZM212.695 145.163C210.832 145.378 208.93 145.554 206.989 145.69L207.408 151.675C209.438 151.534 211.43 151.348 213.382 151.123L212.695 145.163ZM201.262 145.964C199.382 146.013 197.469 146.023 195.523 145.991L195.425 151.99C197.456 152.024 199.454 152.013 201.418 151.962L201.262 145.964ZM189.78 145.779C187.897 145.671 185.984 145.524 184.042 145.335L183.462 151.307C185.482 151.503 187.474 151.656 189.437 151.769L189.78 145.779ZM178.313 144.667C176.449 144.414 174.559 144.123 172.644 143.792L171.621 149.704C173.608 150.048 175.57 150.35 177.506 150.613L178.313 144.667ZM166.998 142.713C166.054 142.516 165.103 142.309 164.147 142.092L162.82 147.943C163.809 148.168 164.793 148.382 165.771 148.587L166.998 142.713ZM164.147 142.092C163.221 141.882 162.295 141.657 161.37 141.417L159.864 147.225C160.848 147.48 161.833 147.72 162.82 147.943L164.147 142.092ZM155.84 139.809C154.022 139.224 152.207 138.584 150.394 137.893L148.256 143.499C150.164 144.227 152.079 144.901 154.001 145.52L155.84 139.809ZM145.052 135.706C143.297 134.937 141.544 134.123 139.797 133.265L137.153 138.651C138.976 139.546 140.808 140.398 142.648 141.203L145.052 135.706ZM134.63 130.596C132.937 129.679 131.249 128.723 129.568 127.73L126.518 132.897C128.26 133.926 130.011 134.918 131.771 135.872L134.63 130.596ZM124.608 124.687C122.975 123.648 121.35 122.576 119.732 121.474L116.355 126.434C118.022 127.569 119.699 128.675 121.386 129.748L124.608 124.687ZM114.944 118.112C113.373 116.975 111.811 115.813 110.258 114.626L106.615 119.393C108.208 120.61 109.812 121.805 111.427 122.973L114.944 118.112ZM105.65 111.012C104.13 109.791 102.62 108.548 101.12 107.286L97.2565 111.876C98.7895 113.167 100.335 114.438 101.891 115.689L105.65 111.012ZM96.6762 103.464C95.2075 102.174 93.7501 100.867 92.3045 99.5457L88.2566 103.975C89.7304 105.322 91.2172 106.655 92.7165 107.972L96.6762 103.464ZM88.0068 95.5433C86.5846 94.1942 85.1751 92.8329 83.7789 91.4616L79.5745 95.7422C80.9948 97.1371 82.4294 98.5226 83.8777 99.8964L88.0068 95.5433ZM79.6165 87.3048C78.2378 85.9054 76.8734 84.4981 75.524 83.0852L71.1849 87.2292C72.5551 88.6639 73.9411 90.0935 75.3423 91.5157L79.6165 87.3048ZM71.4918 78.7998C70.1496 77.3522 68.8236 75.9012 67.5148 74.4492L63.0582 78.4664C64.3853 79.9387 65.7302 81.4105 67.0921 82.8793L71.4918 78.7998ZM63.6039 70.0512C62.3025 68.568 61.0198 67.0863 59.7564 65.6087L55.1961 69.5079C56.4756 71.0044 57.7751 72.5054 59.0939 74.0084L63.6039 70.0512ZM55.9445 61.0939C54.6722 59.5679 53.4217 58.0494 52.1941 56.5409L47.5405 60.3283C48.7827 61.8547 50.0483 63.3916 51.3363 64.9363L55.9445 61.0939ZM48.5063 51.956C47.2697 50.4004 46.059 48.8592 44.8754 47.3358L40.1374 51.017C41.3343 52.5575 42.5587 54.1162 43.8096 55.6898L48.5063 51.956ZM41.2702 42.6427C40.0539 41.0414 38.8704 39.4649 37.721 37.9174L32.9044 41.4952C34.0662 43.0593 35.2626 44.653 36.4922 46.2718L41.2702 42.6427ZM34.2264 33.1603C33.0351 31.5205 31.8871 29.9216 30.7841 28.3693L25.8931 31.8446C27.0078 33.4135 28.1681 35.0295 29.3722 36.6869L34.2264 33.1603ZM27.3923 23.5417C26.2133 21.8446 25.099 20.2201 24.0522 18.6776L19.0875 22.0469C20.1462 23.6069 21.2728 25.2492 22.4646 26.9648L27.3923 23.5417ZM20.7781 13.7944C19.572 11.9728 18.4949 10.32 17.5538 8.85883L12.5095 12.1077C13.4638 13.5893 14.5547 15.2633 15.7754 17.1069L20.7781 13.7944ZM14.3963 3.87403C13.9063 3.08547 13.5348 2.47914 13.287 2.07176C13.163 1.86807 13.07 1.71413 13.0085 1.61202C12.9777 1.56095 12.9549 1.52286 12.9399 1.49798C12.9325 1.48554 12.927 1.47641 12.9236 1.47061C12.9218 1.46771 12.9206 1.46565 12.9199 1.46443C12.9195 1.46381 12.9193 1.46341 12.9192 1.46321C12.9191 1.46312 12.919 1.46306 12.9191 1.46308C12.9191 1.46309 12.9191 1.4631 12.9191 1.46313C12.9191 1.46315 12.9191 1.46318 12.9191 1.46319C12.9191 1.46322 12.9192 1.46326 10.3427 3.00005C7.7662 4.53684 7.76622 4.53688 7.76626 4.53694C7.76626 4.53696 7.7663 4.53701 7.76632 4.53705C7.76638 4.53714 7.76644 4.53724 7.7665 4.53734C7.76664 4.53756 7.76679 4.53783 7.76698 4.53816C7.76738 4.53881 7.76789 4.53967 7.76853 4.54074C7.7698 4.54287 7.77159 4.54585 7.77385 4.54967C7.77844 4.55731 7.785 4.56828 7.79356 4.58257C7.81069 4.61115 7.83581 4.65298 7.86881 4.70779C7.93487 4.81743 8.0325 4.97901 8.16117 5.19046C8.41847 5.61336 8.79978 6.23573 9.30007 7.04085L14.3963 3.87403Z" fill="#F77600"/>
</svg>
