<svg width="140" height="291" viewBox="0 0 140 291" fill="none" xmlns="http://www.w3.org/2000/svg">
<path d="M134.753 170.832L136.234 170.596L134.753 170.832ZM1.52444 9.04841C1.37411 8.23371 1.91266 7.45143 2.72733 7.30109L16.0032 4.85134C16.8179 4.70101 17.6002 5.23955 17.7505 6.05424C17.9008 6.86891 17.3623 7.65119 16.5476 7.80153L4.74683 9.9791L6.92439 21.7799C7.07473 22.5946 6.53617 23.3768 5.72149 23.5271C4.90682 23.6775 4.12454 23.1389 3.9742 22.3242L1.52444 9.04841ZM96.5681 288.069C95.6853 286.857 95.6852 286.857 95.6851 286.857C95.6851 286.857 95.685 286.857 95.6849 286.857C95.6849 286.857 95.6848 286.857 95.6847 286.857C95.6846 286.857 95.6845 286.857 95.6845 286.857C95.6844 286.857 95.6846 286.857 95.6849 286.857C95.6856 286.857 95.6871 286.855 95.6894 286.854C95.694 286.85 95.7018 286.845 95.7127 286.836C95.7346 286.82 95.7691 286.794 95.8156 286.759C95.9087 286.689 96.0502 286.58 96.2362 286.434C96.6084 286.14 97.1588 285.694 97.8577 285.093L99.8131 287.368C99.0808 287.998 98.4976 288.471 98.0939 288.789C97.8921 288.948 97.7351 289.069 97.6267 289.151C97.5725 289.192 97.5304 289.223 97.501 289.245C97.4863 289.256 97.4747 289.265 97.4664 289.271C97.4622 289.274 97.4588 289.276 97.4563 289.278C97.455 289.279 97.4539 289.28 97.453 289.281C97.4526 289.281 97.4522 289.281 97.4519 289.281C97.4517 289.282 97.4516 289.282 97.4514 289.282C97.4513 289.282 97.4512 289.282 97.4512 289.282C97.4511 289.282 97.451 289.282 96.5681 288.069ZM102.064 281.184C103.273 279.979 104.608 278.581 106.027 276.987L108.268 278.982C106.806 280.623 105.43 282.065 104.181 283.309L102.064 281.184ZM109.754 272.561C110.896 271.128 112.065 269.585 113.246 267.931L115.688 269.674C114.476 271.372 113.274 272.957 112.1 274.431L109.754 272.561ZM116.484 263.139C117.49 261.565 118.492 259.911 119.48 258.176L122.087 259.662C121.073 261.441 120.044 263.139 119.012 264.754L116.484 263.139ZM122.216 253.084C123.066 251.402 123.897 249.656 124.703 247.844L127.444 249.063C126.618 250.921 125.765 252.712 124.893 254.437L122.216 253.084ZM126.929 242.484C127.61 240.725 128.263 238.911 128.883 237.043L131.73 237.989C131.095 239.903 130.425 241.762 129.727 243.567L126.929 242.484ZM130.576 231.508C131.086 229.683 131.564 227.812 132.005 225.894L134.929 226.566C134.477 228.53 133.988 230.447 133.465 232.316L130.576 231.508ZM133.172 220.217C133.511 218.35 133.815 216.441 134.08 214.491L137.052 214.895C136.782 216.889 136.471 218.842 136.123 220.754L133.172 220.217ZM134.733 208.729C134.906 206.835 135.042 204.906 135.138 202.94L138.135 203.086C138.037 205.094 137.898 207.066 137.721 209.002L134.733 208.729ZM135.302 197.135C135.317 195.228 135.294 193.29 135.231 191.32L138.23 191.225C138.294 193.234 138.317 195.212 138.302 197.158L135.302 197.135ZM134.935 185.503C134.802 183.608 134.633 181.685 134.425 179.734L137.408 179.417C137.62 181.404 137.792 183.363 137.928 185.294L134.935 185.503ZM133.71 173.979C133.573 173.015 133.427 172.045 133.272 171.068L136.234 170.596C136.393 171.59 136.541 172.577 136.68 173.557L133.71 173.979ZM133.272 171.068C133.12 170.115 132.953 169.162 132.771 168.208L135.718 167.645C135.905 168.629 136.078 169.612 136.234 170.596L133.272 171.068ZM131.507 162.5C131.035 160.622 130.508 158.743 129.928 156.865L132.795 155.981C133.389 157.907 133.931 159.837 134.416 161.768L131.507 162.5ZM128.07 151.324C127.41 149.5 126.704 147.678 125.953 145.859L128.727 144.715C129.493 146.573 130.215 148.436 130.891 150.303L128.07 151.324ZM123.602 140.474C122.789 138.708 121.936 136.945 121.047 135.187L123.725 133.833C124.629 135.623 125.498 137.418 126.327 139.22L123.602 140.474ZM118.31 129.995C117.371 128.284 116.4 126.579 115.398 124.88L117.983 123.356C118.999 125.081 119.986 126.813 120.94 128.552L118.31 129.995ZM112.332 119.847C111.293 118.194 110.227 116.548 109.137 114.911L111.634 113.248C112.738 114.907 113.818 116.574 114.872 118.25L112.332 119.847ZM105.81 110.047C104.683 108.441 103.535 106.844 102.366 105.257L104.782 103.479C105.964 105.083 107.126 106.699 108.266 108.324L105.81 110.047ZM98.8225 100.548C97.6245 98.9909 96.4093 97.4438 95.1789 95.9079L97.5203 94.0323C98.7626 95.5831 99.99 97.1458 101.2 98.7195L98.8225 100.548ZM91.447 91.3374C90.1876 89.8235 88.9153 88.3217 87.6322 86.8329L89.9047 84.8744C91.1988 86.376 92.4824 87.8911 93.7533 89.4188L91.447 91.3374ZM83.7388 82.3903C82.4267 80.9175 81.1059 79.4587 79.7787 78.0147L81.9874 75.9846C83.3248 77.4396 84.656 78.91 85.9788 80.3947L83.7388 82.3903ZM75.7496 73.6961C74.3874 72.2572 73.0209 70.8346 71.6523 69.4292L73.8017 67.3363C75.1797 68.7515 76.556 70.1842 77.9282 71.6336L75.7496 73.6961ZM67.504 65.2262C66.104 63.8264 64.7043 62.4454 63.3076 61.0843L65.4014 58.9358C66.807 60.3056 68.2158 61.6956 69.6252 63.1047L67.504 65.2262ZM59.0369 56.9739C57.5926 55.6007 56.1542 54.2501 54.7247 52.923L56.7657 50.7243C58.2038 52.0593 59.6508 53.4181 61.104 54.7997L59.0369 56.9739ZM50.3767 48.9331C48.9006 47.594 47.4373 46.2819 45.9901 44.9981L47.9809 42.7539C49.4362 44.0449 50.9078 45.3644 52.3924 46.7112L50.3767 48.9331ZM41.5291 41.0844C40.0062 39.7629 38.506 38.4759 37.0326 37.2248L38.9743 34.938C40.4556 36.1958 41.964 37.4898 43.4953 38.8185L41.5291 41.0844ZM32.5007 33.4179C30.9377 32.1189 29.4128 30.866 27.9316 29.6612L29.8247 27.3339C31.3138 28.5452 32.8468 29.8048 34.4182 31.1107L32.5007 33.4179ZM23.3225 25.9525C21.7013 24.6621 20.1485 23.4411 18.6732 22.2929L20.5158 19.9254C21.9994 21.0801 23.5607 22.3078 25.1907 23.6052L23.3225 25.9525ZM13.9998 18.6976C12.2553 17.3716 10.671 16.1855 9.2693 15.1477L11.0544 12.7366C12.4659 13.7816 14.0603 14.9752 15.8153 16.3093L13.9998 18.6976ZM4.48085 11.6582C3.72187 11.1151 3.13716 10.7023 2.74304 10.4258C2.546 10.2876 2.3966 10.1835 2.2969 10.1142C2.24706 10.0796 2.20963 10.0536 2.18489 10.0365C2.17251 10.028 2.16331 10.0216 2.15732 10.0175C2.15431 10.0154 2.15211 10.0139 2.15072 10.0129C2.15003 10.0125 2.14953 10.0121 2.14923 10.0119C2.14909 10.0118 2.14899 10.0118 2.14894 10.0117C2.14893 10.0117 2.14891 10.0117 2.14891 10.0117L2.14893 10.0117C2.14893 10.0117 2.14896 10.0117 2.99953 8.7762C3.85011 7.54066 3.85013 7.54069 3.85017 7.54071C3.85017 7.54071 3.8502 7.54073 3.85023 7.54075C3.85028 7.5408 3.85035 7.54084 3.85042 7.54088C3.85058 7.54099 3.85079 7.54114 3.85104 7.54132C3.85155 7.54166 3.85228 7.54216 3.85319 7.54279C3.85503 7.54407 3.85767 7.54589 3.8611 7.54825C3.86798 7.55299 3.87807 7.55997 3.89133 7.56915C3.91784 7.58746 3.95706 7.61465 4.00871 7.65051C4.11201 7.72231 4.26508 7.82899 4.46584 7.96981C4.86739 8.25149 5.45978 8.66975 6.22669 9.21853L4.48085 11.6582ZM134.753 170.832L137.716 170.36L134.753 170.832ZM0.0493405 9.32058C-0.251317 7.69125 0.825798 6.12666 2.45515 5.82601L29.0069 0.926464C30.6362 0.625815 32.2008 1.70293 32.5015 3.33226C32.8021 4.96162 31.725 6.52621 30.0957 6.82686L6.49412 11.182L10.8493 34.7835C11.1499 36.4129 10.0728 37.9775 8.44346 38.2781C6.81411 38.5788 5.24954 37.5017 4.94887 35.8723L0.0493405 9.32058ZM96.5681 288.069C94.8024 285.644 94.8022 285.644 94.802 285.644C94.802 285.644 94.8018 285.645 94.8017 285.645C94.8015 285.645 94.8013 285.645 94.8011 285.645C94.8008 285.645 94.8005 285.646 94.8002 285.646C94.7997 285.646 94.7994 285.646 94.7992 285.646C94.799 285.647 94.7996 285.646 94.8009 285.645C94.8037 285.643 94.8096 285.639 94.8186 285.632C94.8368 285.619 94.8674 285.596 94.9101 285.563C94.9955 285.499 95.1292 285.396 95.3074 285.256C95.6637 284.975 96.1979 284.542 96.88 283.956L100.791 288.506C100.042 289.15 99.4423 289.636 99.0228 289.967C98.8131 290.132 98.6482 290.259 98.5322 290.347C98.4741 290.391 98.4283 290.425 98.3951 290.45C98.3785 290.462 98.3651 290.472 98.3548 290.479C98.3497 290.483 98.3454 290.486 98.3419 290.489C98.3402 290.49 98.3386 290.491 98.3373 290.492C98.3366 290.493 98.336 290.493 98.3355 290.494C98.3352 290.494 98.3349 290.494 98.3346 290.494C98.3345 290.494 98.3343 290.494 98.3343 290.494C98.3341 290.495 98.3339 290.495 96.5681 288.069ZM101.005 280.121C102.194 278.937 103.508 277.56 104.907 275.989L109.388 279.98C107.906 281.644 106.509 283.107 105.24 284.372L101.005 280.121ZM108.581 271.627C109.707 270.213 110.86 268.691 112.025 267.06L116.908 270.545C115.681 272.266 114.463 273.872 113.274 275.365L108.581 271.627ZM115.22 262.331C116.212 260.778 117.202 259.146 118.177 257.434L123.39 260.404C122.363 262.207 121.321 263.926 120.276 265.562L115.22 262.331ZM120.877 252.407C121.716 250.747 122.537 249.023 123.332 247.235L128.815 249.672C127.978 251.553 127.115 253.367 126.232 255.114L120.877 252.407ZM125.53 241.943C126.202 240.206 126.847 238.415 127.46 236.57L133.154 238.462C132.51 240.399 131.832 242.281 131.126 244.108L125.53 241.943ZM129.131 231.104C129.635 229.302 130.107 227.453 130.543 225.558L136.391 226.902C135.934 228.889 135.439 230.829 134.909 232.721L129.131 231.104ZM131.696 219.949C132.032 218.103 132.332 216.217 132.593 214.29L138.539 215.097C138.265 217.113 137.951 219.089 137.599 221.022L131.696 219.949ZM133.239 208.592C133.411 206.72 133.545 204.811 133.64 202.867L139.633 203.159C139.534 205.189 139.393 207.182 139.215 209.138L133.239 208.592ZM133.802 197.123C133.816 195.237 133.794 193.318 133.732 191.368L139.729 191.177C139.793 193.207 139.817 195.204 139.802 197.17L133.802 197.123ZM133.438 185.608C133.307 183.731 133.14 181.826 132.934 179.893L138.9 179.258C139.114 181.263 139.288 183.24 139.424 185.189L133.438 185.608ZM132.225 174.189C132.089 173.234 131.945 172.272 131.79 171.304L137.716 170.36C137.875 171.362 138.025 172.358 138.165 173.347L132.225 174.189ZM131.79 171.304C131.641 170.366 131.477 169.428 131.297 168.489L137.191 167.364C137.381 168.362 137.557 169.361 137.716 170.36L131.79 171.304ZM130.052 162.866C129.587 161.014 129.067 159.161 128.495 157.307L134.229 155.539C134.83 157.489 135.379 159.444 135.871 161.402L130.052 162.866ZM126.66 151.834C126.007 150.032 125.309 148.231 124.567 146.431L130.113 144.143C130.888 146.021 131.618 147.904 132.301 149.792L126.66 151.834ZM122.239 141.101C121.434 139.352 120.59 137.606 119.709 135.864L125.063 133.156C125.976 134.961 126.852 136.774 127.69 138.592L122.239 141.101ZM116.994 130.716C116.064 129.019 115.1 127.328 114.106 125.642L119.275 122.595C120.299 124.332 121.293 126.077 122.255 127.83L116.994 130.716ZM111.062 120.645C110.03 119.004 108.971 117.369 107.888 115.742L112.882 112.417C113.994 114.086 115.081 115.764 116.142 117.452L111.062 120.645ZM104.582 110.908C103.462 109.312 102.32 107.725 101.158 106.146L105.99 102.589C107.178 104.203 108.347 105.828 109.494 107.462L104.582 110.908ZM97.6335 101.463C96.4417 99.9135 95.2326 98.3741 94.0082 96.8457L98.691 93.0945C99.9393 94.6528 101.173 96.2232 102.389 97.805L97.6335 101.463ZM90.2939 92.2967C89.0402 90.7897 87.7735 89.2946 86.4959 87.8122L91.0409 83.8952C92.3406 85.4032 93.6298 86.9249 94.9064 88.4595L90.2939 92.2967ZM82.6188 83.3881C81.312 81.9213 79.9964 80.4682 78.6743 79.0298L83.0918 74.9695C84.4343 76.4301 85.7707 77.9062 87.0988 79.3969L82.6188 83.3881ZM74.6603 74.7273C73.3031 73.2937 71.9414 71.8762 70.5777 70.4757L74.8763 66.2898C76.2592 67.7099 77.6403 69.1477 79.0174 70.6023L74.6603 74.7273ZM66.4435 66.287C65.0481 64.8918 63.653 63.5154 62.2607 62.1585L66.4483 57.8615C67.8584 59.2357 69.2717 60.6302 70.6857 62.0439L66.4435 66.287ZM58.0034 58.061C56.5635 56.6921 55.1295 55.3455 53.7041 54.0223L57.7863 49.625C59.2285 50.9639 60.6799 52.3268 62.1375 53.7125L58.0034 58.061ZM49.3689 50.0441C47.897 48.7088 46.4378 47.4004 44.9947 46.1202L48.9763 41.6318C50.4357 42.9263 51.9114 44.2496 53.4003 45.6002L49.3689 50.0441ZM40.546 42.2173C39.0272 40.8994 37.5311 39.6159 36.0617 38.3682L39.9452 33.7946C41.4305 35.0557 42.9429 36.3532 44.4784 37.6856L40.546 42.2173ZM31.542 34.5715C29.9831 33.276 28.4623 32.0264 26.9851 30.8249L30.7712 26.1703C32.2643 27.3847 33.8014 28.6477 35.3769 29.957L31.542 34.5715ZM22.3884 27.1261C20.7716 25.8392 19.2231 24.6216 17.7519 23.4766L21.4371 18.7417C22.9249 19.8996 24.4905 21.1307 26.1249 22.4315L22.3884 27.1261ZM13.092 19.8918C11.3528 18.5697 9.77363 17.3874 8.37675 16.3532L11.9469 11.531C13.3633 12.5796 14.9628 13.7771 16.723 15.1152L13.092 19.8918ZM3.60794 12.8781C2.85292 12.3378 2.27204 11.9277 1.88165 11.6538C1.68646 11.5169 1.5389 11.4141 1.441 11.3461C1.39205 11.312 1.35552 11.2867 1.33166 11.2702C1.31974 11.262 1.31098 11.2559 1.30542 11.2521C1.30264 11.2502 1.30067 11.2488 1.29949 11.248C1.2989 11.2476 1.29852 11.2473 1.29833 11.2472C1.29823 11.2472 1.29818 11.2471 1.2982 11.2471C1.29821 11.2471 1.29822 11.2471 1.29825 11.2471C1.29826 11.2472 1.2983 11.2472 1.2983 11.2472C1.29833 11.2472 1.29837 11.2472 2.99953 8.7762C4.7007 6.30516 4.70073 6.30518 4.70079 6.30523C4.7008 6.30522 4.70085 6.30527 4.70089 6.30529C4.70098 6.30536 4.70107 6.30542 4.70117 6.30548C4.70139 6.30564 4.70164 6.30581 4.70196 6.30602C4.70258 6.30646 4.7034 6.30702 4.70443 6.30774C4.70648 6.30914 4.70934 6.31112 4.71299 6.31362C4.72033 6.3187 4.73084 6.32596 4.74455 6.33543C4.77195 6.35438 4.81206 6.38217 4.86461 6.41867C4.96972 6.49172 5.1246 6.59966 5.32723 6.74182C5.7325 7.02609 6.32874 7.44708 7.0996 7.99869L3.60794 12.8781Z" fill="#F77600"/>
</svg>
