<svg width="87" height="121" viewBox="0 0 87 121" fill="none" xmlns="http://www.w3.org/2000/svg">
<path d="M41.7622 29.6392L40.5547 28.7492L41.7622 29.6392ZM24.1025 119.017C23.5411 119.626 22.5922 119.664 21.983 119.103L12.0557 109.954C11.4465 109.393 11.4077 108.444 11.9691 107.835C12.5305 107.226 13.4795 107.187 14.0887 107.748L22.913 115.88L31.0451 107.056C31.6065 106.447 32.5555 106.408 33.1647 106.97C33.7739 107.531 33.8126 108.48 33.2512 109.089L24.1025 119.017ZM85.7035 3.7884C85.5134 5.27631 85.5136 5.27634 85.5139 5.27637C85.5139 5.27638 85.5141 5.2764 85.5143 5.27642C85.5145 5.27645 85.5148 5.27648 85.515 5.27651C85.5155 5.27657 85.5159 5.27662 85.5162 5.27666C85.5168 5.27674 85.5172 5.27678 85.5172 5.27679C85.5173 5.2768 85.5163 5.27668 85.5141 5.27642C85.5098 5.27591 85.5009 5.27488 85.4874 5.27344C85.4606 5.27055 85.4159 5.26601 85.3538 5.26062C85.2295 5.24983 85.0357 5.23564 84.7771 5.22447C84.2597 5.20212 83.483 5.19187 82.4832 5.24502L82.3239 2.24925C83.4262 2.19065 84.2995 2.20104 84.9065 2.22726C85.2101 2.24037 85.4472 2.25745 85.6132 2.27186C85.6962 2.27906 85.7614 2.2856 85.8084 2.29065C85.8318 2.29317 85.8507 2.29532 85.8649 2.297C85.872 2.29784 85.878 2.29855 85.8827 2.29914C85.8851 2.29943 85.8872 2.29969 85.889 2.29992C85.8899 2.30003 85.8907 2.30013 85.8915 2.30023C85.8919 2.30028 85.8922 2.30032 85.8926 2.30037C85.8927 2.30039 85.893 2.30042 85.8931 2.30043C85.8933 2.30046 85.8935 2.30049 85.7035 3.7884ZM76.1945 6.17905C74.3588 6.61385 72.3086 7.23539 70.0965 8.11914L68.9835 5.33323C71.3391 4.3922 73.5306 3.72702 75.503 3.25983L76.1945 6.17905ZM64.2962 10.8976C62.5418 11.8808 60.7251 13.0319 58.8656 14.3794L57.1053 11.9501C59.0594 10.5341 60.9742 9.32027 62.8296 8.28051L64.2962 10.8976ZM53.8348 18.444C52.3029 19.8146 50.7541 21.3268 49.1986 22.9951L47.0044 20.9493C48.6207 19.2158 50.2341 17.6401 51.8345 16.2082L53.8348 18.444ZM44.9512 27.9384C44.29 28.7711 43.6292 29.6343 42.9696 30.5292L40.5547 28.7492C41.2354 27.8258 41.9179 26.9341 42.6017 26.0729L44.9512 27.9384ZM42.9696 30.5292C42.4246 31.2686 41.8949 32.0301 41.3802 32.8122L38.8743 31.1627C39.417 30.3383 39.9769 29.5332 40.5547 28.7492L42.9696 30.5292ZM38.5308 37.6204C37.6609 39.2478 36.8428 40.9372 36.0737 42.6779L33.3296 41.4656C34.1264 39.6621 34.977 37.9049 35.8851 36.206L38.5308 37.6204ZM33.9624 47.9026C33.3149 49.6549 32.7102 51.4431 32.1457 53.2573L29.2812 52.366C29.86 50.5057 30.4814 48.6678 31.1483 46.8628L33.9624 47.9026ZM30.5868 58.7033C30.1066 60.5303 29.663 62.372 29.2531 64.2192L26.3244 63.5693C26.742 61.687 27.1947 59.8075 27.6854 57.9407L30.5868 58.7033ZM28.119 69.7855C27.7689 71.6632 27.451 73.536 27.1626 75.3936L24.1981 74.9333C24.4909 73.0476 24.8138 71.145 25.1699 69.2356L28.119 69.7855ZM26.3682 81.024C26.1234 82.9455 25.9082 84.8381 25.7194 86.6897L22.7349 86.3853C22.9261 84.5103 23.144 82.5927 23.3922 80.6448L26.3682 81.024ZM25.2082 92.3632C25.0539 94.33 24.9281 96.2289 24.826 98.043L21.8308 97.8745C21.934 96.0397 22.0612 94.1186 22.2174 92.1284L25.2082 92.3632ZM24.5674 103.739C24.495 105.833 24.4538 107.75 24.4329 109.451L21.4331 109.414C21.4543 107.692 21.496 105.753 21.5692 103.636L24.5674 103.739ZM24.433 115.135C24.4454 116.042 24.4618 116.746 24.4751 117.222C24.4817 117.46 24.4876 117.64 24.4918 117.761C24.4938 117.821 24.4955 117.866 24.4966 117.896C24.4972 117.911 24.4976 117.922 24.4979 117.929C24.498 117.933 24.4981 117.935 24.4982 117.937C24.4982 117.938 24.4982 117.938 24.4983 117.939C24.4983 117.939 24.4983 117.939 24.4983 117.939C24.4983 117.939 24.4983 117.939 24.4983 117.939C24.4983 117.939 24.4983 117.939 24.4983 117.939C24.4983 117.939 24.4983 117.939 22.9995 118C21.5008 118.061 21.5008 118.061 21.5008 118.061C21.5008 118.061 21.5008 118.061 21.5007 118.061C21.5007 118.061 21.5007 118.061 21.5007 118.061C21.5007 118.06 21.5007 118.06 21.5007 118.06C21.5007 118.059 21.5006 118.058 21.5006 118.057C21.5005 118.055 21.5004 118.051 21.5002 118.047C21.4999 118.038 21.4994 118.026 21.4987 118.009C21.4975 117.976 21.4957 117.928 21.4935 117.865C21.4892 117.738 21.4831 117.55 21.4763 117.306C21.4626 116.816 21.4458 116.098 21.4333 115.176L24.433 115.135ZM41.7622 29.6392L39.3473 27.8593L41.7622 29.6392ZM25.2056 120.033C24.0828 121.251 22.1849 121.329 20.9665 120.206L1.11181 101.909C-0.106571 100.786 -0.184043 98.888 0.938775 97.6696C2.06159 96.4513 3.9595 96.3738 5.17788 97.4966L22.8265 113.761L39.0908 96.1123C40.2136 94.8939 42.1115 94.8164 43.3299 95.9393C44.5483 97.0621 44.6257 98.96 43.5029 100.178L25.2056 120.033ZM85.7035 3.7884C85.3234 6.76422 85.3238 6.76428 85.3243 6.76434C85.3244 6.76435 85.3248 6.76441 85.3251 6.76444C85.3257 6.76452 85.3262 6.76459 85.3268 6.76466C85.3278 6.76479 85.3288 6.76492 85.3298 6.76503C85.3316 6.76526 85.3332 6.76546 85.3345 6.76561C85.337 6.76593 85.3384 6.76609 85.3387 6.76613C85.3393 6.7662 85.3354 6.76573 85.327 6.76483C85.3102 6.76303 85.2757 6.75949 85.224 6.755C85.1206 6.74602 84.9486 6.73327 84.7123 6.72307C84.2397 6.70266 83.5113 6.69248 82.5628 6.7429L82.2443 0.751364C83.3978 0.690045 84.3194 0.700502 84.9712 0.728658C85.2972 0.742739 85.556 0.761255 85.7429 0.777476C85.8363 0.785587 85.9118 0.793127 85.9688 0.799256C85.9973 0.802321 86.0211 0.805033 86.0403 0.807288C86.0499 0.808416 86.0583 0.809429 86.0655 0.810315C86.0691 0.810758 86.0724 0.811169 86.0754 0.811547C86.0769 0.811735 86.0784 0.811917 86.0797 0.812088C86.0804 0.812174 86.0811 0.812258 86.0817 0.81234C86.082 0.812381 86.0825 0.81244 86.0827 0.812461C86.0831 0.812519 86.0836 0.812578 85.7035 3.7884ZM76.5402 7.63867C74.7729 8.05726 72.7934 8.65699 70.653 9.51209L68.427 3.94027C70.8543 2.9706 73.1165 2.2836 75.1573 1.80021L76.5402 7.63867ZM65.0295 12.2061C63.3256 13.161 61.5579 14.2808 59.7458 15.594L56.2251 10.7355C58.2266 9.28515 60.1905 8.04002 62.0963 6.97197L65.0295 12.2061ZM54.835 19.5619C53.3373 20.9019 51.8208 22.3823 50.2958 24.018L45.9073 19.9264C47.554 18.1602 49.1997 16.5528 50.8344 15.0903L54.835 19.5619ZM46.1259 28.8711C45.476 29.6896 44.8262 30.5386 44.1771 31.4192L39.3473 27.8593C40.0385 26.9216 40.7319 26.0156 41.4269 25.1402L46.1259 28.8711ZM44.1771 31.4192C43.6485 32.1363 43.1339 32.876 42.6331 33.6369L37.6214 30.338C38.178 29.4924 38.7531 28.6654 39.3473 27.8593L44.1771 31.4192ZM39.8537 38.3275C39.0028 39.9192 38.201 41.5748 37.4458 43.2841L31.9576 40.8594C32.7682 39.0246 33.635 37.2334 34.5623 35.4989L39.8537 38.3275ZM35.3694 48.4225C34.7316 50.1485 34.1353 51.9118 33.578 53.703L27.8489 51.9203C28.435 50.0369 29.0646 48.1742 29.7413 46.3429L35.3694 48.4225ZM32.0376 59.0846C31.5626 60.8916 31.1235 62.7145 30.7175 64.5441L24.86 63.2444C25.2815 61.3446 25.7387 59.4462 26.2347 57.5594L32.0376 59.0846ZM29.5936 70.0604C29.2464 71.9224 28.9311 73.7802 28.6448 75.6238L22.7159 74.7031C23.0109 72.8034 23.3363 70.8858 23.6953 68.9606L29.5936 70.0604ZM27.8561 81.2135C27.613 83.1219 27.3993 85.002 27.2116 86.8419L21.2426 86.2332C21.435 84.3463 21.6544 82.4163 21.9043 80.4552L27.8561 81.2135ZM26.7036 92.4805C26.5502 94.4356 26.4251 96.3235 26.3237 98.1272L20.3331 97.7902C20.4369 95.9451 20.5649 94.0129 20.722 92.0111L26.7036 92.4805ZM26.0665 103.791C25.9945 105.873 25.9535 107.778 25.9327 109.47L19.9332 109.396C19.9545 107.663 19.9965 105.713 20.0701 103.584L26.0665 103.791ZM25.9328 115.115C25.9451 116.014 25.9614 116.711 25.9745 117.18C25.981 117.414 25.9868 117.592 25.9909 117.709C25.9929 117.768 25.9945 117.812 25.9955 117.84C25.9961 117.854 25.9965 117.864 25.9967 117.87C25.9969 117.874 25.9969 117.876 25.997 117.877C25.997 117.878 25.997 117.878 25.997 117.878C25.997 117.878 25.997 117.878 25.997 117.878C25.997 117.878 25.997 117.878 25.997 117.878C25.997 117.878 25.997 117.878 25.997 117.878C25.997 117.878 25.997 117.878 22.9995 118C20.002 118.122 20.002 118.122 20.002 118.122C20.002 118.122 20.002 118.122 20.002 118.122C20.002 118.122 20.002 118.122 20.002 118.122C20.002 118.121 20.0019 118.121 20.0019 118.12C20.0019 118.12 20.0019 118.118 20.0018 118.117C20.0017 118.114 20.0015 118.111 20.0014 118.106C20.001 118.096 20.0005 118.083 19.9998 118.066C19.9985 118.031 19.9967 117.981 19.9944 117.916C19.9899 117.786 19.9838 117.596 19.9768 117.348C19.963 116.852 19.9461 116.126 19.9334 115.196L25.9328 115.115Z" fill="#F77600"/>
</svg>
