<svg width="252" height="71" viewBox="0 0 252 71" fill="none" xmlns="http://www.w3.org/2000/svg">
<path d="M166.539 4.87656L166.783 3.39648L166.539 4.87656ZM2.7524 64.3741C1.93532 64.2374 1.38378 63.4642 1.52047 62.6472L3.74812 49.3322C3.88481 48.5152 4.65799 47.9636 5.47507 48.1003C6.29213 48.237 6.84369 49.0102 6.70698 49.8273L4.72686 61.6628L16.5624 63.6429C17.3794 63.7796 17.931 64.5528 17.7943 65.3698C17.6576 66.1869 16.8844 66.7385 16.0673 66.6018L2.7524 64.3741ZM248.965 64.0381C247.538 64.5012 247.539 64.5013 247.539 64.5014C247.539 64.5015 247.539 64.5016 247.539 64.5016C247.539 64.5018 247.539 64.5019 247.539 64.502C247.539 64.5022 247.539 64.5023 247.539 64.5024C247.539 64.5025 247.539 64.5024 247.539 64.5021C247.539 64.5015 247.538 64.4999 247.537 64.4973C247.536 64.4922 247.533 64.4833 247.528 64.4707C247.52 64.4455 247.506 64.4053 247.487 64.3508C247.449 64.2417 247.39 64.075 247.307 63.8545C247.142 63.4136 246.884 62.7579 246.521 61.9186L249.275 60.7283C249.658 61.6152 249.934 62.3168 250.116 62.8017C250.207 63.0441 250.274 63.2324 250.32 63.3626C250.342 63.4277 250.36 63.4783 250.372 63.5139C250.378 63.5317 250.382 63.5457 250.386 63.5559C250.387 63.561 250.389 63.5652 250.39 63.5684C250.39 63.57 250.391 63.5713 250.391 63.5724C250.391 63.573 250.391 63.5735 250.392 63.5739C250.392 63.5741 250.392 63.5743 250.392 63.5745C250.392 63.5746 250.392 63.5748 250.392 63.5748C250.392 63.5749 250.392 63.5751 248.965 64.0381ZM243.986 56.7312C243.171 55.2262 242.197 53.5513 241.047 51.7509L243.575 50.1357C244.766 52.0002 245.776 53.7375 246.624 55.3026L243.986 56.7312ZM237.759 46.9684C236.672 45.4951 235.479 43.973 234.172 42.4202L236.467 40.4884C237.817 42.092 239.05 43.6646 240.173 45.1877L237.759 46.9684ZM230.306 38.1082C229.016 36.7562 227.638 35.3941 226.17 34.0328L228.209 31.8325C229.724 33.2365 231.145 34.6417 232.476 36.037L230.306 38.1082ZM221.797 30.2188C220.342 29.024 218.811 27.8379 217.202 26.6683L218.965 24.2416C220.623 25.4463 222.2 26.6685 223.701 27.9L221.797 30.2188ZM212.414 23.3951C210.821 22.3714 209.161 21.367 207.432 20.3877L208.91 17.7773C210.688 18.7843 212.396 19.8176 214.036 20.8713L212.414 23.3951ZM202.296 17.6607C200.602 16.8183 198.848 16.0011 197.033 15.2134L198.227 12.4614C200.09 13.2698 201.891 14.1089 203.632 14.9743L202.296 17.6607ZM191.643 13.0331C189.865 12.3645 188.034 11.7243 186.148 11.1158L187.069 8.26068C189 8.88376 190.876 9.5397 192.699 10.2251L191.643 13.0331ZM180.565 9.45446C178.728 8.95259 176.844 8.48042 174.911 8.0406L175.577 5.11537C177.551 5.56468 179.477 6.04729 181.356 6.56057L180.565 9.45446ZM169.2 6.86429C168.243 6.68721 167.275 6.5179 166.295 6.35664L166.783 3.39648C167.782 3.56094 168.77 3.73365 169.746 3.91435L169.2 6.86429ZM166.295 6.35664C165.35 6.20102 164.398 6.06166 163.44 5.93814L163.824 2.96277C164.816 3.09066 165.802 3.23507 166.783 3.39648L166.295 6.35664ZM157.663 5.38651C155.746 5.2649 153.808 5.20071 151.851 5.19082L151.866 2.19086C153.878 2.20102 155.875 2.26706 157.853 2.39253L157.663 5.38651ZM146.026 5.3165C144.099 5.4076 142.157 5.54683 140.204 5.73129L139.922 2.74458C141.919 2.55591 143.908 2.41327 145.884 2.31985L146.026 5.3165ZM134.408 6.40443C132.492 6.66719 130.568 6.96988 128.638 7.30981L128.118 4.35529C130.084 4.00906 132.045 3.70042 134 3.43226L134.408 6.40443ZM122.897 8.42513C120.997 8.82787 119.093 9.26378 117.188 9.73032L116.475 6.81645C118.409 6.34276 120.343 5.89982 122.275 5.49031L122.897 8.42513ZM111.516 11.2075C109.636 11.7254 107.758 12.2706 105.882 12.8407L105.01 9.97045C106.909 9.39302 108.813 8.84045 110.719 8.31528L111.516 11.2075ZM100.293 14.6153C98.4362 15.2292 96.5851 15.8653 94.7417 16.521L93.7363 13.6945C95.6 13.0315 97.4723 12.3882 99.3509 11.767L100.293 14.6153ZM89.2293 18.5474C87.3948 19.2433 85.5701 19.9566 83.7575 20.6848L82.6392 17.901C84.4692 17.1659 86.3119 16.4455 88.1653 15.7425L89.2293 18.5474ZM78.3281 22.924C76.5172 23.69 74.7209 24.4686 72.9416 25.2574L71.7258 22.5148C73.5203 21.7193 75.3322 20.9339 77.1594 20.161L78.3281 22.924ZM67.5815 27.686C65.7863 28.5168 64.0114 29.3554 62.2594 30.1991L60.9578 27.4962C62.7232 26.646 64.5119 25.8008 66.3215 24.9634L67.5815 27.686ZM56.9759 32.7914C55.1992 33.6793 53.45 34.5694 51.7311 35.4586L50.3527 32.794C52.0836 31.8986 53.8453 31.0021 55.635 30.1078L56.9759 32.7914ZM46.5241 38.197C44.7618 39.1389 43.0372 40.0759 41.3537 41.0042L39.9052 38.3771C41.5997 37.4427 43.3358 36.4994 45.11 35.5512L46.5241 38.197ZM36.2182 43.8787C34.462 44.8763 32.76 45.8582 31.1166 46.8193L29.6022 44.2295C31.2561 43.2624 32.9689 42.2742 34.7363 41.2702L36.2182 43.8787ZM26.0513 49.8237C24.2909 50.8828 22.6163 51.906 21.0346 52.8849L19.4558 50.334C21.0478 49.3487 22.7332 48.3189 24.5048 47.2531L26.0513 49.8237ZM16.0728 56.0003C14.2288 57.1751 12.5691 58.2521 11.1107 59.2109L9.46257 56.7042C10.9323 55.7379 12.6042 54.653 14.4608 53.4702L16.0728 56.0003ZM6.26635 62.4543C5.48123 62.9907 4.8805 63.4074 4.47699 63.6894C4.27522 63.8304 4.12279 63.9377 4.02126 64.0094C3.97049 64.0452 3.93245 64.0722 3.90734 64.09C3.89479 64.0989 3.88547 64.1055 3.8794 64.1099C3.87637 64.112 3.87415 64.1136 3.87276 64.1146C3.87205 64.1151 3.87156 64.1154 3.87127 64.1156C3.87112 64.1157 3.87103 64.1158 3.87098 64.1158C3.87097 64.1159 3.87095 64.1159 3.87097 64.1159L3.87098 64.1159C3.871 64.1158 3.87101 64.1158 2.99991 62.8947C2.12881 61.6735 2.12884 61.6735 2.12887 61.6735C2.12888 61.6735 2.12892 61.6735 2.12893 61.6735C2.12899 61.6734 2.12907 61.6734 2.12915 61.6733C2.1293 61.6732 2.12951 61.673 2.12979 61.6729C2.13031 61.6725 2.13104 61.672 2.13199 61.6713C2.13386 61.6699 2.13657 61.668 2.14008 61.6655C2.1471 61.6605 2.15739 61.6532 2.17093 61.6436C2.19798 61.6244 2.23797 61.5961 2.29072 61.5588C2.39622 61.4843 2.55272 61.3742 2.75862 61.2303C3.1704 60.9426 3.77977 60.5198 4.5739 59.9772L6.26635 62.4543ZM166.539 4.87656L167.026 1.91641L166.539 4.87656ZM2.50487 65.8536C0.870735 65.5802 -0.232363 64.0338 0.0410295 62.3997L4.49631 35.7698C4.76972 34.1356 6.31607 33.0325 7.95023 33.3059C9.58437 33.5793 10.6875 35.1257 10.4141 36.7598L6.45382 60.4308L30.1248 64.3911C31.759 64.6645 32.8621 66.2109 32.5887 67.845C32.3153 69.4791 30.7689 70.5822 29.1348 70.3088L2.50487 65.8536ZM248.965 64.0381C246.112 64.9643 246.112 64.9645 246.112 64.9647C246.112 64.9648 246.112 64.965 246.112 64.9652C246.112 64.9655 246.112 64.9657 246.112 64.966C246.112 64.9665 246.113 64.967 246.113 64.9674C246.113 64.9681 246.113 64.9687 246.113 64.969C246.113 64.9696 246.113 64.9693 246.113 64.968C246.112 64.9655 246.11 64.9591 246.107 64.9491C246.1 64.929 246.088 64.8941 246.071 64.8448C246.036 64.7463 245.981 64.5904 245.902 64.3809C245.745 63.9619 245.497 63.3292 245.144 62.5138L250.652 60.1331C251.046 61.0438 251.331 61.7685 251.521 62.2753C251.616 62.5287 251.687 62.7278 251.736 62.8686C251.761 62.9389 251.78 62.9947 251.793 63.0355C251.8 63.0558 251.806 63.0724 251.81 63.0852C251.812 63.0916 251.814 63.097 251.815 63.1015C251.816 63.1037 251.817 63.1057 251.817 63.1075C251.817 63.1083 251.818 63.1091 251.818 63.1099C251.818 63.1103 251.818 63.1106 251.818 63.111C251.818 63.1112 251.818 63.1114 251.819 63.1115C251.819 63.1117 251.819 63.112 248.965 64.0381ZM242.667 57.4455C241.868 55.9705 240.913 54.3268 239.783 52.5585L244.839 49.328C246.051 51.2247 247.079 52.9932 247.943 54.5883L242.667 57.4455ZM236.551 47.8588C235.483 46.4103 234.31 44.9134 233.024 43.386L237.615 39.5225C238.986 41.1515 240.238 42.7494 241.38 44.2973L236.551 47.8588ZM229.221 39.1438C227.951 37.8134 226.596 36.4729 225.15 35.133L229.229 30.7323C230.767 32.1577 232.209 33.5845 233.561 35.0014L229.221 39.1438ZM220.846 31.3783C219.412 30.2018 217.905 29.0338 216.32 27.8817L219.847 23.0282C221.529 24.2505 223.13 25.4907 224.652 26.7406L220.846 31.3783ZM211.603 24.657C210.033 23.6483 208.397 22.6584 206.693 21.6929L209.649 16.472C211.452 17.493 213.184 18.5407 214.847 19.6094L211.603 24.657ZM201.628 19.0039C199.957 18.173 198.227 17.3667 196.435 16.5894L198.824 11.0854C200.711 11.9041 202.535 12.7541 204.299 13.6311L201.628 19.0039ZM191.115 14.4372C189.359 13.7769 187.55 13.1445 185.687 12.5433L187.529 6.83314C189.483 7.46351 191.382 8.12729 193.227 8.82111L191.115 14.4372ZM180.169 10.9014C178.354 10.4052 176.491 9.9383 174.578 9.50322L175.91 3.65275C177.905 4.1068 179.852 4.59463 181.751 5.11363L180.169 10.9014ZM168.928 8.33926C167.98 8.16398 167.022 7.99637 166.052 7.83672L167.026 1.91641C168.035 2.08246 169.033 2.25688 170.019 2.43938L168.928 8.33926ZM166.052 7.83672C165.124 7.684 164.19 7.54716 163.249 7.42582L164.016 1.47509C165.025 1.60516 166.028 1.75209 167.026 1.91641L166.052 7.83672ZM157.568 6.8835C155.681 6.76382 153.772 6.70055 151.844 6.6908L151.874 0.690881C153.914 0.701184 155.939 0.768136 157.948 0.895534L157.568 6.8835ZM146.097 6.81483C144.194 6.90477 142.276 7.04229 140.345 7.22465L139.781 1.25123C141.801 1.06045 143.813 0.916098 145.814 0.821518L146.097 6.81483ZM134.612 7.89051C132.716 8.15058 130.811 8.45029 128.899 8.78706L127.858 2.87803C129.841 2.52865 131.822 2.21704 133.796 1.94618L134.612 7.89051ZM123.208 9.89255C121.324 10.2919 119.435 10.7243 117.545 11.1873L116.118 5.35952C118.066 4.88225 120.016 4.4358 121.964 4.0229L123.208 9.89255ZM111.914 12.6536C110.048 13.1679 108.182 13.7094 106.319 14.2759L104.573 8.53531C106.485 7.95422 108.401 7.39797 110.32 6.86917L111.914 12.6536ZM100.764 16.0395C98.9181 16.6497 97.0777 17.2821 95.2444 17.9342L93.2336 12.2812C95.1075 11.6147 96.9903 10.9677 98.88 10.3428L100.764 16.0395ZM89.7614 19.9499C87.9362 20.6423 86.1206 21.352 84.3167 22.0767L82.0801 16.5091C83.9188 15.7705 85.7705 15.0466 87.6333 14.34L89.7614 19.9499ZM78.9124 24.3055C77.1097 25.068 75.3213 25.8433 73.5495 26.6287L71.118 21.1435C72.9199 20.3447 74.7397 19.5558 76.575 18.7795L78.9124 24.3055ZM68.2115 29.0473C66.4234 29.8747 64.6555 30.7101 62.9102 31.5506L60.307 26.1447C62.0791 25.2914 63.8747 24.4429 65.6915 23.6021L68.2115 29.0473ZM57.6464 34.1333C55.8761 35.0179 54.1331 35.9048 52.4203 36.7909L49.6635 31.4617C51.4004 30.5632 53.1683 29.6635 54.9645 28.766L57.6464 34.1333ZM47.2312 39.5198C45.4748 40.4586 43.756 41.3925 42.078 42.3177L39.1809 37.0635C40.881 36.1261 42.6228 35.1797 44.4029 34.2283L47.2312 39.5198ZM36.9591 45.1829C35.2086 46.1773 33.512 47.1561 31.8738 48.1141L28.845 42.9347C30.5041 41.9645 32.2224 40.9732 33.9954 39.9659L36.9591 45.1829ZM26.8246 51.1091C25.0698 52.1648 23.4006 53.1847 21.824 54.1604L18.6664 49.0585C20.2636 48.07 21.9543 47.037 23.7315 45.9678L26.8246 51.1091ZM16.8787 57.2654C15.0412 58.4361 13.3874 59.5092 11.9348 60.4643L8.6385 55.4508C10.114 54.4807 11.7919 53.392 13.6549 52.2051L16.8787 57.2654ZM7.11256 63.6928C6.33195 64.2261 5.73554 64.6399 5.33617 64.919C5.13648 65.0585 4.98607 65.1644 4.88651 65.2347C4.83674 65.2698 4.7997 65.2961 4.77555 65.3132C4.76349 65.3218 4.75465 65.328 4.74907 65.332C4.74628 65.334 4.74431 65.3354 4.74314 65.3362C4.74256 65.3367 4.74218 65.3369 4.74201 65.337C4.74193 65.3371 4.74189 65.3371 4.7419 65.3371C4.74192 65.3371 4.74193 65.3371 4.74198 65.3371C4.74199 65.3371 4.74202 65.337 4.74204 65.337C4.74207 65.337 4.74212 65.337 2.99991 62.8947C1.25771 60.4524 1.25775 60.4524 1.25781 60.4523C1.25783 60.4523 1.25789 60.4523 1.25792 60.4523C1.25801 60.4522 1.2581 60.4521 1.25823 60.452C1.25844 60.4519 1.25872 60.4517 1.25904 60.4515C1.2597 60.451 1.26054 60.4504 1.26161 60.4496C1.26372 60.4481 1.26666 60.446 1.27041 60.4434C1.27791 60.438 1.28869 60.4304 1.3027 60.4204C1.33073 60.4005 1.37172 60.3715 1.42545 60.3335C1.53294 60.2576 1.69148 60.1461 1.89943 60.0008C2.31535 59.7101 2.92905 59.2844 3.72769 58.7387L7.11256 63.6928Z" fill="#F77600"/>
</svg>
