<svg width="111" height="181" viewBox="0 0 111 181" fill="none" xmlns="http://www.w3.org/2000/svg">
<path d="M107.574 62.6029L109.058 62.3805L109.058 62.3805L107.574 62.6029ZM2.31488 167.807C2.04546 168.591 2.46213 169.444 3.24553 169.714L16.0117 174.104C16.7951 174.373 17.6485 173.957 17.918 173.173C18.1874 172.39 17.7707 171.537 16.9873 171.267L5.63962 167.365L9.54215 156.017C9.81157 155.234 9.3949 154.38 8.61151 154.111C7.82812 153.841 6.97465 154.258 6.70523 155.041L2.31488 167.807ZM82.1986 3.24519C81.5734 4.60871 81.5731 4.60856 81.5728 4.60841C81.5727 4.60837 81.5724 4.60822 81.5722 4.60813C81.5717 4.60794 81.5713 4.60776 81.571 4.60758C81.5702 4.60723 81.5695 4.6069 81.5688 4.60659C81.5675 4.60598 81.5664 4.60546 81.5655 4.60503C81.5637 4.60418 81.5627 4.60371 81.5625 4.60362C81.5621 4.60346 81.5651 4.60485 81.5712 4.60788C81.5834 4.61396 81.6085 4.62663 81.6457 4.64661C81.7203 4.68657 81.8439 4.75584 82.0121 4.86022C82.3483 5.06888 82.8633 5.4184 83.5208 5.95538L85.4184 3.63177C84.6601 3.01244 84.0396 2.58776 83.5942 2.31132C83.3716 2.17313 83.1929 2.07212 83.0629 2.00243C82.9979 1.96759 82.9451 1.9406 82.905 1.92071C82.885 1.91077 82.8681 1.90261 82.8546 1.89613C82.8478 1.89289 82.8418 1.89008 82.8367 1.88767C82.8341 1.88647 82.8317 1.88537 82.8296 1.88437C82.8285 1.88387 82.8275 1.8834 82.8265 1.88295C82.826 1.88272 82.8255 1.88251 82.8251 1.88229C82.8248 1.88219 82.8245 1.88203 82.8244 1.88198C82.8241 1.88183 82.8237 1.88168 82.1986 3.24519ZM87.201 9.6537C88.1801 10.8175 89.2465 12.2293 90.3652 13.9337L92.8732 12.2876C91.6915 10.4871 90.5545 8.97978 89.4966 7.72234L87.201 9.6537ZM93.106 18.5593C93.8934 20.0253 94.6919 21.6376 95.4909 23.4095L98.2257 22.1763C97.3991 20.3434 96.5701 18.6688 95.7489 17.1397L93.106 18.5593ZM97.5753 28.4173C98.1909 30.0186 98.8013 31.7231 99.4015 33.5373L102.25 32.5949C101.635 30.737 101.009 28.9877 100.376 27.3408L97.5753 28.4173ZM101.01 38.7612C101.488 40.4329 101.957 42.1835 102.413 44.0165L105.324 43.2927C104.86 41.4265 104.382 39.6419 103.894 37.9356L101.01 38.7612ZM103.651 49.3584C104.022 51.0769 104.381 52.8592 104.727 54.7078L107.676 54.1558C107.325 52.2809 106.96 50.4715 106.583 48.7256L103.651 49.3584ZM105.665 60.0912C105.81 60.9884 105.952 61.8997 106.091 62.8253L109.058 62.3805C108.917 61.4436 108.773 60.5209 108.626 59.6122L105.665 60.0912ZM106.091 62.8253C106.233 63.7731 106.332 64.7223 106.391 65.6727L109.385 65.4887C109.322 64.452 109.213 63.4158 109.058 62.3805L106.091 62.8253ZM106.261 71.3907C106.064 73.274 105.719 75.1624 105.236 77.0533L108.142 77.7957C108.659 75.7728 109.031 73.7405 109.244 71.7027L106.261 71.3907ZM103.454 82.5531C102.763 84.3224 101.96 86.0906 101.056 87.8554L103.725 89.2236C104.672 87.3763 105.517 85.5159 106.248 83.6452L103.454 82.5531ZM98.1662 92.9434C97.1505 94.5758 96.055 96.2017 94.8875 97.8189L97.32 99.5748C98.5245 97.9062 99.6586 96.2234 100.713 94.5283L98.1662 92.9434ZM91.2987 102.493C90.0733 104.001 88.7913 105.498 87.4595 106.982L89.6928 108.986C91.0547 107.467 92.3684 105.933 93.6265 104.386L91.2987 102.493ZM83.4153 111.302C82.0478 112.705 80.641 114.094 79.2008 115.469L81.272 117.639C82.7366 116.241 84.1693 114.827 85.5634 113.397L83.4153 111.302ZM74.8428 119.496C73.3733 120.812 71.8779 122.112 70.3626 123.394L72.3007 125.684C73.8362 124.385 75.3528 123.066 76.8443 121.73L74.8428 119.496ZM65.7772 127.176C64.2302 128.42 62.6693 129.645 61.1004 130.849L62.927 133.229C64.513 132.012 66.0917 130.773 67.6572 129.514L65.7772 127.176ZM56.3435 134.421C54.734 135.605 53.1225 136.765 51.5152 137.9L53.2459 140.35C54.8681 139.205 56.495 138.033 58.1204 136.838L56.3435 134.421ZM46.6224 141.291C44.9578 142.423 43.3047 143.527 41.6703 144.6L43.3166 147.108C44.9641 146.026 46.6309 144.913 48.3098 143.771L46.6224 141.291ZM36.6627 147.831C34.9424 148.922 33.2528 149.975 31.6028 150.988L33.1721 153.545C34.8341 152.525 36.5364 151.464 38.2697 150.364L36.6627 147.831ZM26.4966 154.071C24.7145 155.13 22.9973 156.132 21.3584 157.075L22.8542 159.676C24.5047 158.726 26.2342 157.717 28.0289 156.65L26.4966 154.071ZM16.187 160.001C14.2633 161.072 12.5052 162.03 10.9444 162.867L12.363 165.511C13.9364 164.666 15.7079 163.701 17.6456 162.623L16.187 160.001ZM5.70252 165.622C4.85265 166.058 4.1938 166.391 3.74842 166.613C3.52573 166.725 3.35642 166.809 3.24329 166.865C3.18673 166.893 3.14421 166.913 3.11609 166.927C3.10203 166.934 3.09157 166.939 3.08475 166.943C3.08134 166.944 3.07885 166.946 3.07727 166.946C3.07648 166.947 3.07592 166.947 3.07558 166.947C3.07542 166.947 3.07531 166.947 3.07526 166.947C3.07523 166.947 3.07522 166.947 3.07522 166.947L3.07524 166.947C3.07526 166.947 3.07528 166.947 3.73334 168.295C4.39141 169.643 4.39144 169.643 4.39146 169.643C4.39148 169.643 4.39152 169.643 4.39155 169.643C4.39161 169.643 4.39168 169.643 4.39177 169.643C4.39196 169.643 4.39219 169.643 4.39249 169.643C4.39307 169.642 4.39389 169.642 4.39495 169.641C4.39704 169.64 4.40006 169.639 4.40399 169.637C4.41184 169.633 4.42335 169.628 4.43846 169.62C4.46867 169.605 4.51332 169.583 4.57203 169.554C4.68944 169.496 4.86314 169.41 5.09031 169.297C5.54462 169.069 6.21283 168.732 7.07244 168.291L5.70252 165.622ZM107.574 62.6029L110.541 62.1581L107.574 62.6029ZM0.896419 167.32C0.357592 168.886 1.19092 170.593 2.75771 171.132L28.29 179.913C29.8568 180.452 31.5638 179.618 32.1026 178.052C32.6414 176.485 31.8081 174.778 30.2413 174.239L7.5459 166.434L15.351 143.739C15.8898 142.172 15.0565 140.465 13.4897 139.926C11.9229 139.387 10.2159 140.221 9.67711 141.787L0.896419 167.32ZM82.1986 3.24519C80.9483 5.97222 80.9476 5.97193 80.947 5.97163C80.9468 5.97153 80.9461 5.97124 80.9457 5.97104C80.9448 5.97066 80.944 5.97027 80.9432 5.9699C80.9416 5.96914 80.94 5.96841 80.9384 5.9677C80.9354 5.96628 80.9325 5.96495 80.9299 5.96371C80.9246 5.96123 80.9201 5.95912 80.9164 5.95737C80.9091 5.95388 80.9051 5.95188 80.9043 5.95147C80.9026 5.95064 80.9137 5.95614 80.9372 5.9687C80.984 5.9938 81.0801 6.0472 81.221 6.13467C81.5026 6.30944 81.9649 6.62137 82.5721 7.11719L86.3672 2.46996C85.5584 1.80947 84.8852 1.3472 84.3853 1.03687C84.1354 0.881781 83.9292 0.764892 83.7715 0.680343C83.6926 0.638077 83.6259 0.603916 83.5719 0.577126C83.5449 0.563732 83.5211 0.552181 83.5006 0.542384C83.4903 0.537486 83.4809 0.533025 83.4723 0.528991C83.468 0.526975 83.4639 0.525065 83.46 0.52326C83.458 0.522358 83.4561 0.521482 83.4543 0.520632C83.4534 0.520207 83.4524 0.519789 83.4515 0.519377C83.4511 0.519171 83.4504 0.518867 83.4502 0.518764C83.4495 0.518461 83.4489 0.518161 82.1986 3.24519ZM86.0532 10.6194C86.9929 11.7363 88.024 13.1004 89.1112 14.7568L94.1272 11.4645C92.914 9.61606 91.7417 8.06093 90.6444 6.75666L86.0532 10.6194ZM91.7845 19.269C92.555 20.7036 93.3382 22.2848 94.1235 24.0261L99.5931 21.5596C98.7528 19.6962 97.9085 17.9905 97.0703 16.4299L91.7845 19.269ZM96.1752 28.9555C96.782 30.534 97.3844 32.2162 97.9775 34.0085L103.674 32.1237C103.052 30.244 102.418 28.4722 101.776 26.8026L96.1752 28.9555ZM99.5678 39.1741C100.041 40.8284 100.505 42.5619 100.957 44.3784L106.78 42.9308C106.312 41.048 105.83 39.2464 105.336 37.5228L99.5678 39.1741ZM102.185 49.6748C102.552 51.3795 102.909 53.1484 103.253 54.9838L109.15 53.8798C108.797 51.9917 108.429 50.1689 108.05 48.4092L102.185 49.6748ZM104.184 60.3308C104.328 61.2222 104.47 62.1278 104.607 63.0477L110.541 62.1581C110.4 61.2155 110.255 60.2871 110.107 59.3726L104.184 60.3308ZM104.607 63.0477C104.743 63.9517 104.838 64.8575 104.894 65.7648L110.882 65.3966C110.816 64.3169 110.703 63.2371 110.541 62.1581L104.607 63.0477ZM104.769 71.2347C104.58 73.0407 104.248 74.8571 103.782 76.6821L109.596 78.1669C110.129 76.0781 110.515 73.9738 110.736 71.8586L104.769 71.2347ZM102.057 82.0071C101.385 83.7256 100.604 85.4478 99.7208 87.1712L105.06 89.9077C106.028 88.0191 106.894 86.1126 107.645 84.1912L102.057 82.0071ZM96.8926 92.1509C95.8964 93.752 94.8202 95.3494 93.6713 96.941L98.5362 100.453C99.7592 98.7585 100.913 97.0472 101.987 95.3208L96.8926 92.1509ZM90.1348 101.547C88.9257 103.034 87.6596 104.513 86.3429 105.981L90.8094 109.987C92.1864 108.452 93.516 106.9 94.7904 105.332L90.1348 101.547ZM82.3413 110.255C80.9871 111.644 79.5931 113.021 78.1652 114.384L82.3076 118.724C83.7845 117.315 85.23 115.888 86.6375 114.444L82.3413 110.255ZM73.842 118.378C72.3835 119.685 70.8988 120.975 69.3935 122.249L73.2698 126.829C74.8154 125.521 76.3425 124.193 77.8451 122.848L73.842 118.378ZM64.8372 126.007C63.2995 127.244 61.7475 128.461 60.1872 129.659L63.8403 134.419C65.4348 133.195 67.0224 131.949 68.5973 130.683L64.8372 126.007ZM55.455 133.213C53.8535 134.39 52.2498 135.545 50.6498 136.675L54.1113 141.576C55.7408 140.425 57.3755 139.248 59.0089 138.047L55.455 133.213ZM45.7787 140.051C44.1212 141.178 42.475 142.277 40.8472 143.346L44.1397 148.361C45.7938 147.276 47.4675 146.158 49.1534 145.012L45.7787 140.051ZM35.8591 146.564C34.1454 147.651 32.4621 148.7 30.8182 149.709L33.9567 154.823C35.6248 153.799 37.3333 152.734 39.0732 151.631L35.8591 146.564ZM25.7304 152.782C23.9547 153.837 22.2436 154.836 20.6105 155.775L23.6021 160.976C25.2585 160.023 26.994 159.01 28.7951 157.94L25.7304 152.782ZM15.4577 158.691C13.541 159.757 11.7895 160.711 10.2351 161.545L13.0723 166.832C14.652 165.985 16.4302 165.016 18.3749 163.934L15.4577 158.691ZM5.01756 164.288C4.17257 164.721 3.51839 165.051 3.07747 165.272C2.85703 165.382 2.68991 165.465 2.57891 165.52C2.52343 165.547 2.48197 165.568 2.4549 165.581C2.44137 165.588 2.43143 165.592 2.42513 165.595C2.42198 165.597 2.41975 165.598 2.41842 165.599C2.41776 165.599 2.41734 165.599 2.41713 165.599C2.41703 165.599 2.41699 165.599 2.417 165.599C2.41701 165.599 2.41703 165.599 2.41706 165.599C2.41708 165.599 2.41712 165.599 2.41713 165.599C2.41717 165.599 2.41721 165.599 3.73334 168.295C5.04948 170.991 5.04953 170.991 5.04958 170.991C5.0496 170.991 5.04966 170.991 5.04971 170.991C5.0498 170.991 5.04991 170.991 5.05004 170.991C5.05028 170.991 5.05058 170.991 5.05094 170.99C5.05165 170.99 5.05261 170.99 5.05378 170.989C5.05614 170.988 5.05942 170.986 5.06361 170.984C5.07198 170.98 5.08401 170.974 5.09965 170.967C5.13092 170.951 5.17662 170.929 5.2364 170.899C5.35596 170.84 5.53185 170.753 5.76125 170.638C6.22004 170.409 6.89293 170.069 7.7574 169.626L5.01756 164.288Z" fill="#F77600"/>
</svg>
