<svg width="301" height="148" viewBox="0 0 301 148" fill="none" xmlns="http://www.w3.org/2000/svg">
<path d="M30.45 15.65V11H5.85V56H10.65V35.825H27.9V31.175H10.65V15.65H30.45ZM51.9164 25.4C47.6414 25.4 44.1914 27.275 41.9414 30.275V26H37.2914V56H41.9414V39.725C41.9414 34.25 46.4414 30.05 51.9164 30.05C52.8164 30.05 53.5664 30.125 54.2414 30.35V25.625C53.5664 25.475 52.8164 25.4 51.9164 25.4ZM89.1844 40.7C88.9594 32.075 82.1344 25.4 73.5844 25.4C64.9594 25.4 57.9844 32.375 57.9844 41C57.9844 49.625 64.9594 56.6 73.5844 56.6C80.7094 56.6 86.6344 51.875 88.5844 45.425H83.6344C81.9844 49.325 78.0844 51.95 73.5844 51.95C67.6594 51.95 62.9344 47.45 62.6344 41.675H89.1094L89.1844 40.7ZM73.5844 30.05C78.3844 30.05 82.4344 33.125 83.8594 37.475H63.2344C64.7344 33.125 68.7844 30.05 73.5844 30.05ZM109.685 25.4C106.91 25.4 104.36 26.525 102.41 28.4V26H97.7602V56H102.41V36.875C102.41 33.05 105.485 30.05 109.31 30.05C113.135 30.05 116.135 33.05 116.135 36.875V56H120.785V36.875C120.785 30.5 115.46 25.4 109.685 25.4ZM144.834 56.6C151.809 56.6 157.659 52.1 159.684 45.8H154.734C152.934 49.475 149.184 51.95 144.834 51.95C138.759 51.95 133.884 47.15 133.884 41C133.884 34.85 138.759 30.05 144.834 30.05C149.184 30.05 152.934 32.525 154.734 36.2H159.684C157.659 29.9 151.809 25.4 144.834 25.4C136.209 25.4 129.234 32.375 129.234 41C129.234 49.625 136.209 56.6 144.834 56.6ZM178.46 25.4C175.985 25.4 173.66 26.225 171.785 27.575V0.800003H167.135V56H171.785V36.8C171.785 32.975 174.785 30.05 178.46 30.05C182.135 30.05 185.21 32.975 185.21 36.8V56H189.785V36.8C189.785 30.425 184.76 25.4 178.46 25.4Z" fill="#ECB072"/>
<path d="M159.45 89.65V85H134.85V130H159.45V125.35H139.65V109.825H156.9V105.175H139.65V89.65H159.45ZM198.122 99.4C194.522 99.4 191.372 101.125 189.347 103.9C187.322 101.125 184.172 99.4 181.022 99.4C178.322 99.4 175.847 100.75 174.047 102.775V100H169.397V130H174.047V110.8C174.047 107.05 176.897 104.05 180.572 104.05C184.097 104.05 187.022 107.05 187.022 110.8V130H191.672V110.8C191.672 107.05 194.597 104.05 198.122 104.05C201.722 104.05 204.647 107.05 204.647 110.8V130H209.297V110.8C209.297 104.5 204.347 99.4 198.122 99.4ZM222.713 94.375C224.438 94.375 225.937 92.95 225.937 91.225C225.937 89.35 224.438 88 222.713 88C220.912 88 219.413 89.35 219.413 91.225C219.413 92.95 220.912 94.375 222.713 94.375ZM220.388 130H225.037V100H220.388V130ZM236.487 130H241.137V74.8H236.487V130ZM254.998 94.375C256.723 94.375 258.223 92.95 258.223 91.225C258.223 89.35 256.723 88 254.998 88C253.198 88 251.698 89.35 251.698 91.225C251.698 92.95 253.198 94.375 254.998 94.375ZM252.673 130H257.323V100H252.673V130ZM297.872 114.7C297.647 106.075 290.822 99.4 282.272 99.4C273.647 99.4 266.672 106.375 266.672 115C266.672 123.625 273.647 130.6 282.272 130.6C289.397 130.6 295.322 125.875 297.272 119.425H292.322C290.672 123.325 286.772 125.95 282.272 125.95C276.347 125.95 271.622 121.45 271.322 115.675H297.797L297.872 114.7ZM282.272 104.05C287.072 104.05 291.122 107.125 292.547 111.475H271.922C273.422 107.125 277.472 104.05 282.272 104.05Z" fill="white"/>
<path d="M215.225 41L211.25 53.3L207.162 41H204.95L200.862 53.225L196.962 41H194.337L199.512 56H202.062L206.075 44.225L210.05 56H212.6L217.737 41H215.225ZM222.282 38.1875C223.145 38.1875 223.895 37.475 223.895 36.6125C223.895 35.675 223.145 35 222.282 35C221.382 35 220.632 35.675 220.632 36.6125C220.632 37.475 221.382 38.1875 222.282 38.1875ZM221.12 56H223.445V41H221.12V56ZM236.069 43.25V41H232.057V34.475H229.732V41H227.219V43.25H229.732V52.0625C229.732 54.425 231.719 56.3 234.044 56.3C234.794 56.3 235.619 56.075 236.032 55.8125V54.05H234.307C233.107 54.05 232.057 53.15 232.057 51.7625V43.25H236.069ZM245.701 40.7C244.463 40.7 243.301 41.1125 242.363 41.7875V28.4H240.038V56H242.363V46.4C242.363 44.4875 243.863 43.025 245.701 43.025C247.538 43.025 249.076 44.4875 249.076 46.4V56H251.363V46.4C251.363 43.2125 248.851 40.7 245.701 40.7Z" fill="#FDDCBF"/>
<path d="M165 65C157.533 65 149.631 77.6839 149 79" stroke="white" stroke-width="3" stroke-linecap="round"/>
</svg>
